Inter-UI-BlackItalic.ufo
<glyph name="exclam" format="2">
  <advance width="844.0"/>
  <unicode hex="0021"/>
  <guideline x="156.0" y="1240.0" angle="0.0"/>
  <guideline y="764.0"/>
  <guideline x="-100.0"/>
  <outline>
    <contour>
      <point x="916.0" y="2048.0" type="line"/>
      <point x="360.0" y="2048.0" type="line"/>
      <point x="200.0" y="660.0" type="line"/>
      <point x="620.0" y="660.0" type="line"/>
    </contour>
    <contour>
      <point x="288.0" y="-20.0" type="curve" smooth="yes"/>
      <point x="460.0" y="-20.0"/>
      <point x="588.0" y="88.0"/>
      <point x="612.0" y="228.0" type="curve" smooth="yes"/>
      <point x="632.0" y="368.0"/>
      <point x="540.0" y="472.0"/>
      <point x="372.0" y="472.0" type="curve" smooth="yes"/>
      <point x="208.0" y="472.0"/>
      <point x="80.0" y="368.0"/>
      <point x="60.0" y="228.0" type="curve" smooth="yes"/>
      <point x="36.0" y="88.0"/>
      <point x="120.0" y="-20.0"/>
    </contour>
  </outline>
</glyph>
<glyph name="numbersign" format="2">
  <advance width="1924.0"/>
  <unicode hex="0023"/>
  <outline>
    <contour>
      <point x="252.0" y="0.0" type="line"/>
      <point x="548.0" y="0.0" type="line"/>
      <point x="1248.0" y="1988.0" type="line"/>
      <point x="952.0" y="1988.0" type="line"/>
    </contour>
    <contour>
      <point x="740.0" y="0.0" type="line"/>
      <point x="1040.0" y="0.0" type="line"/>
      <point x="1740.0" y="1988.0" type="line"/>
      <point x="1440.0" y="1988.0" type="line"/>
    </contour>
    <contour>
      <point x="1836.0" y="1140.0" type="line"/>
      <point x="1868.0" y="1408.0" type="line"/>
      <point x="364.0" y="1408.0" type="line"/>
      <point x="328.0" y="1140.0" type="line"/>
    </contour>
    <contour>
      <point x="1628.0" y="564.0" type="line"/>
      <point x="1664.0" y="836.0" type="line"/>
      <point x="160.0" y="836.0" type="line"/>
      <point x="124.0" y="564.0" type="line"/>
    </contour>
  </outline>
</glyph>
<glyph name="dollar" format="2">
  <advance width="1876.0"/>
  <unicode hex="0024"/>
  <guideline x="1000.0" y="2280.0" angle="0.0"/>
  <guideline y="764.0"/>
  <outline>
    <contour>
      <point x="636.0" y="-256.0" type="line"/>
      <point x="920.0" y="-256.0" type="line"/>
      <point x="1384.0" y="2304.0" type="line"/>
      <point x="1100.0" y="2304.0" type="line"/>
    </contour>
    <component base="S"/>
  </outline>
</glyph>
<glyph name="percent" format="2">
  <advance width="2468.0"/>
  <unicode hex="0025"/>
  <outline>
    <contour>
      <point x="1224.0" y="384.0" type="line" smooth="yes"/>
      <point x="1180.0" y="124.0"/>
      <point x="1312.0" y="-100.0"/>
      <point x="1628.0" y="-100.0" type="curve" smooth="yes"/>
      <point x="1940.0" y="-100.0"/>
      <point x="2152.0" y="124.0"/>
      <point x="2196.0" y="384.0" type="curve" smooth="yes"/>
      <point x="2216.0" y="492.0" type="line" smooth="yes"/>
      <point x="2260.0" y="756.0"/>
      <point x="2124.0" y="976.0"/>
      <point x="1808.0" y="976.0" type="curve" smooth="yes"/>
      <point x="1496.0" y="976.0"/>
      <point x="1284.0" y="752.0"/>
      <point x="1244.0" y="492.0" type="curve" smooth="yes"/>
    </contour>
    <contour>
      <point x="1592.0" y="492.0" type="line" smooth="yes"/>
      <point x="1604.0" y="572.0"/>
      <point x="1648.0" y="664.0"/>
      <point x="1756.0" y="664.0" type="curve" smooth="yes"/>
      <point x="1868.0" y="664.0"/>
      <point x="1876.0" y="572.0"/>
      <point x="1864.0" y="492.0" type="curve" smooth="yes"/>
      <point x="1844.0" y="384.0" type="line" smooth="yes"/>
      <point x="1832.0" y="304.0"/>
      <point x="1788.0" y="216.0"/>
      <point x="1680.0" y="216.0" type="curve" smooth="yes"/>
      <point x="1572.0" y="216.0"/>
      <point x="1560.0" y="308.0"/>
      <point x="1572.0" y="384.0" type="curve" smooth="yes"/>
    </contour>
    <contour>
      <point x="348.0" y="1556.0" type="line" smooth="yes"/>
      <point x="304.0" y="1296.0"/>
      <point x="436.0" y="1076.0"/>
      <point x="752.0" y="1076.0" type="curve" smooth="yes"/>
      <point x="1064.0" y="1076.0"/>
      <point x="1276.0" y="1292.0"/>
      <point x="1320.0" y="1556.0" type="curve" smooth="yes"/>
      <point x="1336.0" y="1664.0" type="line" smooth="yes"/>
      <point x="1380.0" y="1928.0"/>
      <point x="1244.0" y="2148.0"/>
      <point x="928.0" y="2148.0" type="curve" smooth="yes"/>
      <point x="620.0" y="2148.0"/>
      <point x="408.0" y="1928.0"/>
      <point x="364.0" y="1664.0" type="curve" smooth="yes"/>
    </contour>
    <contour>
      <point x="716.0" y="1664.0" type="line" smooth="yes"/>
      <point x="728.0" y="1740.0"/>
      <point x="768.0" y="1836.0"/>
      <point x="876.0" y="1836.0" type="curve" smooth="yes"/>
      <point x="988.0" y="1836.0"/>
      <point x="996.0" y="1744.0"/>
      <point x="984.0" y="1664.0" type="curve" smooth="yes"/>
      <point x="968.0" y="1556.0" type="line" smooth="yes"/>
      <point x="952.0" y="1476.0"/>
      <point x="912.0" y="1388.0"/>
      <point x="804.0" y="1388.0" type="curve" smooth="yes"/>
      <point x="700.0" y="1388.0"/>
      <point x="684.0" y="1476.0"/>
      <point x="700.0" y="1556.0" type="curve" smooth="yes"/>
    </contour>
    <component base="fraction" xOffset="800.0"/>
  </outline>
</glyph>
<glyph name="ampersand" format="2">
  <advance width="1964.0"/>
  <unicode hex="0026"/>
  <outline>
    <contour>
      <point x="668.0" y="-32.0" type="curve"/>
      <point x="841.0" y="-32.0"/>
      <point x="1033.0" y="8.0"/>
      <point x="1212.0" y="112.0" type="curve"/>
      <point x="1272.0" y="140.0"/>
      <point x="1328.0" y="164.0"/>
      <point x="1388.0" y="192.0" type="curve"/>
      <point x="1689.0" y="380.0"/>
      <point x="1849.0" y="712.0"/>
      <point x="1904.0" y="1068.0" type="curve"/>
      <point x="1468.0" y="1068.0" type="line"/>
      <point x="1405.0" y="680.0"/>
      <point x="1053.0" y="400.0"/>
      <point x="780.0" y="400.0" type="curve" smooth="yes"/>
      <point x="645.0" y="400.0"/>
      <point x="573.0" y="468.0"/>
      <point x="588.0" y="584.0" type="curve"/>
      <point x="605.0" y="676.0"/>
      <point x="669.0" y="731.0"/>
      <point x="740.0" y="776.0" type="curve" smooth="yes"/>
      <point x="1216.0" y="1076.0" type="line" smooth="yes"/>
      <point x="1413.0" y="1200.0"/>
      <point x="1537.0" y="1368.0"/>
      <point x="1568.0" y="1560.0" type="curve"/>
      <point x="1617.0" y="1844.0"/>
      <point x="1441.0" y="2080.0"/>
      <point x="1096.0" y="2080.0" type="curve" smooth="yes"/>
      <point x="737.0" y="2080.0"/>
      <point x="457.0" y="1824.0"/>
      <point x="404.0" y="1512.0" type="curve" smooth="yes"/>
      <point x="356.0" y="1232.0"/>
      <point x="514.0" y="1011.0"/>
      <point x="616.0" y="880.0" type="curve" smooth="yes"/>
      <point x="1300.0" y="0.0" type="line"/>
      <point x="1852.0" y="0.0" type="line"/>
      <point x="1040.0" y="1092.0" type="line"/>
      <point x="925.0" y="1268.0"/>
      <point x="833.0" y="1384.0"/>
      <point x="848.0" y="1504.0" type="curve" smooth="yes"/>
      <point x="859.0" y="1593.0"/>
      <point x="933.0" y="1644.0"/>
      <point x="1024.0" y="1644.0" type="curve" smooth="yes"/>
      <point x="1129.0" y="1644.0"/>
      <point x="1165.0" y="1584.0"/>
      <point x="1152.0" y="1520.0" type="curve" smooth="yes"/>
      <point x="1142.0" y="1472.0"/>
      <point x="1106.0" y="1402.0"/>
      <point x="1004.0" y="1344.0" type="curve" smooth="yes"/>
      <point x="492.0" y="1056.0" type="line"/>
      <point x="257.0" y="912.0"/>
      <point x="93.0" y="776.0"/>
      <point x="56.0" y="544.0" type="curve"/>
      <point x="5.0" y="228.0"/>
      <point x="229.0" y="-32.0"/>
    </contour>
  </outline>
</glyph>
<glyph name="quotesingle" format="2">
  <advance width="548.0"/>
  <unicode hex="0027"/>
  <guideline x="156.0" y="1240.0" angle="0.0"/>
  <guideline y="764.0"/>
  <outline>
    <contour>
      <point x="664.0" y="2048.0" type="line"/>
      <point x="304.0" y="2048.0" type="line"/>
      <point x="168.0" y="1220.0" type="line"/>
      <point x="528.0" y="1220.0" type="line"/>
    </contour>
  </outline>
</glyph>
<glyph name="parenleft" format="2">
  <advance width="1200.0"/>
  <unicode hex="0028"/>
  <guideline x="1408.0" y="1640.0" angle="0.0"/>
  <guideline x="1152.0" y="1752.0" angle="0.0"/>
  <guideline x="692.0" y="1692.0" angle="90.0"/>
  <guideline x="952.0" y="1584.0" angle="90.0"/>
  <outline>
    <contour>
      <point x="924.0" y="-384.0" type="line"/>
      <point x="745.0" y="24.0"/>
      <point x="705.0" y="408.0"/>
      <point x="776.0" y="832.0" type="curve" smooth="yes"/>
      <point x="849.0" y="1272.0"/>
      <point x="1013.0" y="1640.0"/>
      <point x="1332.0" y="2048.0" type="curve"/>
      <point x="904.0" y="2048.0" type="line"/>
      <point x="613.0" y="1752.0"/>
      <point x="357.0" y="1308.0"/>
      <point x="280.0" y="832.0" type="curve" smooth="yes"/>
      <point x="201.0" y="356.0"/>
      <point x="309.0" y="-88.0"/>
      <point x="504.0" y="-384.0" type="curve"/>
    </contour>
  </outline>
</glyph>
<glyph name="parenright" format="2">
  <advance width="1172.0"/>
  <unicode hex="0029"/>
  <guideline x="156.0" y="1240.0" angle="0.0"/>
  <guideline y="764.0"/>
  <outline>
    <contour>
      <point x="-112.0" y="-384.0" type="curve"/>
      <point x="308.0" y="-384.0" type="line"/>
      <point x="608.0" y="-88.0"/>
      <point x="860.0" y="356.0"/>
      <point x="940.0" y="832.0" type="curve" smooth="yes"/>
      <point x="1016.0" y="1308.0"/>
      <point x="912.0" y="1752.0"/>
      <point x="716.0" y="2048.0" type="curve"/>
      <point x="288.0" y="2048.0" type="line"/>
      <point x="472.0" y="1640.0"/>
      <point x="516.0" y="1272.0"/>
      <point x="444.0" y="832.0" type="curve" smooth="yes"/>
      <point x="372.0" y="408.0"/>
      <point x="204.0" y="24.0"/>
    </contour>
  </outline>
</glyph>
<glyph name="asterisk" format="2">
  <advance width="1664.0"/>
  <unicode hex="002A"/>
  <note>
hexagonal angle: 30 deg
</note>
  <guideline x="156.0" y="1240.0" angle="0.0"/>
  <guideline y="764.0"/>
  <guideline x="1200.0" y="1752.0" angle="90.0"/>
  <guideline x="1064.0" y="1472.0" angle="330.0"/>
  <guideline x="1064.0" y="1472.0" angle="30.0"/>
  <guideline x="1064.0" y="1472.0" angle="60.0"/>
  <guideline x="1064.0" y="1472.0" angle="300.0"/>
  <outline>
    <contour>
      <point x="692.0" y="896.0" type="line"/>
      <point x="1012.0" y="896.0" type="line"/>
      <point x="1040.0" y="1248.0" type="line"/>
      <point x="1296.0" y="1044.0" type="line"/>
      <point x="1504.0" y="1324.0" type="line"/>
      <point x="1208.0" y="1472.0" type="line"/>
      <point x="1552.0" y="1620.0" type="line"/>
      <point x="1440.0" y="1900.0" type="line"/>
      <point x="1112.0" y="1696.0" type="line"/>
      <point x="1204.0" y="2048.0" type="line"/>
      <point x="884.0" y="2048.0" type="line"/>
      <point x="856.0" y="1696.0" type="line"/>
      <point x="600.0" y="1900.0" type="line"/>
      <point x="392.0" y="1620.0" type="line"/>
      <point x="688.0" y="1472.0" type="line"/>
      <point x="344.0" y="1324.0" type="line"/>
      <point x="456.0" y="1044.0" type="line"/>
      <point x="784.0" y="1248.0" type="line"/>
    </contour>
  </outline>
</glyph>
<glyph name="plus" format="2">
  <advance width="1576.0"/>
  <unicode hex="002B"/>
  <guideline x="560.0" y="896.0" angle="0.0"/>
  <outline>
    <contour>
      <point x="1516.0" y="1096.0" type="line"/>
      <point x="172.0" y="1096.0" type="line"/>
      <point x="104.0" y="696.0" type="line"/>
      <point x="1448.0" y="696.0" type="line"/>
    </contour>
    <contour>
      <point x="1120.0" y="1536.0" type="line"/>
      <point x="712.0" y="1536.0" type="line"/>
      <point x="500.0" y="256.0" type="line"/>
      <point x="908.0" y="256.0" type="line"/>
    </contour>
  </outline>
</glyph>
<glyph name="comma" format="2">
  <advance width="864.0"/>
  <unicode hex="002C"/>
  <guideline x="312.0" y="1240.0" angle="0.0"/>
  <guideline y="764.0"/>
  <outline>
    <contour>
      <point x="584.0" y="280.0" type="line"/>
      <point x="168.0" y="280.0" type="line"/>
      <point x="148.0" y="168.0" type="line" smooth="yes"/>
      <point x="104.0" y="-104.0"/>
      <point x="-40.0" y="-396.0"/>
      <point x="-84.0" y="-500.0" type="curve"/>
      <point x="256.0" y="-500.0" type="line"/>
      <point x="320.0" y="-388.0"/>
      <point x="488.0" y="-120.0"/>
      <point x="556.0" y="168.0" type="curve" smooth="yes"/>
    </contour>
  </outline>
</glyph>
<glyph name="hyphen" format="2">
  <advance width="1380.0"/>
  <unicode hex="002D"/>
  <outline>
    <contour>
      <point x="1292.0" y="1044.0" type="line"/>
      <point x="176.0" y="1044.0" type="line"/>
      <point x="116.0" y="672.0" type="line"/>
      <point x="1232.0" y="672.0" type="line"/>
    </contour>
  </outline>
</glyph>
<glyph name="period" format="2">
  <advance width="880.0"/>
  <unicode hex="002E"/>
  <guideline x="564.0" y="1240.0" angle="0.0"/>
  <guideline x="12.0" y="764.0" angle="0.0"/>
  <outline>
    <contour>
      <point x="324.0" y="-32.0" type="curve" smooth="yes"/>
      <point x="468.0" y="-32.0"/>
      <point x="616.0" y="92.0"/>
      <point x="632.0" y="248.0" type="curve" smooth="yes"/>
      <point x="648.0" y="400.0"/>
      <point x="532.0" y="524.0"/>
      <point x="384.0" y="524.0" type="curve" smooth="yes"/>
      <point x="228.0" y="524.0"/>
      <point x="88.0" y="400.0"/>
      <point x="72.0" y="248.0" type="curve" smooth="yes"/>
      <point x="56.0" y="92.0"/>
      <point x="168.0" y="-32.0"/>
    </contour>
  </outline>
</glyph>
<glyph name="slash" format="2">
  <advance width="1304.0"/>
  <unicode hex="002F"/>
  <guideline x="164.0" y="1240.0" angle="0.0"/>
  <guideline x="8.0" y="764.0" angle="0.0"/>
  <outline>
    <contour>
      <point x="1412.0" y="2048.0" type="line"/>
      <point x="944.0" y="2048.0" type="line"/>
      <point x="-72.0" y="-308.0" type="line"/>
      <point x="396.0" y="-308.0" type="line"/>
    </contour>
  </outline>
</glyph>
<glyph name="zero" format="2">
  <advance width="2060.0"/>
  <unicode hex="0030"/>
  <guideline x="568.0" y="1240.0" angle="0.0"/>
  <guideline x="20.0" y="764.0" angle="0.0"/>
  <outline>
    <contour>
      <point x="896.0" y="-56.0" type="curve" smooth="yes"/>
      <point x="1451.0" y="-57.0"/>
      <point x="1863.0" y="342.0"/>
      <point x="1976.0" y="1020.0" type="curve" smooth="yes"/>
      <point x="2089.0" y="1694.0"/>
      <point x="1805.0" y="2076.0"/>
      <point x="1248.0" y="2076.0" type="curve" smooth="yes"/>
      <point x="690.0" y="2076.0"/>
      <point x="283.0" y="1696.0"/>
      <point x="168.0" y="1020.0" type="curve" smooth="yes"/>
      <point x="55.0" y="345.0"/>
      <point x="337.0" y="-55.0"/>
    </contour>
    <contour>
      <point x="968.0" y="396.0" type="curve" smooth="yes"/>
      <point x="777.0" y="396.0"/>
      <point x="683.0" y="589.0"/>
      <point x="756.0" y="1020.0" type="curve" smooth="yes"/>
      <point x="828.0" y="1441.0"/>
      <point x="981.0" y="1628.0"/>
      <point x="1172.0" y="1628.0" type="curve" smooth="yes"/>
      <point x="1365.0" y="1628.0"/>
      <point x="1457.0" y="1441.0"/>
      <point x="1388.0" y="1020.0" type="curve" smooth="yes"/>
      <point x="1318.0" y="589.0"/>
      <point x="1161.0" y="396.0"/>
    </contour>
  </outline>
</glyph>
<glyph name="one" format="2">
  <advance width="1408.0"/>
  <unicode hex="0031"/>
  <guideline x="392.0" y="1240.0" angle="0.0"/>
  <guideline y="764.0"/>
  <outline>
    <contour>
      <point x="1296.0" y="2048.0" type="line"/>
      <point x="796.0" y="2048.0" type="line"/>
      <point x="764.0" y="1856.0"/>
      <point x="540.0" y="1688.0"/>
      <point x="312.0" y="1688.0" type="curve"/>
      <point x="240.0" y="1252.0" type="line"/>
      <point x="460.0" y="1252.0"/>
      <point x="604.0" y="1328.0"/>
      <point x="672.0" y="1404.0" type="curve"/>
      <point x="692.0" y="1404.0" type="line"/>
      <point x="460.0" y="0.0" type="line"/>
      <point x="956.0" y="0.0" type="line"/>
    </contour>
  </outline>
</glyph>
<glyph name="two" format="2">
  <advance width="1784.0"/>
  <unicode hex="0032"/>
  <guideline x="500.0" y="2280.0" angle="0.0"/>
  <guideline y="764.0"/>
  <outline>
    <contour>
      <point x="1588.0" y="448.0" type="line"/>
      <point x="848.0" y="448.0" type="line"/>
      <point x="848.0" y="460.0" type="line"/>
      <point x="1052.0" y="620.0" type="line" smooth="yes"/>
      <point x="1384.0" y="884.0"/>
      <point x="1644.0" y="1160.0"/>
      <point x="1696.0" y="1464.0" type="curve" smooth="yes"/>
      <point x="1756.0" y="1828.0"/>
      <point x="1496.0" y="2076.0"/>
      <point x="1084.0" y="2076.0" type="curve" smooth="yes"/>
      <point x="628.0" y="2076.0"/>
      <point x="264.0" y="1772.0"/>
      <point x="196.0" y="1380.0" type="curve"/>
      <point x="724.0" y="1380.0" type="line"/>
      <point x="752.0" y="1540.0"/>
      <point x="872.0" y="1648.0"/>
      <point x="1004.0" y="1648.0" type="curve" smooth="yes"/>
      <point x="1128.0" y="1648.0"/>
      <point x="1184.0" y="1548.0"/>
      <point x="1168.0" y="1436.0" type="curve" smooth="yes"/>
      <point x="1152.0" y="1356.0"/>
      <point x="1096.0" y="1212.0"/>
      <point x="876.0" y="1032.0" type="curve" smooth="yes"/>
      <point x="92.0" y="400.0" type="line"/>
      <point x="24.0" y="0.0" type="line"/>
      <point x="1512.0" y="0.0" type="line"/>
    </contour>
  </outline>
</glyph>
<glyph name="three" format="2">
  <advance width="1904.0"/>
  <unicode hex="0033"/>
  <guideline x="984.0" y="2280.0" angle="0.0"/>
  <guideline x="-16.0" y="764.0" angle="0.0"/>
  <outline>
    <contour>
      <point x="832.0" y="-28.0" type="curve" smooth="yes"/>
      <point x="1316.0" y="-28.0"/>
      <point x="1699.0" y="216.0"/>
      <point x="1756.0" y="560.0" type="curve" smooth="yes"/>
      <point x="1797.0" y="814.0"/>
      <point x="1622.0" y="1018.0"/>
      <point x="1332.0" y="1052.0" type="curve"/>
      <point x="1336.0" y="1068.0" type="line"/>
      <point x="1615.0" y="1092.0"/>
      <point x="1793.0" y="1251.0"/>
      <point x="1828.0" y="1452.0" type="curve" smooth="yes"/>
      <point x="1886.0" y="1817.0"/>
      <point x="1603.0" y="2076.0"/>
      <point x="1140.0" y="2076.0" type="curve" smooth="yes"/>
      <point x="687.0" y="2076.0"/>
      <point x="322.0" y="1811.0"/>
      <point x="260.0" y="1436.0" type="curve"/>
      <point x="788.0" y="1436.0" type="line"/>
      <point x="806.0" y="1560.0"/>
      <point x="940.0" y="1648.0"/>
      <point x="1112.0" y="1648.0" type="curve" smooth="yes"/>
      <point x="1235.0" y="1648.0"/>
      <point x="1312.0" y="1575.0"/>
      <point x="1296.0" y="1472.0" type="curve" smooth="yes"/>
      <point x="1271.0" y="1331.0"/>
      <point x="1134.0" y="1232.0"/>
      <point x="964.0" y="1232.0" type="curve" smooth="yes"/>
      <point x="768.0" y="1232.0" type="line"/>
      <point x="704.0" y="848.0" type="line"/>
      <point x="924.0" y="848.0" type="line" smooth="yes"/>
      <point x="1093.0" y="848.0"/>
      <point x="1203.0" y="772.0"/>
      <point x="1188.0" y="664.0" type="curve" smooth="yes"/>
      <point x="1162.0" y="521.0"/>
      <point x="1027.0" y="420.0"/>
      <point x="864.0" y="420.0" type="curve" smooth="yes"/>
      <point x="710.0" y="420.0"/>
      <point x="617.0" y="505.0"/>
      <point x="640.0" y="624.0" type="curve"/>
      <point x="88.0" y="624.0" type="line"/>
      <point x="22.0" y="242.0"/>
      <point x="331.0" y="-28.0"/>
    </contour>
  </outline>
</glyph>
<glyph name="four" format="2">
  <advance width="1868.0"/>
  <unicode hex="0034"/>
  <guideline x="156.0" y="1240.0" angle="0.0"/>
  <guideline x="44.0" y="896.0" angle="0.0"/>
  <outline>
    <contour>
      <point x="1812.0" y="840.0" type="line"/>
      <point x="648.0" y="840.0" type="line"/>
      <point x="1064.0" y="1368.0" type="line"/>
      <point x="1288.0" y="1368.0" type="line"/>
      <point x="1400.0" y="2048.0" type="line"/>
      <point x="1140.0" y="2048.0" type="line"/>
      <point x="104.0" y="760.0" type="line"/>
      <point x="40.0" y="392.0" type="line"/>
      <point x="1736.0" y="392.0" type="line"/>
    </contour>
    <contour>
      <point x="1684.0" y="2048.0" type="line"/>
      <point x="1192.0" y="2048.0" type="line"/>
      <point x="852.0" y="0.0" type="line"/>
      <point x="1344.0" y="0.0" type="line"/>
    </contour>
  </outline>
</glyph>
<glyph name="five" format="2">
  <advance width="1784.0"/>
  <unicode hex="0035"/>
  <guideline x="500.0" y="2280.0" angle="0.0"/>
  <guideline x="540.0" y="2396.0" angle="0.0"/>
  <guideline x="64.0"/>
  <outline>
    <contour>
      <point x="632.0" y="904.0" type="line"/>
      <point x="660.0" y="940.0"/>
      <point x="736.0" y="996.0"/>
      <point x="860.0" y="996.0" type="curve" smooth="yes"/>
      <point x="1076.0" y="996.0"/>
      <point x="1116.0" y="864.0"/>
      <point x="1088.0" y="692.0" type="curve" smooth="yes"/>
      <point x="1068.0" y="568.0"/>
      <point x="1020.0" y="392.0"/>
      <point x="828.0" y="392.0" type="curve" smooth="yes"/>
      <point x="652.0" y="392.0"/>
      <point x="644.0" y="556.0"/>
      <point x="660.0" y="680.0" type="curve"/>
      <point x="132.0" y="680.0" type="line"/>
      <point x="60.0" y="316.0"/>
      <point x="276.0" y="-28.0"/>
      <point x="772.0" y="-28.0" type="curve" smooth="yes"/>
      <point x="1276.0" y="-28.0"/>
      <point x="1552.0" y="340.0"/>
      <point x="1612.0" y="684.0" type="curve" smooth="yes"/>
      <point x="1676.0" y="1080.0"/>
      <point x="1452.0" y="1356.0"/>
      <point x="1116.0" y="1356.0" type="curve" smooth="yes"/>
      <point x="932.0" y="1356.0"/>
      <point x="828.0" y="1288.0"/>
      <point x="796.0" y="1240.0" type="curve"/>
      <point x="788.0" y="1240.0" type="line"/>
      <point x="888.0" y="1604.0" type="line"/>
      <point x="1704.0" y="1604.0" type="line"/>
      <point x="1776.0" y="2048.0" type="line"/>
      <point x="540.0" y="2048.0" type="line"/>
      <point x="240.0" y="1004.0" type="line"/>
    </contour>
  </outline>
</glyph>
<glyph name="six" format="2">
  <advance width="1908.0"/>
  <unicode hex="0036"/>
  <guideline x="312.0" y="1240.0" angle="0.0"/>
  <guideline x="-132.0" y="568.0" angle="0.0"/>
  <outline>
    <contour>
      <point x="876.0" y="-28.0" type="curve" smooth="yes"/>
      <point x="1344.0" y="-28.0"/>
      <point x="1716.0" y="248.0"/>
      <point x="1788.0" y="676.0" type="curve" smooth="yes"/>
      <point x="1852.0" y="1064.0"/>
      <point x="1640.0" y="1352.0"/>
      <point x="1260.0" y="1352.0" type="curve" smooth="yes"/>
      <point x="1032.0" y="1352.0"/>
      <point x="812.0" y="1252.0"/>
      <point x="704.0" y="1064.0" type="curve"/>
      <point x="688.0" y="1036.0" type="line"/>
      <point x="748.0" y="1376.0"/>
      <point x="904.0" y="1612.0"/>
      <point x="1148.0" y="1612.0" type="curve" smooth="yes"/>
      <point x="1255.0" y="1612.0"/>
      <point x="1346.0" y="1567.0"/>
      <point x="1348.0" y="1440.0" type="curve"/>
      <point x="1888.0" y="1440.0" type="line"/>
      <point x="1908.0" y="1800.0"/>
      <point x="1638.0" y="2084.0"/>
      <point x="1184.0" y="2084.0" type="curve" smooth="yes"/>
      <point x="656.0" y="2084.0"/>
      <point x="248.0" y="1688.0"/>
      <point x="140.0" y="1028.0" type="curve" smooth="yes"/>
      <point x="12.0" y="272.0"/>
      <point x="384.0" y="-28.0"/>
    </contour>
    <contour>
      <point x="896.0" y="392.0" type="curve" smooth="yes"/>
      <point x="741.0" y="392.0"/>
      <point x="652.0" y="494.0"/>
      <point x="676.0" y="656.0" type="curve" smooth="yes"/>
      <point x="703.0" y="841.0"/>
      <point x="860.0" y="976.0"/>
      <point x="1036.0" y="976.0" type="curve" smooth="yes"/>
      <point x="1191.0" y="976.0"/>
      <point x="1278.0" y="867.0"/>
      <point x="1256.0" y="712.0" type="curve" smooth="yes"/>
      <point x="1230.0" y="528.0"/>
      <point x="1072.0" y="392.0"/>
    </contour>
  </outline>
</glyph>
<glyph name="seven" format="2">
  <advance width="1824.0"/>
  <unicode hex="0037"/>
  <outline>
    <contour>
      <point x="1884.0" y="2048.0" type="line"/>
      <point x="364.0" y="2048.0" type="line"/>
      <point x="292.0" y="1604.0" type="line"/>
      <point x="1204.0" y="1604.0" type="line"/>
      <point x="248.0" y="0.0" type="line"/>
      <point x="800.0" y="0.0" type="line"/>
      <point x="1844.0" y="1804.0" type="line"/>
    </contour>
  </outline>
</glyph>
<glyph name="eight" format="2">
  <advance width="1752.0"/>
  <unicode hex="0038"/>
  <guideline x="156.0" y="1240.0" angle="0.0"/>
  <guideline y="764.0"/>
  <outline>
    <contour>
      <point x="1580.0" y="556.0" type="curve" smooth="yes"/>
      <point x="1640.0" y="912.0"/>
      <point x="1364.0" y="1124.0"/>
      <point x="936.0" y="1124.0" type="curve" smooth="yes"/>
      <point x="520.0" y="1124.0"/>
      <point x="160.0" y="908.0"/>
      <point x="100.0" y="556.0" type="curve" smooth="yes"/>
      <point x="36.0" y="156.0"/>
      <point x="328.0" y="-28.0"/>
      <point x="748.0" y="-28.0" type="curve" smooth="yes"/>
      <point x="1172.0" y="-28.0"/>
      <point x="1516.0" y="156.0"/>
    </contour>
    <contour>
      <point x="1060.0" y="608.0" type="curve" smooth="yes"/>
      <point x="1036.0" y="464.0"/>
      <point x="948.0" y="404.0"/>
      <point x="820.0" y="404.0" type="curve" smooth="yes"/>
      <point x="692.0" y="404.0"/>
      <point x="612.0" y="464.0"/>
      <point x="636.0" y="608.0" type="curve" smooth="yes"/>
      <point x="660.0" y="752.0"/>
      <point x="760.0" y="820.0"/>
      <point x="884.0" y="820.0" type="curve" smooth="yes"/>
      <point x="1020.0" y="820.0"/>
      <point x="1084.0" y="752.0"/>
    </contour>
    <contour>
      <point x="1696.0" y="1484.0" type="curve" smooth="yes"/>
      <point x="1760.0" y="1868.0"/>
      <point x="1508.0" y="2076.0"/>
      <point x="1092.0" y="2076.0" type="curve" smooth="yes"/>
      <point x="688.0" y="2076.0"/>
      <point x="364.0" y="1868.0"/>
      <point x="300.0" y="1484.0" type="curve" smooth="yes"/>
      <point x="248.0" y="1176.0"/>
      <point x="504.0" y="944.0"/>
      <point x="908.0" y="944.0" type="curve" smooth="yes"/>
      <point x="1320.0" y="944.0"/>
      <point x="1644.0" y="1176.0"/>
    </contour>
    <contour>
      <point x="1156.0" y="1452.0" type="curve" smooth="yes"/>
      <point x="1136.0" y="1324.0"/>
      <point x="1084.0" y="1248.0"/>
      <point x="960.0" y="1248.0" type="curve" smooth="yes"/>
      <point x="836.0" y="1248.0"/>
      <point x="804.0" y="1324.0"/>
      <point x="824.0" y="1452.0" type="curve" smooth="yes"/>
      <point x="844.0" y="1576.0"/>
      <point x="900.0" y="1644.0"/>
      <point x="1020.0" y="1644.0" type="curve" smooth="yes"/>
      <point x="1144.0" y="1644.0"/>
      <point x="1176.0" y="1576.0"/>
    </contour>
  </outline>
</glyph>
<glyph name="nine" format="2">
  <advance width="1908.0"/>
  <unicode hex="0039"/>
  <guideline y="764.0"/>
  <guideline x="156.0" y="1240.0" angle="0.0"/>
  <outline>
    <contour>
      <point x="1120.0" y="2084.0" type="curve" smooth="yes"/>
      <point x="652.0" y="2084.0"/>
      <point x="280.0" y="1808.0"/>
      <point x="208.0" y="1380.0" type="curve" smooth="yes"/>
      <point x="144.0" y="992.0"/>
      <point x="356.0" y="704.0"/>
      <point x="736.0" y="704.0" type="curve" smooth="yes"/>
      <point x="964.0" y="704.0"/>
      <point x="1184.0" y="804.0"/>
      <point x="1292.0" y="992.0" type="curve"/>
      <point x="1308.0" y="1020.0" type="line"/>
      <point x="1248.0" y="680.0"/>
      <point x="1092.0" y="444.0"/>
      <point x="848.0" y="444.0" type="curve" smooth="yes"/>
      <point x="740.0" y="444.0"/>
      <point x="648.0" y="488.0"/>
      <point x="648.0" y="616.0" type="curve"/>
      <point x="108.0" y="616.0" type="line"/>
      <point x="88.0" y="256.0"/>
      <point x="356.0" y="-28.0"/>
      <point x="812.0" y="-28.0" type="curve" smooth="yes"/>
      <point x="1340.0" y="-28.0"/>
      <point x="1748.0" y="368.0"/>
      <point x="1856.0" y="1028.0" type="curve" smooth="yes"/>
      <point x="1984.0" y="1784.0"/>
      <point x="1612.0" y="2084.0"/>
    </contour>
    <contour>
      <point x="1100.0" y="1664.0" type="curve" smooth="yes"/>
      <point x="1256.0" y="1664.0"/>
      <point x="1344.0" y="1560.0"/>
      <point x="1320.0" y="1400.0" type="curve" smooth="yes"/>
      <point x="1292.0" y="1216.0"/>
      <point x="1136.0" y="1080.0"/>
      <point x="960.0" y="1080.0" type="curve" smooth="yes"/>
      <point x="804.0" y="1080.0"/>
      <point x="716.0" y="1188.0"/>
      <point x="740.0" y="1344.0" type="curve" smooth="yes"/>
      <point x="764.0" y="1528.0"/>
      <point x="924.0" y="1664.0"/>
    </contour>
  </outline>
</glyph>
<glyph name="less" format="2">
  <advance width="1400.0"/>
  <unicode hex="003C"/>
  <guideline x="164.0" y="1240.0" angle="0.0"/>
  <guideline x="308.0" y="896.0" angle="0.0"/>
  <guideline x="1328.0" y="1620.0" angle="90.0"/>
  <outline>
    <contour>
      <point x="1212.0" y="452.0" type="line"/>
      <point x="756.0" y="892.0" type="line"/>
      <point x="756.0" y="900.0" type="line"/>
      <point x="1360.0" y="1340.0" type="line"/>
      <point x="1092.0" y="1620.0" type="line"/>
      <point x="128.0" y="896.0" type="line"/>
      <point x="852.0" y="172.0" type="line"/>
    </contour>
  </outline>
</glyph>
<glyph name="equal" format="2">
  <advance width="1604.0"/>
  <unicode hex="003D"/>
  <guideline x="596.0" y="896.0" angle="0.0"/>
  <outline>
    <contour>
      <point x="200.0" y="756.0" type="line"/>
      <point x="132.0" y="348.0" type="line"/>
      <point x="1340.0" y="348.0" type="line"/>
      <point x="1408.0" y="756.0" type="line"/>
    </contour>
    <contour>
      <point x="312.0" y="1444.0" type="line"/>
      <point x="244.0" y="1036.0" type="line"/>
      <point x="1452.0" y="1036.0" type="line"/>
      <point x="1520.0" y="1444.0" type="line"/>
    </contour>
  </outline>
</glyph>
<glyph name="greater" format="2">
  <advance width="1408.0"/>
  <unicode hex="003E"/>
  <guideline x="-164.0" y="248.0" angle="0.0"/>
  <guideline x="1508.0" y="896.0" angle="0.0"/>
  <outline>
    <contour>
      <point x="308.0" y="172.0" type="line"/>
      <point x="1272.0" y="896.0" type="line"/>
      <point x="548.0" y="1620.0" type="line"/>
      <point x="192.0" y="1340.0" type="line"/>
      <point x="644.0" y="900.0" type="line"/>
      <point x="644.0" y="892.0" type="line"/>
      <point x="44.0" y="452.0" type="line"/>
    </contour>
  </outline>
</glyph>
<glyph name="question" format="2">
  <advance width="1688.0"/>
  <unicode hex="003F"/>
  <guideline x="1508.0" y="2352.0" angle="0.0"/>
  <guideline x="4.0" y="836.0" angle="0.0"/>
  <guideline x="-368.0"/>
  <guideline x="740.0" y="512.0" angle="260.6"/>
  <outline>
    <contour>
      <point x="524.0" y="640.0" type="line"/>
      <point x="996.0" y="640.0" type="line"/>
      <point x="1004.0" y="688.0" type="line" smooth="yes"/>
      <point x="1031.0" y="848.0"/>
      <point x="1120.0" y="928.0"/>
      <point x="1280.0" y="1012.0" type="curve" smooth="yes"/>
      <point x="1494.0" y="1124.0"/>
      <point x="1648.0" y="1268.0"/>
      <point x="1688.0" y="1512.0" type="curve" smooth="yes"/>
      <point x="1750.0" y="1888.0"/>
      <point x="1464.0" y="2076.0"/>
      <point x="1040.0" y="2076.0" type="curve" smooth="yes"/>
      <point x="648.0" y="2076.0"/>
      <point x="296.0" y="1892.0"/>
      <point x="220.0" y="1452.0" type="curve"/>
      <point x="732.0" y="1452.0" type="line"/>
      <point x="748.0" y="1568.0"/>
      <point x="856.0" y="1648.0"/>
      <point x="964.0" y="1648.0" type="curve" smooth="yes"/>
      <point x="1064.0" y="1648.0"/>
      <point x="1132.0" y="1580.0"/>
      <point x="1116.0" y="1480.0" type="curve" smooth="yes"/>
      <point x="1098.0" y="1368.0"/>
      <point x="988.0" y="1300.0"/>
      <point x="848.0" y="1216.0" type="curve" smooth="yes"/>
      <point x="685.0" y="1118.0"/>
      <point x="587.0" y="1016.0"/>
      <point x="532.0" y="688.0" type="curve" smooth="yes"/>
    </contour>
    <component base="period" xOffset="344.0"/>
  </outline>
</glyph>
<glyph name="at" format="2">
  <advance width="3056.0"/>
  <unicode hex="0040"/>
  <outline>
    <contour>
      <point x="1612.0" y="1052.0" type="curve" smooth="yes"/>
      <point x="1872.0" y="1052.0"/>
      <point x="1884.0" y="892.0"/>
      <point x="1860.0" y="716.0" type="curve" smooth="yes"/>
      <point x="1824.0" y="484.0"/>
      <point x="1732.0" y="352.0"/>
      <point x="1504.0" y="352.0" type="curve" smooth="yes"/>
      <point x="1240.0" y="352.0"/>
      <point x="1184.0" y="528.0"/>
      <point x="1216.0" y="712.0" type="curve" smooth="yes"/>
      <point x="1252.0" y="936.0"/>
      <point x="1392.0" y="1052.0"/>
    </contour>
    <contour>
      <point x="1828.0" y="2084.0" type="curve" smooth="yes"/>
      <point x="908.0" y="2084.0"/>
      <point x="300.0" y="1508.0"/>
      <point x="164.0" y="688.0" type="curve" smooth="yes"/>
      <point x="28.0" y="-136.0"/>
      <point x="464.0" y="-624.0"/>
      <point x="1340.0" y="-624.0" type="curve" smooth="yes"/>
      <point x="1676.0" y="-624.0"/>
      <point x="1980.0" y="-552.0"/>
      <point x="2124.0" y="-468.0" type="curve"/>
      <point x="2056.0" y="-108.0" type="line"/>
      <point x="1912.0" y="-164.0"/>
      <point x="1680.0" y="-208.0"/>
      <point x="1444.0" y="-208.0" type="curve" smooth="yes"/>
      <point x="812.0" y="-208.0"/>
      <point x="516.0" y="112.0"/>
      <point x="616.0" y="712.0" type="curve" smooth="yes"/>
      <point x="700.0" y="1220.0"/>
      <point x="1068.0" y="1672.0"/>
      <point x="1760.0" y="1672.0" type="curve" smooth="yes"/>
      <point x="2136.0" y="1672.0"/>
      <point x="2668.0" y="1588.0"/>
      <point x="2544.0" y="840.0" type="curve" smooth="yes"/>
      <point x="2488.0" y="492.0"/>
      <point x="2372.0" y="332.0"/>
      <point x="2280.0" y="332.0" type="curve" smooth="yes"/>
      <point x="2244.0" y="332.0"/>
      <point x="2220.0" y="352.0"/>
      <point x="2232.0" y="432.0" type="curve" smooth="yes"/>
      <point x="2400.0" y="1456.0" type="line"/>
      <point x="2020.0" y="1456.0" type="line"/>
      <point x="2004.0" y="1344.0" type="line"/>
      <point x="1988.0" y="1344.0" type="line"/>
      <point x="1960.0" y="1432.0"/>
      <point x="1728.0" y="1520.0"/>
      <point x="1480.0" y="1476.0" type="curve" smooth="yes"/>
      <point x="1224.0" y="1432.0"/>
      <point x="864.0" y="1232.0"/>
      <point x="776.0" y="700.0" type="curve" smooth="yes"/>
      <point x="688.0" y="168.0"/>
      <point x="984.0" y="-40.0"/>
      <point x="1276.0" y="-60.0" type="curve" smooth="yes"/>
      <point x="1496.0" y="-76.0"/>
      <point x="1772.0" y="8.0"/>
      <point x="1840.0" y="132.0" type="curve"/>
      <point x="1852.0" y="132.0" type="line"/>
      <point x="1852.0" y="16.0"/>
      <point x="1840.0" y="-100.0"/>
      <point x="2140.0" y="-72.0" type="curve" smooth="yes"/>
      <point x="2584.0" y="-32.0"/>
      <point x="2876.0" y="244.0"/>
      <point x="2968.0" y="804.0" type="curve" smooth="yes"/>
      <point x="3104.0" y="1624.0"/>
      <point x="2652.0" y="2084.0"/>
    </contour>
  </outline>
</glyph>
<glyph name="A" format="2">
  <advance width="2328.0"/>
  <unicode hex="0041"/>
  <guideline x="1124.0" y="1896.0" angle="0.0"/>
  <guideline x="1284.0" y="964.0" angle="90.0"/>
  <outline>
    <contour>
      <point x="544.0" y="0.0" type="line"/>
      <point x="1256.0" y="1364.0" type="line"/>
      <point x="1272.0" y="1364.0" type="line"/>
      <point x="1528.0" y="0.0" type="line"/>
      <point x="2128.0" y="0.0" type="line"/>
      <point x="1676.0" y="2048.0" type="line"/>
      <point x="1080.0" y="2048.0" type="line"/>
      <point x="-56.0" y="0.0" type="line"/>
    </contour>
    <contour>
      <point x="520.0" y="752.0" type="line"/>
      <point x="520.0" y="320.0" type="line"/>
      <point x="1728.0" y="320.0" type="line"/>
      <point x="1728.0" y="752.0" type="line"/>
    </contour>
  </outline>
</glyph>
<glyph name="B" format="2">
  <advance width="1880.0"/>
  <unicode hex="0042"/>
  <guideline x="744.0" y="716.0" angle="90.0"/>
  <outline>
    <contour>
      <point x="4.0" y="0.0" type="line"/>
      <point x="916.0" y="0.0" type="line" smooth="yes"/>
      <point x="1388.0" y="0.0"/>
      <point x="1700.0" y="220.0"/>
      <point x="1756.0" y="560.0" type="curve" smooth="yes"/>
      <point x="1800.0" y="804.0"/>
      <point x="1684.0" y="996.0"/>
      <point x="1420.0" y="1036.0" type="curve"/>
      <point x="1424.0" y="1060.0" type="line"/>
      <point x="1736.0" y="1116.0"/>
      <point x="1848.0" y="1296.0"/>
      <point x="1876.0" y="1480.0" type="curve" smooth="yes"/>
      <point x="1936.0" y="1820.0"/>
      <point x="1708.0" y="2048.0"/>
      <point x="1168.0" y="2048.0" type="curve" smooth="yes"/>
      <point x="344.0" y="2048.0" type="line"/>
    </contour>
    <contour>
      <point x="636.0" y="448.0" type="line"/>
      <point x="700.0" y="852.0" type="line"/>
      <point x="1028.0" y="852.0" type="line" smooth="yes"/>
      <point x="1204.0" y="852.0"/>
      <point x="1244.0" y="760.0"/>
      <point x="1224.0" y="652.0" type="curve" smooth="yes"/>
      <point x="1200.0" y="500.0"/>
      <point x="1096.0" y="448.0"/>
      <point x="944.0" y="448.0" type="curve" smooth="yes"/>
    </contour>
    <contour>
      <point x="764.0" y="1216.0" type="line"/>
      <point x="824.0" y="1600.0" type="line"/>
      <point x="1076.0" y="1600.0" type="line" smooth="yes"/>
      <point x="1300.0" y="1600.0"/>
      <point x="1328.0" y="1492.0"/>
      <point x="1312.0" y="1392.0" type="curve" smooth="yes"/>
      <point x="1288.0" y="1260.0"/>
      <point x="1212.0" y="1216.0"/>
      <point x="980.0" y="1216.0" type="curve" smooth="yes"/>
    </contour>
  </outline>
</glyph>
<glyph name="C" format="2">
  <advance width="2160.0"/>
  <unicode hex="0043"/>
  <guideline x="1580.0" y="1024.0" angle="0.0"/>
  <guideline x="-1260.0" y="0.0" angle="0.0"/>
  <guideline x="968.0" y="584.0" angle="260.6"/>
  <outline>
    <contour>
      <point x="2124.0" y="1280.0" type="line"/>
      <point x="2163.0" y="1788.0"/>
      <point x="1829.0" y="2076.0"/>
      <point x="1296.0" y="2076.0" type="curve" smooth="yes"/>
      <point x="761.0" y="2076.0"/>
      <point x="282.0" y="1726.0"/>
      <point x="172.0" y="1056.0" type="curve"/>
      <point x="56.0" y="361.0"/>
      <point x="429.0" y="-28.0"/>
      <point x="1008.0" y="-28.0" type="curve" smooth="yes"/>
      <point x="1593.0" y="-28.0"/>
      <point x="1951.0" y="392.0"/>
      <point x="2036.0" y="740.0" type="curve"/>
      <point x="1476.0" y="740.0" type="line"/>
      <point x="1419.0" y="568.0"/>
      <point x="1261.0" y="456.0"/>
      <point x="1040.0" y="456.0" type="curve" smooth="yes"/>
      <point x="786.0" y="456.0"/>
      <point x="672.0" y="630.0"/>
      <point x="732.0" y="992.0" type="curve"/>
      <point x="793.0" y="1362.0"/>
      <point x="998.0" y="1592.0"/>
      <point x="1292.0" y="1592.0" type="curve" smooth="yes"/>
      <point x="1492.0" y="1592.0"/>
      <point x="1583.0" y="1468.0"/>
      <point x="1568.0" y="1280.0" type="curve"/>
    </contour>
  </outline>
</glyph>
<glyph name="D" format="2">
  <advance width="2040.0"/>
  <unicode hex="0044"/>
  <guideline x="2120.0" y="1024.0" angle="0.0"/>
  <guideline x="-4.0" y="764.0" angle="0.0"/>
  <guideline x="648.0" y="1548.0" angle="0.0"/>
  <guideline x="2640.0" y="1696.0" angle="0.0"/>
  <guideline x="1524.0" y="348.0" angle="0.0"/>
  <guideline x="1996.0" y="1480.0" angle="0.0"/>
  <guideline x="1300.0" y="560.0" angle="0.0"/>
  <outline>
    <contour>
      <point x="792.0" y="0.0" type="line"/>
      <point x="1416.0" y="0.0"/>
      <point x="1860.0" y="368.0"/>
      <point x="1964.0" y="996.0" type="curve"/>
      <point x="2072.0" y="1648.0"/>
      <point x="1732.0" y="2048.0"/>
      <point x="1100.0" y="2048.0" type="curve"/>
      <point x="552.0" y="2048.0" type="line"/>
      <point x="472.0" y="1576.0" type="line"/>
      <point x="1016.0" y="1576.0" type="line"/>
      <point x="1336.0" y="1576.0"/>
      <point x="1484.0" y="1468.0"/>
      <point x="1416.0" y="1052.0" type="curve"/>
      <point x="1344.0" y="612.0"/>
      <point x="1132.0" y="472.0"/>
      <point x="828.0" y="472.0" type="curve"/>
      <point x="300.0" y="472.0" type="line"/>
      <point x="220.0" y="0.0" type="line"/>
    </contour>
    <contour>
      <point x="888.0" y="2048.0" type="line"/>
      <point x="332.0" y="2048.0" type="line"/>
      <point x="-8.0" y="0.0" type="line"/>
      <point x="548.0" y="0.0" type="line"/>
    </contour>
  </outline>
</glyph>
<glyph name="E" format="2">
  <advance width="1728.0"/>
  <unicode hex="0045"/>
  <guideline x="196.0" y="1360.0" angle="0.0"/>
  <guideline x="876.0" y="620.0" angle="90.0"/>
  <outline>
    <contour>
      <point x="1540.0" y="448.0" type="line"/>
      <point x="424.0" y="448.0" type="line"/>
      <point x="348.0" y="0.0" type="line"/>
      <point x="1464.0" y="0.0" type="line"/>
    </contour>
    <contour>
      <point x="888.0" y="2048.0" type="line"/>
      <point x="332.0" y="2048.0" type="line"/>
      <point x="-8.0" y="0.0" type="line"/>
      <point x="548.0" y="0.0" type="line"/>
    </contour>
    <contour>
      <point x="1520.0" y="1248.0" type="line"/>
      <point x="556.0" y="1248.0" type="line"/>
      <point x="480.0" y="800.0" type="line"/>
      <point x="1444.0" y="800.0" type="line"/>
    </contour>
    <contour>
      <point x="1808.0" y="2048.0" type="line"/>
      <point x="688.0" y="2048.0" type="line"/>
      <point x="612.0" y="1600.0" type="line"/>
      <point x="1732.0" y="1600.0" type="line"/>
    </contour>
  </outline>
</glyph>
<glyph name="F" format="2">
  <advance width="1740.0"/>
  <unicode hex="0046"/>
  <guideline x="184.0" y="1320.0" angle="0.0"/>
  <outline>
    <contour>
      <point x="888.0" y="2048.0" type="line"/>
      <point x="332.0" y="2048.0" type="line"/>
      <point x="-8.0" y="0.0" type="line"/>
      <point x="548.0" y="0.0" type="line"/>
    </contour>
    <contour>
      <point x="1532.0" y="1248.0" type="line"/>
      <point x="560.0" y="1248.0" type="line"/>
      <point x="484.0" y="800.0" type="line"/>
      <point x="1456.0" y="800.0" type="line"/>
    </contour>
    <contour>
      <point x="1812.0" y="2048.0" type="line"/>
      <point x="716.0" y="2048.0" type="line"/>
      <point x="640.0" y="1600.0" type="line"/>
      <point x="1736.0" y="1600.0" type="line"/>
    </contour>
  </outline>
</glyph>
<glyph name="G" format="2">
  <advance width="2096.0"/>
  <unicode hex="0047"/>
  <guideline x="1388.0" y="1320.0" angle="7.9575"/>
  <guideline x="864.0" y="528.0" angle="90.0"/>
  <guideline x="1352.0" y="756.0" angle="0.0"/>
  <guideline x="1048.0" y="584.0" angle="260.6"/>
  <outline>
    <contour>
      <point x="160.0" y="1048.0" type="curve" smooth="yes"/>
      <point x="52.0" y="400.0"/>
      <point x="360.0" y="-28.0"/>
      <point x="964.0" y="-28.0" type="curve" smooth="yes"/>
      <point x="1476.0" y="-28.0"/>
      <point x="1900.0" y="284.0"/>
      <point x="1992.0" y="844.0" type="curve" smooth="yes"/>
      <point x="2040.0" y="1128.0" type="line"/>
      <point x="1116.0" y="1128.0" type="line"/>
      <point x="1052.0" y="740.0" type="line"/>
      <point x="1564.0" y="740.0" type="line"/>
      <point x="1448.0" y="860.0" type="line"/>
      <point x="1432.0" y="756.0" type="line"/>
      <point x="1388.0" y="576.0"/>
      <point x="1254.0" y="464.0"/>
      <point x="1044.0" y="464.0" type="curve" smooth="yes"/>
      <point x="768.0" y="464.0"/>
      <point x="656.0" y="656.0"/>
      <point x="716.0" y="1000.0" type="curve" smooth="yes"/>
      <point x="776.0" y="1364.0"/>
      <point x="972.0" y="1588.0"/>
      <point x="1240.0" y="1588.0" type="curve" smooth="yes"/>
      <point x="1428.0" y="1588.0"/>
      <point x="1488.0" y="1478.0"/>
      <point x="1500.0" y="1376.0" type="curve"/>
      <point x="2064.0" y="1376.0" type="line"/>
      <point x="2099.0" y="1784.0"/>
      <point x="1748.0" y="2076.0"/>
      <point x="1264.0" y="2076.0" type="curve" smooth="yes"/>
      <point x="730.0" y="2076.0"/>
      <point x="271.0" y="1716.0"/>
    </contour>
  </outline>
</glyph>
<glyph name="H" format="2">
  <advance width="2036.0"/>
  <unicode hex="0048"/>
  <guideline x="304.0" y="1652.0" angle="0.0"/>
  <guideline x="1176.0" y="1344.0" angle="90.0"/>
  <outline>
    <contour>
      <point x="1608.0" y="1248.0" type="line"/>
      <point x="572.0" y="1248.0" type="line"/>
      <point x="496.0" y="800.0" type="line"/>
      <point x="1532.0" y="800.0" type="line"/>
    </contour>
    <contour>
      <point x="900.0" y="2048.0" type="line"/>
      <point x="344.0" y="2048.0" type="line"/>
      <point x="4.0" y="0.0" type="line"/>
      <point x="560.0" y="0.0" type="line"/>
    </contour>
    <contour>
      <point x="2116.0" y="2048.0" type="line"/>
      <point x="1560.0" y="2048.0" type="line"/>
      <point x="1220.0" y="0.0" type="line"/>
      <point x="1776.0" y="0.0" type="line"/>
    </contour>
  </outline>
</glyph>
<glyph name="I" format="2">
  <advance width="796.0"/>
  <unicode hex="0049"/>
  <guideline x="156.0" y="1240.0" angle="0.0"/>
  <guideline y="764.0"/>
  <guideline x="-156.0" y="292.0" angle="0.0"/>
  <outline>
    <contour>
      <point x="888.0" y="2048.0" type="line"/>
      <point x="332.0" y="2048.0" type="line"/>
      <point x="-8.0" y="0.0" type="line"/>
      <point x="548.0" y="0.0" type="line"/>
    </contour>
  </outline>
</glyph>
<glyph name="J" format="2">
  <advance width="1752.0"/>
  <unicode hex="004A"/>
  <outline>
    <contour>
      <point x="1056.0" y="660.0" type="line"/>
      <point x="1040.0" y="544.0"/>
      <point x="950.0" y="404.0"/>
      <point x="804.0" y="404.0" type="curve" smooth="yes"/>
      <point x="697.0" y="404.0"/>
      <point x="644.0" y="480.0"/>
      <point x="664.0" y="640.0" type="curve"/>
      <point x="112.0" y="640.0" type="line"/>
      <point x="36.0" y="168.0"/>
      <point x="376.0" y="-28.0"/>
      <point x="780.0" y="-28.0" type="curve" smooth="yes"/>
      <point x="1242.0" y="-28.0"/>
      <point x="1536.0" y="228.0"/>
      <point x="1600.0" y="628.0" type="curve"/>
      <point x="1836.0" y="2048.0" type="line"/>
      <point x="1288.0" y="2048.0" type="line"/>
    </contour>
  </outline>
</glyph>
<glyph name="K" format="2">
  <advance width="2020.0"/>
  <unicode hex="004B"/>
  <guideline x="1352.0" y="1372.0" angle="260.6"/>
  <outline>
    <contour>
      <point x="908.0" y="2048.0" type="line"/>
      <point x="352.0" y="2048.0" type="line"/>
      <point x="12.0" y="0.0" type="line"/>
      <point x="568.0" y="0.0" type="line"/>
    </contour>
    <contour>
      <point x="2200.0" y="2048.0" type="line"/>
      <point x="1552.0" y="2048.0" type="line"/>
      <point x="800.0" y="1220.0" type="line"/>
      <point x="724.0" y="1220.0" type="line"/>
      <point x="600.0" y="464.0" type="line"/>
      <point x="984.0" y="876.0" type="line"/>
      <point x="1164.0" y="924.0" type="line"/>
    </contour>
    <contour>
      <point x="1212.0" y="0.0" type="line"/>
      <point x="1876.0" y="0.0" type="line"/>
      <point x="1336.0" y="1188.0" type="line"/>
      <point x="848.0" y="848.0" type="line"/>
    </contour>
  </outline>
</glyph>
<glyph name="L" format="2">
  <advance width="1640.0"/>
  <unicode hex="004C"/>
  <guideline x="176.0" y="1304.0" angle="0.0"/>
  <guideline x="1044.0" y="584.0" angle="90.0"/>
  <outline>
    <contour>
      <point x="1452.0" y="448.0" type="line"/>
      <point x="420.0" y="448.0" type="line"/>
      <point x="344.0" y="0.0" type="line"/>
      <point x="1376.0" y="0.0" type="line"/>
    </contour>
    <contour>
      <point x="888.0" y="2048.0" type="line"/>
      <point x="332.0" y="2048.0" type="line"/>
      <point x="-8.0" y="0.0" type="line"/>
      <point x="548.0" y="0.0" type="line"/>
    </contour>
  </outline>
</glyph>
<glyph name="M" format="2">
  <advance width="2720.0"/>
  <unicode hex="004D"/>
  <guideline x="148.0" y="1220.0" angle="0.0"/>
  <guideline x="1636.0" y="1848.0" angle="90.0"/>
  <guideline x="1208.0" y="2164.0" angle="90.0"/>
  <guideline x="2236.0" y="2040.0" angle="90.0"/>
  <outline>
    <contour>
      <point x="332.0" y="2048.0" type="line"/>
      <point x="-8.0" y="0.0" type="line"/>
      <point x="552.0" y="0.0" type="line"/>
      <point x="760.0" y="1260.0" type="line"/>
      <point x="776.0" y="1260.0" type="line"/>
      <point x="1064.0" y="40.0" type="line"/>
      <point x="1416.0" y="40.0" type="line"/>
      <point x="2104.0" y="1252.0" type="line"/>
      <point x="2120.0" y="1252.0" type="line"/>
      <point x="1912.0" y="0.0" type="line"/>
      <point x="2472.0" y="0.0" type="line"/>
      <point x="2812.0" y="2048.0" type="line"/>
      <point x="2080.0" y="2048.0" type="line"/>
      <point x="1392.0" y="880.0" type="line"/>
      <point x="1368.0" y="880.0" type="line"/>
      <point x="1064.0" y="2048.0" type="line"/>
    </contour>
  </outline>
</glyph>
<glyph name="N" format="2">
  <advance width="2012.0"/>
  <unicode hex="004E"/>
  <guideline x="292.0" y="1652.0" angle="0.0"/>
  <guideline x="916.0" y="240.0" angle="260.6"/>
  <outline>
    <contour>
      <point x="2104.0" y="2048.0" type="line"/>
      <point x="1548.0" y="2048.0" type="line"/>
      <point x="1364.0" y="928.0" type="line"/>
      <point x="1348.0" y="928.0" type="line"/>
      <point x="884.0" y="2048.0" type="line"/>
      <point x="332.0" y="2048.0" type="line"/>
      <point x="-8.0" y="0.0" type="line"/>
      <point x="548.0" y="0.0" type="line"/>
      <point x="736.0" y="1124.0" type="line"/>
      <point x="748.0" y="1124.0" type="line"/>
      <point x="1220.0" y="0.0" type="line"/>
      <point x="1764.0" y="0.0" type="line"/>
    </contour>
  </outline>
</glyph>
<glyph name="O" format="2">
  <advance width="2112.0"/>
  <unicode hex="004F"/>
  <guideline x="1908.0" y="2104.0" angle="90.0"/>
  <guideline x="1032.0" y="584.0" angle="260.6"/>
  <outline>
    <contour>
      <point x="2036.0" y="992.0" type="curve"/>
      <point x="2152.0" y="1689.0"/>
      <point x="1794.0" y="2076.0"/>
      <point x="1256.0" y="2076.0" type="curve" smooth="yes"/>
      <point x="734.0" y="2076.0"/>
      <point x="269.0" y="1719.0"/>
      <point x="160.0" y="1048.0" type="curve"/>
      <point x="44.0" y="355.0"/>
      <point x="407.0" y="-28.0"/>
      <point x="952.0" y="-28.0" type="curve" smooth="yes"/>
      <point x="1467.0" y="-28.0"/>
      <point x="1926.0" y="321.0"/>
    </contour>
    <contour>
      <point x="1484.0" y="1048.0" type="curve"/>
      <point x="1419.0" y="667.0"/>
      <point x="1266.0" y="460.0"/>
      <point x="1008.0" y="460.0" type="curve" smooth="yes"/>
      <point x="766.0" y="460.0"/>
      <point x="654.0" y="637.0"/>
      <point x="712.0" y="992.0" type="curve"/>
      <point x="777.0" y="1377.0"/>
      <point x="955.0" y="1588.0"/>
      <point x="1216.0" y="1588.0" type="curve" smooth="yes"/>
      <point x="1455.0" y="1588.0"/>
      <point x="1542.0" y="1407.0"/>
    </contour>
  </outline>
</glyph>
<glyph name="P" format="2">
  <advance width="1884.0"/>
  <unicode hex="0050"/>
  <guideline x="312.0" y="1240.0" angle="0.0"/>
  <guideline y="764.0"/>
  <guideline x="520.0" y="1552.0" angle="0.0"/>
  <guideline x="1208.0" y="1372.0" angle="0.0"/>
  <outline>
    <contour>
      <point x="0.0" y="0.0" type="line"/>
      <point x="556.0" y="0.0" type="line"/>
      <point x="824.0" y="1604.0" type="line"/>
      <point x="1020.0" y="1604.0" type="line" smooth="yes"/>
      <point x="1212.0" y="1604.0"/>
      <point x="1312.0" y="1496.0"/>
      <point x="1284.0" y="1324.0" type="curve" smooth="yes"/>
      <point x="1256.0" y="1144.0"/>
      <point x="1120.0" y="1040.0"/>
      <point x="924.0" y="1040.0" type="curve" smooth="yes"/>
      <point x="508.0" y="1040.0" type="line"/>
      <point x="436.0" y="608.0" type="line"/>
      <point x="964.0" y="608.0" type="line" smooth="yes"/>
      <point x="1432.0" y="608.0"/>
      <point x="1792.0" y="884.0"/>
      <point x="1864.0" y="1324.0" type="curve" smooth="yes"/>
      <point x="1936.0" y="1764.0"/>
      <point x="1676.0" y="2048.0"/>
      <point x="1224.0" y="2048.0" type="curve" smooth="yes"/>
      <point x="340.0" y="2048.0" type="line"/>
    </contour>
  </outline>
</glyph>
<glyph name="Q" format="2">
  <advance width="2112.0"/>
  <unicode hex="0051"/>
  <guideline x="1244.0" y="1432.0" angle="90.0"/>
  <outline>
    <contour>
      <point x="828.0" y="728.0" type="line"/>
      <point x="1032.0" y="368.0" type="line"/>
      <point x="1136.0" y="132.0" type="line"/>
      <point x="1308.0" y="-192.0" type="line"/>
      <point x="1804.0" y="-192.0" type="line"/>
      <point x="1552.0" y="264.0" type="line"/>
      <point x="1360.0" y="564.0" type="line"/>
      <point x="1260.0" y="728.0" type="line"/>
    </contour>
    <component base="O"/>
  </outline>
</glyph>
<glyph name="R" format="2">
  <advance width="1908.0"/>
  <unicode hex="0052"/>
  <guideline x="920.0" y="1552.0" angle="0.0"/>
  <guideline x="552.0"/>
  <guideline x="208.0" y="220.0" angle="90.0"/>
  <outline>
    <contour>
      <point x="4.0" y="0.0" type="line"/>
      <point x="560.0" y="0.0" type="line"/>
      <point x="828.0" y="1604.0" type="line"/>
      <point x="1024.0" y="1604.0" type="line" smooth="yes"/>
      <point x="1216.0" y="1604.0"/>
      <point x="1320.0" y="1528.0"/>
      <point x="1292.0" y="1352.0" type="curve" smooth="yes"/>
      <point x="1264.0" y="1176.0"/>
      <point x="1136.0" y="1108.0"/>
      <point x="940.0" y="1108.0" type="curve" smooth="yes"/>
      <point x="524.0" y="1108.0" type="line"/>
      <point x="452.0" y="676.0" type="line"/>
      <point x="980.0" y="676.0" type="line" smooth="yes"/>
      <point x="1448.0" y="676.0"/>
      <point x="1800.0" y="912.0"/>
      <point x="1872.0" y="1352.0" type="curve" smooth="yes"/>
      <point x="1944.0" y="1788.0"/>
      <point x="1684.0" y="2048.0"/>
      <point x="1228.0" y="2048.0" type="curve" smooth="yes"/>
      <point x="344.0" y="2048.0" type="line"/>
    </contour>
    <contour>
      <point x="1360.0" y="940.0" type="line"/>
      <point x="768.0" y="940.0" type="line"/>
      <point x="1112.0" y="0.0" type="line"/>
      <point x="1716.0" y="0.0" type="line"/>
    </contour>
  </outline>
</glyph>
<glyph name="S" format="2">
  <advance width="1864.0"/>
  <unicode hex="0053"/>
  <guideline x="1500.0" y="2280.0" angle="0.0"/>
  <guideline x="-4.0" y="764.0" angle="0.0"/>
  <guideline x="780.0" y="1552.0" angle="0.0"/>
  <guideline x="268.0" y="-132.0" angle="90.0"/>
  <outline>
    <contour>
      <point x="1328.0" y="1408.0" type="curve"/>
      <point x="1852.0" y="1408.0" type="line"/>
      <point x="1924.0" y="1820.0"/>
      <point x="1628.0" y="2076.0"/>
      <point x="1136.0" y="2076.0" type="curve" smooth="yes"/>
      <point x="676.0" y="2076.0"/>
      <point x="312.0" y="1855.0"/>
      <point x="260.0" y="1528.0" type="curve"/>
      <point x="203.0" y="1195.0"/>
      <point x="476.0" y="993.0"/>
      <point x="804.0" y="876.0" type="curve" smooth="yes"/>
      <point x="780.0" y="884.0" type="line" smooth="yes"/>
      <point x="888.0" y="849.0"/>
      <point x="1202.0" y="775.0"/>
      <point x="1180.0" y="616.0" type="curve" smooth="yes"/>
      <point x="1166.0" y="531.0"/>
      <point x="1076.0" y="424.0"/>
      <point x="860.0" y="424.0" type="curve" smooth="yes"/>
      <point x="652.0" y="424.0"/>
      <point x="564.0" y="532.0"/>
      <point x="588.0" y="720.0" type="curve"/>
      <point x="60.0" y="720.0" type="line"/>
      <point x="-40.0" y="176.0"/>
      <point x="396.0" y="-24.0"/>
      <point x="840.0" y="-24.0" type="curve" smooth="yes"/>
      <point x="1272.0" y="-24.0"/>
      <point x="1636.0" y="167.0"/>
      <point x="1700.0" y="568.0" type="curve"/>
      <point x="1755.0" y="884.0"/>
      <point x="1588.0" y="1099.0"/>
      <point x="1152.0" y="1252.0" type="curve" smooth="yes"/>
      <point x="1144.0" y="1256.0" type="line" smooth="yes"/>
      <point x="900.0" y="1339.0"/>
      <point x="811.0" y="1384.0"/>
      <point x="820.0" y="1472.0" type="curve" smooth="yes"/>
      <point x="830.0" y="1567.0"/>
      <point x="943.0" y="1620.0"/>
      <point x="1096.0" y="1620.0" type="curve" smooth="yes"/>
      <point x="1292.0" y="1620.0"/>
      <point x="1348.0" y="1532.0"/>
    </contour>
  </outline>
</glyph>
<glyph name="T" format="2">
  <advance width="1916.0"/>
  <unicode hex="0054"/>
  <guideline x="988.0" y="956.0" angle="260.6"/>
  <outline>
    <contour>
      <point x="1444.0" y="2048.0" type="line"/>
      <point x="896.0" y="2048.0" type="line"/>
      <point x="556.0" y="0.0" type="line"/>
      <point x="1104.0" y="0.0" type="line"/>
    </contour>
    <contour>
      <point x="2060.0" y="2048.0" type="line"/>
      <point x="280.0" y="2048.0" type="line"/>
      <point x="204.0" y="1600.0" type="line"/>
      <point x="1984.0" y="1600.0" type="line"/>
    </contour>
  </outline>
</glyph>
<glyph name="U" format="2">
  <advance width="2008.0"/>
  <unicode hex="0055"/>
  <guideline x="156.0" y="1240.0" angle="0.0"/>
  <guideline y="764.0"/>
  <guideline x="260.0" y="1552.0" angle="0.0"/>
  <guideline x="952.0" y="564.0" angle="90.0"/>
  <outline>
    <contour>
      <point x="1548.0" y="2048.0" type="line"/>
      <point x="1328.0" y="720.0" type="line" smooth="yes"/>
      <point x="1304.0" y="568.0"/>
      <point x="1160.0" y="464.0"/>
      <point x="952.0" y="464.0" type="curve" smooth="yes"/>
      <point x="748.0" y="464.0"/>
      <point x="644.0" y="568.0"/>
      <point x="668.0" y="720.0" type="curve" smooth="yes"/>
      <point x="888.0" y="2048.0" type="line"/>
      <point x="332.0" y="2048.0" type="line"/>
      <point x="108.0" y="696.0" type="line"/>
      <point x="32.0" y="228.0"/>
      <point x="332.0" y="-24.0"/>
      <point x="872.0" y="-24.0" type="curve" smooth="yes"/>
      <point x="1408.0" y="-24.0"/>
      <point x="1800.0" y="228.0"/>
      <point x="1876.0" y="696.0" type="curve"/>
      <point x="2100.0" y="2048.0" type="line"/>
    </contour>
  </outline>
</glyph>
<glyph name="V" format="2">
  <advance width="2152.0"/>
  <unicode hex="0056"/>
  <guideline x="1296.0" y="1048.0" angle="90.0"/>
  <outline>
    <contour>
      <point x="892.0" y="2048.0" type="line"/>
      <point x="276.0" y="2048.0" type="line"/>
      <point x="592.0" y="0.0" type="line"/>
      <point x="1304.0" y="0.0" type="line"/>
      <point x="2300.0" y="2048.0" type="line"/>
      <point x="1684.0" y="2048.0" type="line"/>
      <point x="1076.0" y="684.0" type="line"/>
      <point x="1052.0" y="684.0" type="line"/>
    </contour>
  </outline>
</glyph>
<glyph name="W" format="2">
  <advance width="3108.0"/>
  <unicode hex="0057"/>
  <guideline x="576.0" y="2512.0" angle="0.0"/>
  <guideline x="1880.0" y="2076.0" angle="90.0"/>
  <guideline x="952.0" y="988.0" angle="90.0"/>
  <guideline x="2044.0" y="852.0" angle="90.0"/>
  <guideline x="2816.0" y="2120.0" angle="90.0"/>
  <guideline x="964.0" y="2084.0" angle="90.0"/>
  <outline>
    <contour>
      <point x="804.0" y="2048.0" type="line"/>
      <point x="340.0" y="2048.0" type="line"/>
      <point x="532.0" y="0.0" type="line"/>
      <point x="1096.0" y="0.0" type="line"/>
      <point x="1612.0" y="1144.0" type="line"/>
      <point x="1628.0" y="1144.0" type="line"/>
      <point x="1756.0" y="0.0" type="line"/>
      <point x="2320.0" y="0.0" type="line"/>
      <point x="3192.0" y="2048.0" type="line"/>
      <point x="2672.0" y="2048.0" type="line"/>
      <point x="2128.0" y="784.0" type="line"/>
      <point x="2112.0" y="784.0" type="line"/>
      <point x="1972.0" y="2048.0" type="line"/>
      <point x="1504.0" y="2048.0" type="line"/>
      <point x="948.0" y="788.0" type="line"/>
      <point x="932.0" y="788.0" type="line"/>
    </contour>
  </outline>
</glyph>
<glyph name="X" format="2">
  <advance width="2132.0"/>
  <unicode hex="0058"/>
  <guideline x="1448.0" y="2152.0" angle="90.0"/>
  <guideline x="524.0" y="2084.0" angle="90.0"/>
  <guideline x="2324.0" y="2080.0" angle="90.0"/>
  <guideline x="1232.0" y="1024.0" angle="0.0"/>
  <outline>
    <contour>
      <point x="908.0" y="2048.0" type="line"/>
      <point x="308.0" y="2048.0" type="line"/>
      <point x="748.0" y="1024.0" type="line"/>
      <point x="-52.0" y="0.0" type="line"/>
      <point x="596.0" y="0.0" type="line"/>
      <point x="1044.0" y="608.0" type="line"/>
      <point x="1060.0" y="608.0" type="line"/>
      <point x="1308.0" y="0.0" type="line"/>
      <point x="1928.0" y="0.0" type="line"/>
      <point x="1464.0" y="1024.0" type="line"/>
      <point x="2244.0" y="2048.0" type="line"/>
      <point x="1600.0" y="2048.0" type="line"/>
      <point x="1160.0" y="1452.0" type="line"/>
      <point x="1144.0" y="1452.0" type="line"/>
    </contour>
  </outline>
</glyph>
<glyph name="Y" format="2">
  <advance width="2360.0"/>
  <unicode hex="0059"/>
  <guideline x="1400.0" y="1724.0" angle="90.0"/>
  <outline>
    <contour>
      <point x="852.0" y="2048.0" type="line"/>
      <point x="284.0" y="2048.0" type="line"/>
      <point x="904.0" y="756.0" type="line"/>
      <point x="776.0" y="0.0" type="line"/>
      <point x="1328.0" y="0.0" type="line"/>
      <point x="1456.0" y="756.0" type="line"/>
      <point x="2500.0" y="2048.0" type="line"/>
      <point x="1876.0" y="2048.0" type="line"/>
      <point x="1224.0" y="1196.0" type="line"/>
    </contour>
    <contour>
      <point x="1196.0" y="1168.0" type="line"/>
      <point x="1244.0" y="1168.0" type="line"/>
      <point x="1252.0" y="1216.0" type="line"/>
      <point x="1204.0" y="1216.0" type="line"/>
    </contour>
  </outline>
</glyph>
<glyph name="Z" format="2">
  <advance width="1932.0"/>
  <unicode hex="005A"/>
  <guideline x="260.0" y="1552.0" angle="0.0"/>
  <guideline x="2016.0" y="1788.0" angle="55.0453"/>
  <guideline x="-40.0" y="276.0" angle="55.0343"/>
  <guideline x="416.0" y="1664.0" angle="90.0"/>
  <guideline x="1544.0" y="384.0" angle="90.0"/>
  <guideline x="1108.0" y="800.0" angle="90.0"/>
  <outline>
    <contour>
      <point x="1748.0" y="448.0" type="line"/>
      <point x="288.0" y="448.0" type="line"/>
      <point x="212.0" y="0.0" type="line"/>
      <point x="1672.0" y="0.0" type="line"/>
    </contour>
    <contour>
      <point x="1964.0" y="1740.0" type="line"/>
      <point x="2016.0" y="2048.0" type="line"/>
      <point x="1644.0" y="2048.0" type="line"/>
      <point x="52.0" y="308.0" type="line"/>
      <point x="0.0" y="0.0" type="line"/>
      <point x="372.0" y="0.0" type="line"/>
    </contour>
    <contour>
      <point x="1800.0" y="2048.0" type="line"/>
      <point x="344.0" y="2048.0" type="line"/>
      <point x="268.0" y="1600.0" type="line"/>
      <point x="1724.0" y="1600.0" type="line"/>
    </contour>
  </outline>
</glyph>
<glyph name="bracketleft" format="2">
  <advance width="1172.0"/>
  <unicode hex="005B"/>
  <outline>
    <contour>
      <point x="1356.0" y="2392.0" type="line"/>
      <point x="556.0" y="2392.0" type="line"/>
      <point x="80.0" y="-492.0" type="line"/>
      <point x="880.0" y="-492.0" type="line"/>
      <point x="944.0" y="-112.0" type="line"/>
      <point x="628.0" y="-112.0" type="line"/>
      <point x="976.0" y="2004.0" type="line"/>
      <point x="1292.0" y="2004.0" type="line"/>
    </contour>
  </outline>
</glyph>
<glyph name="backslash" format="2">
  <advance width="1300.0"/>
  <unicode hex="005C"/>
  <guideline x="156.0" y="1240.0" angle="0.0"/>
  <guideline y="764.0"/>
  <outline>
    <contour>
      <point x="316.0" y="2048.0" type="line"/>
      <point x="548.0" y="-308.0" type="line"/>
      <point x="1016.0" y="-308.0" type="line"/>
      <point x="784.0" y="2048.0" type="line"/>
    </contour>
  </outline>
</glyph>
<glyph name="bracketright" format="2">
  <advance width="1172.0"/>
  <unicode hex="005D"/>
  <outline>
    <contour>
      <point x="352.0" y="2392.0" type="line"/>
      <point x="288.0" y="2004.0" type="line"/>
      <point x="604.0" y="2004.0" type="line"/>
      <point x="256.0" y="-112.0" type="line"/>
      <point x="-60.0" y="-112.0" type="line"/>
      <point x="-124.0" y="-492.0" type="line"/>
      <point x="676.0" y="-492.0" type="line"/>
      <point x="1152.0" y="2392.0" type="line"/>
    </contour>
  </outline>
</glyph>
<glyph name="asciicircum" format="2">
  <advance width="1408.0"/>
  <unicode hex="005E"/>
  <guideline x="-508.0" y="248.0" angle="0.0"/>
  <guideline x="-36.0" y="724.0" angle="0.0"/>
  <outline>
    <contour>
      <point x="856.0" y="1796.0" type="line"/>
      <point x="836.0" y="1680.0" type="line"/>
      <point x="908.0" y="1680.0" type="line"/>
      <point x="928.0" y="1796.0" type="line"/>
    </contour>
    <contour>
      <point x="140.0" y="1120.0" type="line"/>
      <point x="536.0" y="1120.0" type="line"/>
      <point x="884.0" y="1720.0" type="line"/>
      <point x="868.0" y="1720.0" type="line"/>
      <point x="1024.0" y="1120.0" type="line"/>
      <point x="1388.0" y="1120.0" type="line"/>
      <point x="1108.0" y="2016.0" type="line"/>
      <point x="716.0" y="2016.0" type="line"/>
    </contour>
  </outline>
</glyph>
<glyph name="underscore" format="2">
  <advance width="1388.0"/>
  <unicode hex="005F"/>
  <guideline x="532.0" y="-212.0" angle="260.6"/>
  <outline>
    <contour>
      <point x="1260.0" y="0.0" type="line"/>
      <point x="-128.0" y="0.0" type="line"/>
      <point x="-192.0" y="-392.0" type="line"/>
      <point x="1196.0" y="-392.0" type="line"/>
    </contour>
  </outline>
</glyph>
<glyph name="grave" format="2">
  <advance width="1400.0"/>
  <unicode hex="0060"/>
  <outline>
    <contour>
      <point x="1192.0" y="1728.0" type="line"/>
      <point x="1072.0" y="2176.0" type="line"/>
      <point x="600.0" y="2176.0" type="line"/>
      <point x="828.0" y="1728.0" type="line"/>
    </contour>
  </outline>
</glyph>
<glyph name="a" format="2">
  <advance width="1660.0"/>
  <unicode hex="0061"/>
  <guideline x="2732.0" y="2280.0" angle="0.0"/>
  <guideline x="1496.0" y="1164.0" angle="90.0"/>
  <guideline x="568.0" y="552.0" angle="260.6"/>
  <outline>
    <contour>
      <point x="444.0" y="-24.0" type="curve" smooth="yes"/>
      <point x="636.0" y="-24.0"/>
      <point x="820.0" y="52.0"/>
      <point x="928.0" y="216.0" type="curve"/>
      <point x="940.0" y="216.0" type="line"/>
      <point x="904.0" y="0.0" type="line"/>
      <point x="1420.0" y="0.0" type="line"/>
      <point x="1596.0" y="1052.0" type="line" smooth="yes"/>
      <point x="1644.0" y="1336.0"/>
      <point x="1408.0" y="1556.0"/>
      <point x="984.0" y="1556.0" type="curve" smooth="yes"/>
      <point x="536.0" y="1556.0"/>
      <point x="248.0" y="1316.0"/>
      <point x="156.0" y="1036.0" type="curve"/>
      <point x="672.0" y="1036.0" type="line"/>
      <point x="704.0" y="1132.0"/>
      <point x="796.0" y="1168.0"/>
      <point x="888.0" y="1168.0" type="curve" smooth="yes"/>
      <point x="996.0" y="1168.0"/>
      <point x="1064.0" y="1120.0"/>
      <point x="1048.0" y="1044.0" type="curve"/>
      <point x="1036.0" y="972.0"/>
      <point x="960.0" y="924.0"/>
      <point x="764.0" y="920.0" type="curve" smooth="yes"/>
      <point x="284.0" y="908.0"/>
      <point x="48.0" y="704.0"/>
      <point x="4.0" y="432.0" type="curve" smooth="yes"/>
      <point x="-44.0" y="152.0"/>
      <point x="152.0" y="-24.0"/>
    </contour>
    <contour>
      <point x="692.0" y="356.0" type="curve" smooth="yes"/>
      <point x="596.0" y="356.0"/>
      <point x="544.0" y="396.0"/>
      <point x="556.0" y="468.0" type="curve" smooth="yes"/>
      <point x="568.0" y="560.0"/>
      <point x="680.0" y="616.0"/>
      <point x="820.0" y="632.0" type="curve" smooth="yes"/>
      <point x="860.0" y="636.0"/>
      <point x="960.0" y="648.0"/>
      <point x="980.0" y="656.0" type="curve"/>
      <point x="960.0" y="528.0" type="line" smooth="yes"/>
      <point x="944.0" y="436.0"/>
      <point x="828.0" y="356.0"/>
    </contour>
  </outline>
</glyph>
<glyph name="b" format="2">
  <advance width="1816.0"/>
  <unicode hex="0062"/>
  <note>
top anchor should match top anchor of i
</note>
  <guideline x="840.0" y="128.0" angle="90.0"/>
  <outline>
    <contour>
      <point x="4.0" y="0.0" type="line"/>
      <point x="552.0" y="0.0" type="line"/>
      <point x="592.0" y="252.0" type="line"/>
      <point x="608.0" y="252.0" type="line"/>
      <point x="644.0" y="96.0"/>
      <point x="772.0" y="-20.0"/>
      <point x="988.0" y="-20.0" type="curve" smooth="yes"/>
      <point x="1316.0" y="-20.0"/>
      <point x="1636.0" y="236.0"/>
      <point x="1724.0" y="768.0" type="curve" smooth="yes"/>
      <point x="1816.0" y="1324.0"/>
      <point x="1560.0" y="1556.0"/>
      <point x="1256.0" y="1556.0" type="curve" smooth="yes"/>
      <point x="1028.0" y="1556.0"/>
      <point x="860.0" y="1424.0"/>
      <point x="776.0" y="1268.0" type="curve"/>
      <point x="768.0" y="1268.0" type="line"/>
      <point x="896.0" y="2048.0" type="line"/>
      <point x="344.0" y="2048.0" type="line"/>
    </contour>
    <contour>
      <point x="672.0" y="768.0" type="curve" smooth="yes"/>
      <point x="708.0" y="996.0"/>
      <point x="824.0" y="1132.0"/>
      <point x="976.0" y="1132.0" type="curve" smooth="yes"/>
      <point x="1128.0" y="1132.0"/>
      <point x="1192.0" y="996.0"/>
      <point x="1156.0" y="768.0" type="curve" smooth="yes"/>
      <point x="1120.0" y="540.0"/>
      <point x="1008.0" y="404.0"/>
      <point x="856.0" y="404.0" type="curve" smooth="yes"/>
      <point x="704.0" y="404.0"/>
      <point x="636.0" y="544.0"/>
    </contour>
  </outline>
</glyph>
<glyph name="c" format="2">
  <advance width="1716.0"/>
  <unicode hex="0063"/>
  <guideline x="1228.0" y="896.0" angle="0.0"/>
  <guideline x="816.0" y="744.0" angle="90.0"/>
  <guideline x="1100.0" y="768.0" angle="0.0"/>
  <guideline x="972.0" y="640.0" angle="0.0"/>
  <outline>
    <contour>
      <point x="756.0" y="-28.0" type="curve" smooth="yes"/>
      <point x="1212.0" y="-28.0"/>
      <point x="1532.0" y="232.0"/>
      <point x="1608.0" y="640.0" type="curve"/>
      <point x="1096.0" y="640.0" type="line"/>
      <point x="1056.0" y="480.0"/>
      <point x="956.0" y="392.0"/>
      <point x="832.0" y="392.0" type="curve" smooth="yes"/>
      <point x="688.0" y="392.0"/>
      <point x="616.0" y="516.0"/>
      <point x="656.0" y="768.0" type="curve" smooth="yes"/>
      <point x="696.0" y="1020.0"/>
      <point x="812.0" y="1144.0"/>
      <point x="960.0" y="1144.0" type="curve" smooth="yes"/>
      <point x="1080.0" y="1144.0"/>
      <point x="1148.0" y="1056.0"/>
      <point x="1136.0" y="896.0" type="curve"/>
      <point x="1648.0" y="896.0" type="line"/>
      <point x="1712.0" y="1296.0"/>
      <point x="1472.0" y="1556.0"/>
      <point x="1020.0" y="1556.0" type="curve" smooth="yes"/>
      <point x="520.0" y="1556.0"/>
      <point x="168.0" y="1236.0"/>
      <point x="92.0" y="764.0" type="curve" smooth="yes"/>
      <point x="12.0" y="292.0"/>
      <point x="256.0" y="-28.0"/>
    </contour>
  </outline>
</glyph>
<glyph name="e" format="2">
  <advance width="1668.0"/>
  <unicode hex="0065"/>
  <guideline x="492.0" y="0.0" angle="260.6"/>
  <guideline x="896.0" y="1004.0" angle="260.6"/>
  <guideline x="740.0" y="768.0" angle="0.0"/>
  <outline>
    <contour>
      <point x="720.0" y="-28.0" type="curve"/>
      <point x="1209.0" y="-28.0"/>
      <point x="1453.0" y="276.0"/>
      <point x="1516.0" y="464.0" type="curve"/>
      <point x="1044.0" y="548.0" type="line"/>
      <point x="997.0" y="466.0"/>
      <point x="930.0" y="404.0"/>
      <point x="800.0" y="404.0" type="curve" smooth="yes"/>
      <point x="634.0" y="404.0"/>
      <point x="574.0" y="510.0"/>
      <point x="596.0" y="640.0" type="curve" smooth="yes"/>
      <point x="648.0" y="944.0" type="line" smooth="yes"/>
      <point x="668.0" y="1057.0"/>
      <point x="796.0" y="1127.0"/>
      <point x="920.0" y="1132.0" type="curve" smooth="yes"/>
      <point x="1069.0" y="1138.0"/>
      <point x="1153.0" y="1049.0"/>
      <point x="1140.0" y="952.0" type="curve"/>
      <point x="296.0" y="952.0" type="line"/>
      <point x="240.0" y="640.0" type="line"/>
      <point x="1552.0" y="640.0" type="line"/>
      <point x="1588.0" y="848.0" type="line" smooth="yes"/>
      <point x="1660.0" y="1260.0"/>
      <point x="1445.0" y="1556.0"/>
      <point x="980.0" y="1556.0" type="curve" smooth="yes"/>
      <point x="505.0" y="1556.0"/>
      <point x="173.0" y="1240.0"/>
      <point x="92.0" y="764.0" type="curve"/>
      <point x="13.0" y="288.0"/>
      <point x="237.0" y="-28.0"/>
    </contour>
  </outline>
</glyph>
<glyph name="f" format="2">
  <advance width="1188.0"/>
  <unicode hex="0066"/>
  <guideline x="304.0" y="1228.0" angle="0.0"/>
  <guideline x="-336.0" y="256.0" angle="0.0"/>
  <outline>
    <contour>
      <point x="1220.0" y="1536.0" type="line"/>
      <point x="208.0" y="1536.0" type="line"/>
      <point x="148.0" y="1176.0" type="line"/>
      <point x="1160.0" y="1176.0" type="line"/>
    </contour>
    <contour>
      <point x="132.0" y="0.0" type="line"/>
      <point x="684.0" y="0.0" type="line"/>
      <point x="952.0" y="1604.0" type="line" smooth="yes"/>
      <point x="964.0" y="1676.0"/>
      <point x="1000.0" y="1724.0"/>
      <point x="1104.0" y="1724.0" type="curve" smooth="yes"/>
      <point x="1144.0" y="1724.0"/>
      <point x="1200.0" y="1716.0"/>
      <point x="1240.0" y="1704.0" type="curve"/>
      <point x="1384.0" y="2100.0" type="line"/>
      <point x="1324.0" y="2116.0"/>
      <point x="1180.0" y="2144.0"/>
      <point x="1040.0" y="2144.0" type="curve" smooth="yes"/>
      <point x="704.0" y="2144.0"/>
      <point x="456.0" y="1960.0"/>
      <point x="396.0" y="1580.0" type="curve" smooth="yes"/>
    </contour>
  </outline>
</glyph>
<glyph name="g" format="2">
  <advance width="1824.0"/>
  <unicode hex="0067"/>
  <outline>
    <contour>
      <point x="568.0" y="-612.0" type="curve" smooth="yes"/>
      <point x="1156.0" y="-612.0"/>
      <point x="1506.0" y="-296.0"/>
      <point x="1572.0" y="100.0" type="curve" smooth="yes"/>
      <point x="1812.0" y="1536.0" type="line"/>
      <point x="1264.0" y="1536.0" type="line"/>
      <point x="1204.0" y="1176.0" type="line"/>
      <point x="1308.0" y="728.0" type="line"/>
      <point x="1088.0" y="384.0" type="line"/>
      <point x="1040.0" y="96.0" type="line"/>
      <point x="1012.0" y="-68.0"/>
      <point x="844.0" y="-204.0"/>
      <point x="640.0" y="-204.0" type="curve" smooth="yes"/>
      <point x="488.0" y="-204.0"/>
      <point x="380.0" y="-136.0"/>
      <point x="332.0" y="-72.0" type="curve"/>
      <point x="-56.0" y="-344.0" type="line"/>
      <point x="36.0" y="-492.0"/>
      <point x="208.0" y="-612.0"/>
    </contour>
    <contour>
      <point x="572.0" y="20.0" type="curve" smooth="yes"/>
      <point x="780.0" y="20.0"/>
      <point x="956.0" y="108.0"/>
      <point x="1044.0" y="264.0" type="curve"/>
      <point x="1268.0" y="264.0" type="line"/>
      <point x="1436.0" y="1268.0" type="line"/>
      <point x="1208.0" y="1268.0" type="line"/>
      <point x="1172.0" y="1424.0"/>
      <point x="1052.0" y="1556.0"/>
      <point x="824.0" y="1556.0" type="curve" smooth="yes"/>
      <point x="520.0" y="1556.0"/>
      <point x="184.0" y="1324.0"/>
      <point x="92.0" y="768.0" type="curve" smooth="yes"/>
      <point x="4.0" y="236.0"/>
      <point x="244.0" y="20.0"/>
    </contour>
    <contour>
      <point x="840.0" y="412.0" type="curve" smooth="yes"/>
      <point x="692.0" y="412.0"/>
      <point x="624.0" y="540.0"/>
      <point x="660.0" y="768.0" type="curve" smooth="yes"/>
      <point x="696.0" y="996.0"/>
      <point x="808.0" y="1132.0"/>
      <point x="960.0" y="1132.0" type="curve" smooth="yes"/>
      <point x="1112.0" y="1132.0"/>
      <point x="1180.0" y="996.0"/>
      <point x="1144.0" y="768.0" type="curve" smooth="yes"/>
      <point x="1108.0" y="544.0"/>
      <point x="996.0" y="412.0"/>
    </contour>
  </outline>
</glyph>
<glyph name="h" format="2">
  <advance width="1828.0"/>
  <unicode hex="0068"/>
  <guideline x="324.0" y="1240.0" angle="0.0"/>
  <guideline x="12.0" y="764.0" angle="0.0"/>
  <guideline x="952.0" y="1872.0" angle="260.6"/>
  <outline>
    <contour>
      <point x="708.0" y="864.0" type="line" smooth="yes"/>
      <point x="733.0" y="1016.0"/>
      <point x="837.0" y="1108.0"/>
      <point x="972.0" y="1108.0" type="curve" smooth="yes"/>
      <point x="1113.0" y="1108.0"/>
      <point x="1177.0" y="1016.0"/>
      <point x="1152.0" y="864.0" type="curve" smooth="yes"/>
      <point x="1008.0" y="0.0" type="line"/>
      <point x="1560.0" y="0.0" type="line"/>
      <point x="1724.0" y="980.0" type="line" smooth="yes"/>
      <point x="1781.0" y="1316.0"/>
      <point x="1609.0" y="1556.0"/>
      <point x="1284.0" y="1556.0" type="curve" smooth="yes"/>
      <point x="1057.0" y="1556.0"/>
      <point x="869.0" y="1440.0"/>
      <point x="768.0" y="1244.0" type="curve"/>
      <point x="752.0" y="1244.0" type="line"/>
      <point x="884.0" y="2048.0" type="line"/>
      <point x="352.0" y="2048.0" type="line"/>
      <point x="12.0" y="0.0" type="line"/>
      <point x="564.0" y="0.0" type="line"/>
    </contour>
  </outline>
</glyph>
<glyph name="k" format="2">
  <advance width="1696.0"/>
  <unicode hex="006B"/>
  <outline>
    <contour>
      <point x="892.0" y="2048.0" type="line"/>
      <point x="340.0" y="2048.0" type="line"/>
      <point x="0.0" y="0.0" type="line"/>
      <point x="552.0" y="0.0" type="line"/>
    </contour>
    <contour>
      <point x="1820.0" y="1536.0" type="line"/>
      <point x="1188.0" y="1536.0" type="line"/>
      <point x="756.0" y="1100.0" type="line"/>
      <point x="684.0" y="1100.0" type="line"/>
      <point x="556.0" y="364.0" type="line"/>
      <point x="952.0" y="732.0" type="line"/>
      <point x="1004.0" y="732.0" type="line"/>
    </contour>
    <contour>
      <point x="988.0" y="0.0" type="line"/>
      <point x="1580.0" y="0.0" type="line"/>
      <point x="1132.0" y="920.0" type="line"/>
      <point x="696.0" y="608.0" type="line"/>
    </contour>
  </outline>
</glyph>
<glyph name="l" format="2">
  <advance width="808.0"/>
  <unicode hex="006C"/>
  <guideline x="396.0" y="652.0" angle="90.0"/>
  <outline>
    <contour>
      <point x="892.0" y="2048.0" type="line"/>
      <point x="340.0" y="2048.0" type="line"/>
      <point x="0.0" y="0.0" type="line"/>
      <point x="552.0" y="0.0" type="line"/>
    </contour>
  </outline>
</glyph>
<glyph name="m" format="2">
  <advance width="2656.0"/>
  <unicode hex="006D"/>
  <guideline x="1280.0" y="468.0" angle="260.6"/>
  <outline>
    <contour>
      <point x="12.0" y="0.0" type="line"/>
      <point x="564.0" y="0.0" type="line"/>
      <point x="716.0" y="896.0" type="line" smooth="yes"/>
      <point x="737.0" y="1030.0"/>
      <point x="821.0" y="1112.0"/>
      <point x="932.0" y="1112.0" type="curve" smooth="yes"/>
      <point x="1049.0" y="1112.0"/>
      <point x="1109.0" y="1030.0"/>
      <point x="1088.0" y="896.0" type="curve" smooth="yes"/>
      <point x="936.0" y="0.0" type="line"/>
      <point x="1464.0" y="0.0" type="line"/>
      <point x="1616.0" y="896.0" type="line" smooth="yes"/>
      <point x="1637.0" y="1030.0"/>
      <point x="1721.0" y="1112.0"/>
      <point x="1832.0" y="1112.0" type="curve" smooth="yes"/>
      <point x="1949.0" y="1112.0"/>
      <point x="2009.0" y="1030.0"/>
      <point x="1988.0" y="896.0" type="curve" smooth="yes"/>
      <point x="1836.0" y="0.0" type="line"/>
      <point x="2388.0" y="0.0" type="line"/>
      <point x="2560.0" y="1036.0" type="line" smooth="yes"/>
      <point x="2615.0" y="1351.0"/>
      <point x="2446.0" y="1556.0"/>
      <point x="2152.0" y="1556.0" type="curve" smooth="yes"/>
      <point x="1924.0" y="1556.0"/>
      <point x="1720.0" y="1432.0"/>
      <point x="1636.0" y="1244.0" type="curve"/>
      <point x="1620.0" y="1244.0" type="line"/>
      <point x="1620.0" y="1432.0"/>
      <point x="1468.0" y="1556.0"/>
      <point x="1252.0" y="1556.0" type="curve" smooth="yes"/>
      <point x="1039.0" y="1556.0"/>
      <point x="857.0" y="1436.0"/>
      <point x="760.0" y="1244.0" type="curve"/>
      <point x="744.0" y="1244.0" type="line"/>
      <point x="792.0" y="1536.0" type="line"/>
      <point x="268.0" y="1536.0" type="line"/>
    </contour>
  </outline>
</glyph>
<glyph name="n" format="2">
  <advance width="1828.0"/>
  <unicode hex="006E"/>
  <guideline x="212.0" y="-164.0" angle="90.0"/>
  <outline>
    <contour>
      <point x="708.0" y="864.0" type="line" smooth="yes"/>
      <point x="733.0" y="1016.0"/>
      <point x="837.0" y="1108.0"/>
      <point x="972.0" y="1108.0" type="curve" smooth="yes"/>
      <point x="1113.0" y="1108.0"/>
      <point x="1177.0" y="1016.0"/>
      <point x="1152.0" y="864.0" type="curve" smooth="yes"/>
      <point x="1008.0" y="0.0" type="line"/>
      <point x="1560.0" y="0.0" type="line"/>
      <point x="1724.0" y="980.0" type="line" smooth="yes"/>
      <point x="1781.0" y="1316.0"/>
      <point x="1609.0" y="1556.0"/>
      <point x="1284.0" y="1556.0" type="curve" smooth="yes"/>
      <point x="1057.0" y="1556.0"/>
      <point x="857.0" y="1440.0"/>
      <point x="760.0" y="1244.0" type="curve"/>
      <point x="744.0" y="1244.0" type="line"/>
      <point x="792.0" y="1536.0" type="line"/>
      <point x="268.0" y="1536.0" type="line"/>
      <point x="12.0" y="0.0" type="line"/>
      <point x="564.0" y="0.0" type="line"/>
    </contour>
  </outline>
</glyph>
<glyph name="o" format="2">
  <advance width="1680.0"/>
  <unicode hex="006F"/>
  <guideline x="652.0" y="2860.0" angle="0.0"/>
  <guideline x="732.0" y="768.0" angle="0.0"/>
  <guideline x="844.0" y="768.0" angle="90.0"/>
  <outline>
    <contour>
      <point x="708.0" y="-28.0" type="curve" smooth="yes"/>
      <point x="1188.0" y="-28.0"/>
      <point x="1516.0" y="288.0"/>
      <point x="1596.0" y="764.0" type="curve" smooth="yes"/>
      <point x="1672.0" y="1240.0"/>
      <point x="1448.0" y="1556.0"/>
      <point x="972.0" y="1556.0" type="curve" smooth="yes"/>
      <point x="492.0" y="1556.0"/>
      <point x="160.0" y="1240.0"/>
      <point x="84.0" y="764.0" type="curve" smooth="yes"/>
      <point x="4.0" y="288.0"/>
      <point x="232.0" y="-28.0"/>
    </contour>
    <contour>
      <point x="784.0" y="404.0" type="curve" smooth="yes"/>
      <point x="644.0" y="404.0"/>
      <point x="580.0" y="540.0"/>
      <point x="616.0" y="768.0" type="curve" smooth="yes"/>
      <point x="652.0" y="996.0"/>
      <point x="764.0" y="1132.0"/>
      <point x="904.0" y="1132.0" type="curve" smooth="yes"/>
      <point x="1044.0" y="1132.0"/>
      <point x="1104.0" y="996.0"/>
      <point x="1068.0" y="768.0" type="curve" smooth="yes"/>
      <point x="1032.0" y="540.0"/>
      <point x="924.0" y="404.0"/>
    </contour>
  </outline>
</glyph>
<glyph name="p" format="2">
  <advance width="1824.0"/>
  <unicode hex="0070"/>
  <outline>
    <contour>
      <point x="-84.0" y="-576.0" type="line"/>
      <point x="468.0" y="-576.0" type="line"/>
      <point x="604.0" y="252.0" type="line"/>
      <point x="616.0" y="252.0" type="line"/>
      <point x="652.0" y="96.0"/>
      <point x="780.0" y="-20.0"/>
      <point x="996.0" y="-20.0" type="curve" smooth="yes"/>
      <point x="1324.0" y="-20.0"/>
      <point x="1644.0" y="236.0"/>
      <point x="1732.0" y="768.0" type="curve" smooth="yes"/>
      <point x="1824.0" y="1324.0"/>
      <point x="1568.0" y="1556.0"/>
      <point x="1264.0" y="1556.0" type="curve" smooth="yes"/>
      <point x="1036.0" y="1556.0"/>
      <point x="868.0" y="1424.0"/>
      <point x="784.0" y="1268.0" type="curve"/>
      <point x="772.0" y="1268.0" type="line"/>
      <point x="816.0" y="1536.0" type="line"/>
      <point x="268.0" y="1536.0" type="line"/>
    </contour>
    <contour>
      <point x="680.0" y="768.0" type="curve" smooth="yes"/>
      <point x="716.0" y="996.0"/>
      <point x="832.0" y="1132.0"/>
      <point x="984.0" y="1132.0" type="curve" smooth="yes"/>
      <point x="1136.0" y="1132.0"/>
      <point x="1200.0" y="996.0"/>
      <point x="1164.0" y="768.0" type="curve" smooth="yes"/>
      <point x="1124.0" y="540.0"/>
      <point x="1016.0" y="404.0"/>
      <point x="864.0" y="404.0" type="curve" smooth="yes"/>
      <point x="712.0" y="404.0"/>
      <point x="644.0" y="544.0"/>
    </contour>
  </outline>
</glyph>
<glyph name="r" format="2">
  <advance width="1288.0"/>
  <unicode hex="0072"/>
  <guideline x="468.0" y="1240.0" angle="0.0"/>
  <guideline x="-4.0" y="764.0" angle="0.0"/>
  <outline>
    <contour>
      <point x="0.0" y="0.0" type="line"/>
      <point x="552.0" y="0.0" type="line"/>
      <point x="684.0" y="800.0" type="line" smooth="yes"/>
      <point x="716.0" y="976.0"/>
      <point x="852.0" y="1088.0"/>
      <point x="988.0" y="1088.0" type="curve"/>
      <point x="1044.0" y="1088.0"/>
      <point x="1092.0" y="1068.0"/>
      <point x="1136.0" y="1048.0" type="curve"/>
      <point x="1368.0" y="1500.0" type="line"/>
      <point x="1312.0" y="1536.0"/>
      <point x="1236.0" y="1556.0"/>
      <point x="1160.0" y="1556.0" type="curve"/>
      <point x="992.0" y="1556.0"/>
      <point x="852.0" y="1460.0"/>
      <point x="760.0" y="1244.0" type="curve"/>
      <point x="744.0" y="1244.0" type="line"/>
      <point x="792.0" y="1536.0" type="line"/>
      <point x="256.0" y="1536.0" type="line"/>
    </contour>
  </outline>
</glyph>
<glyph name="s" format="2">
  <advance width="1656.0"/>
  <unicode hex="0073"/>
  <guideline x="500.0" y="2280.0" angle="0.0"/>
  <guideline x="1084.0" y="1664.0" angle="90.0"/>
  <outline>
    <contour>
      <point x="1612.0" y="1040.0" type="line"/>
      <point x="1644.0" y="1368.0"/>
      <point x="1464.0" y="1556.0"/>
      <point x="1004.0" y="1556.0" type="curve" smooth="yes"/>
      <point x="540.0" y="1556.0"/>
      <point x="212.0" y="1376.0"/>
      <point x="156.0" y="1040.0" type="curve" smooth="yes"/>
      <point x="108.0" y="732.0"/>
      <point x="340.0" y="640.0"/>
      <point x="552.0" y="596.0" type="curve" smooth="yes"/>
      <point x="836.0" y="536.0" type="line" smooth="yes"/>
      <point x="888.0" y="524.0"/>
      <point x="1000.0" y="524.0"/>
      <point x="988.0" y="444.0" type="curve" smooth="yes"/>
      <point x="972.0" y="360.0"/>
      <point x="836.0" y="352.0"/>
      <point x="780.0" y="352.0" type="curve" smooth="yes"/>
      <point x="672.0" y="352.0"/>
      <point x="568.0" y="380.0"/>
      <point x="572.0" y="520.0" type="curve"/>
      <point x="36.0" y="520.0" type="line"/>
      <point x="16.0" y="124.0"/>
      <point x="260.0" y="-28.0"/>
      <point x="680.0" y="-28.0" type="curve" smooth="yes"/>
      <point x="1080.0" y="-28.0"/>
      <point x="1500.0" y="104.0"/>
      <point x="1564.0" y="508.0" type="curve" smooth="yes"/>
      <point x="1624.0" y="868.0"/>
      <point x="1320.0" y="912.0"/>
      <point x="1188.0" y="936.0" type="curve" smooth="yes"/>
      <point x="848.0" y="1000.0" type="line" smooth="yes"/>
      <point x="788.0" y="1012.0"/>
      <point x="700.0" y="1020.0"/>
      <point x="712.0" y="1080.0" type="curve" smooth="yes"/>
      <point x="724.0" y="1144.0"/>
      <point x="828.0" y="1168.0"/>
      <point x="908.0" y="1172.0" type="curve" smooth="yes"/>
      <point x="976.0" y="1176.0"/>
      <point x="1116.0" y="1168.0"/>
      <point x="1104.0" y="1032.0" type="curve"/>
    </contour>
  </outline>
</glyph>
<glyph name="t" format="2">
  <advance width="1172.0"/>
  <unicode hex="0074"/>
  <guideline x="1872.0" y="2168.0" angle="90.0"/>
  <outline>
    <contour>
      <point x="1184.0" y="1536.0" type="line"/>
      <point x="196.0" y="1536.0" type="line"/>
      <point x="136.0" y="1176.0" type="line"/>
      <point x="1124.0" y="1176.0" type="line"/>
    </contour>
    <contour>
      <point x="440.0" y="1904.0" type="line"/>
      <point x="200.0" y="448.0" type="line"/>
      <point x="142.0" y="128.0"/>
      <point x="314.0" y="-36.0"/>
      <point x="700.0" y="-16.0" type="curve" smooth="yes"/>
      <point x="826.0" y="-8.0"/>
      <point x="922.0" y="16.0"/>
      <point x="976.0" y="32.0" type="curve"/>
      <point x="960.0" y="420.0" type="line"/>
      <point x="938.0" y="416.0"/>
      <point x="882.0" y="404.0"/>
      <point x="848.0" y="404.0" type="curve" smooth="yes"/>
      <point x="778.0" y="404.0"/>
      <point x="746.0" y="436.0"/>
      <point x="760.0" y="500.0" type="curve"/>
      <point x="992.0" y="1904.0" type="line"/>
    </contour>
  </outline>
</glyph>
<glyph name="u" format="2">
  <advance width="1744.0"/>
  <unicode hex="0075"/>
  <guideline x="-572.0" y="276.0" angle="0.0"/>
  <guideline x="-16.0" y="752.0" angle="0.0"/>
  <guideline x="664.0" y="524.0" angle="90.0"/>
  <outline>
    <contour>
      <point x="1064.0" y="780.0" type="line" smooth="yes"/>
      <point x="1036.0" y="612.0"/>
      <point x="988.0" y="400.0"/>
      <point x="792.0" y="400.0" type="curve" smooth="yes"/>
      <point x="696.0" y="400.0"/>
      <point x="628.0" y="452.0"/>
      <point x="652.0" y="588.0" type="curve" smooth="yes"/>
      <point x="808.0" y="1536.0" type="line"/>
      <point x="256.0" y="1536.0" type="line"/>
      <point x="100.0" y="600.0" type="line" smooth="yes"/>
      <point x="24.0" y="140.0"/>
      <point x="272.0" y="-20.0"/>
      <point x="568.0" y="-20.0" type="curve" smooth="yes"/>
      <point x="716.0" y="-20.0"/>
      <point x="884.0" y="20.0"/>
      <point x="996.0" y="132.0" type="curve"/>
      <point x="1012.0" y="144.0" type="line"/>
      <point x="984.0" y="0.0" type="line"/>
      <point x="1488.0" y="0.0" type="line"/>
      <point x="1744.0" y="1536.0" type="line"/>
      <point x="1192.0" y="1536.0" type="line"/>
    </contour>
  </outline>
</glyph>
<glyph name="v" format="2">
  <advance width="1784.0"/>
  <unicode hex="0076"/>
  <guideline x="156.0" y="1240.0" angle="0.0"/>
  <guideline y="764.0"/>
  <guideline x="796.0" y="652.0" angle="90.0"/>
  <outline>
    <contour>
      <point x="1864.0" y="1536.0" type="line"/>
      <point x="1280.0" y="1536.0" type="line"/>
      <point x="868.0" y="688.0" type="line"/>
      <point x="852.0" y="688.0" type="line"/>
      <point x="716.0" y="1536.0" type="line"/>
      <point x="176.0" y="1536.0" type="line"/>
      <point x="504.0" y="0.0" type="line"/>
      <point x="1020.0" y="0.0" type="line"/>
    </contour>
  </outline>
</glyph>
<glyph name="w" format="2">
  <advance width="2308.0"/>
  <unicode hex="0077"/>
  <guideline x="1100.0" y="776.0" angle="90.0"/>
  <outline>
    <contour>
      <point x="352.0" y="0.0" type="line"/>
      <point x="784.0" y="0.0" type="line"/>
      <point x="1132.0" y="720.0" type="line"/>
      <point x="1156.0" y="720.0" type="line"/>
      <point x="1272.0" y="0.0" type="line"/>
      <point x="1704.0" y="0.0" type="line"/>
      <point x="2328.0" y="1536.0" type="line"/>
      <point x="1784.0" y="1536.0" type="line"/>
      <point x="1540.0" y="728.0" type="line"/>
      <point x="1516.0" y="728.0" type="line"/>
      <point x="1432.0" y="1536.0" type="line"/>
      <point x="1088.0" y="1536.0" type="line"/>
      <point x="732.0" y="720.0" type="line"/>
      <point x="708.0" y="720.0" type="line"/>
      <point x="740.0" y="1536.0" type="line"/>
      <point x="240.0" y="1536.0" type="line"/>
    </contour>
  </outline>
</glyph>
<glyph name="x" format="2">
  <advance width="1664.0"/>
  <unicode hex="0078"/>
  <guideline x="832.0" y="960.0" angle="90.0"/>
  <guideline x="952.0" y="768.0" angle="0.0"/>
  <guideline x="868.0" y="768.0" angle="90.0"/>
  <outline>
    <contour>
      <point x="776.0" y="1536.0" type="line"/>
      <point x="224.0" y="1536.0" type="line"/>
      <point x="488.0" y="768.0" type="line"/>
      <point x="-60.0" y="0.0" type="line"/>
      <point x="492.0" y="0.0" type="line"/>
      <point x="768.0" y="372.0" type="line"/>
      <point x="924.0" y="0.0" type="line"/>
      <point x="1468.0" y="0.0" type="line"/>
      <point x="1180.0" y="768.0" type="line"/>
      <point x="1704.0" y="1536.0" type="line"/>
      <point x="1156.0" y="1536.0" type="line"/>
      <point x="900.0" y="1172.0" type="line"/>
    </contour>
  </outline>
</glyph>
<glyph name="y" format="2">
  <advance width="1792.0"/>
  <unicode hex="0079"/>
  <guideline x="692.0" y="316.0" angle="90.0"/>
  <outline>
    <contour>
      <point x="476.0" y="28.0" type="line" smooth="yes"/>
      <point x="397.0" y="-100.0"/>
      <point x="373.0" y="-212.0"/>
      <point x="160.0" y="-140.0" type="curve"/>
      <point x="-28.0" y="-552.0" type="line"/>
      <point x="61.0" y="-584.0"/>
      <point x="163.0" y="-600.0"/>
      <point x="268.0" y="-600.0" type="curve" smooth="yes"/>
      <point x="705.0" y="-600.0"/>
      <point x="837.0" y="-336.0"/>
      <point x="908.0" y="-208.0" type="curve" smooth="yes"/>
      <point x="1868.0" y="1536.0" type="line"/>
      <point x="1280.0" y="1536.0" type="line"/>
      <point x="848.0" y="700.0" type="line"/>
      <point x="528.0" y="112.0" type="line"/>
    </contour>
    <contour>
      <point x="716.0" y="1536.0" type="line"/>
      <point x="180.0" y="1536.0" type="line"/>
      <point x="508.0" y="24.0" type="line"/>
      <point x="940.0" y="248.0" type="line"/>
    </contour>
    <contour>
      <point x="844.0" y="720.0" type="line"/>
      <point x="884.0" y="720.0" type="line"/>
      <point x="888.0" y="748.0" type="line"/>
      <point x="848.0" y="748.0" type="line"/>
    </contour>
  </outline>
</glyph>
<glyph name="z" format="2">
  <advance width="1652.0"/>
  <unicode hex="007A"/>
  <guideline x="848.0" y="656.0" angle="260.6"/>
  <guideline x="492.0" y="768.0" angle="0.0"/>
  <outline>
    <contour>
      <point x="24.0" y="0.0" type="line"/>
      <point x="1376.0" y="0.0" type="line"/>
      <point x="1444.0" y="420.0" type="line"/>
      <point x="808.0" y="420.0" type="line"/>
      <point x="812.0" y="428.0" type="line"/>
      <point x="1552.0" y="1200.0" type="line"/>
      <point x="1604.0" y="1536.0" type="line"/>
      <point x="304.0" y="1536.0" type="line"/>
      <point x="232.0" y="1116.0" type="line"/>
      <point x="880.0" y="1116.0" type="line"/>
      <point x="876.0" y="1108.0" type="line"/>
      <point x="72.0" y="304.0" type="line"/>
    </contour>
  </outline>
</glyph>
<glyph name="braceleft" format="2">
  <advance width="1200.0"/>
  <unicode hex="007B"/>
  <outline>
    <contour>
      <point x="1168.0" y="2196.0" type="line"/>
      <point x="755.0" y="2092.0"/>
      <point x="575.0" y="1840.0"/>
      <point x="532.0" y="1556.0" type="curve"/>
      <point x="484.0" y="1276.0" type="line"/>
      <point x="459.0" y="1124.0"/>
      <point x="375.0" y="1028.0"/>
      <point x="216.0" y="1028.0" type="curve"/>
      <point x="172.0" y="780.0" type="line"/>
      <point x="643.0" y="780.0"/>
      <point x="895.0" y="1000.0"/>
      <point x="940.0" y="1276.0" type="curve"/>
      <point x="988.0" y="1556.0" type="line"/>
      <point x="1015.0" y="1724.0"/>
      <point x="1075.0" y="1876.0"/>
      <point x="1220.0" y="1924.0" type="curve"/>
    </contour>
    <contour>
      <point x="864.0" y="-220.0" type="line"/>
      <point x="735.0" y="-172.0"/>
      <point x="723.0" y="-20.0"/>
      <point x="752.0" y="148.0" type="curve" smooth="yes"/>
      <point x="800.0" y="424.0" type="line" smooth="yes"/>
      <point x="843.0" y="704.0"/>
      <point x="667.0" y="924.0"/>
      <point x="196.0" y="924.0" type="curve"/>
      <point x="156.0" y="676.0" type="line"/>
      <point x="315.0" y="676.0"/>
      <point x="367.0" y="576.0"/>
      <point x="344.0" y="424.0" type="curve" smooth="yes"/>
      <point x="296.0" y="148.0" type="line" smooth="yes"/>
      <point x="247.0" y="-140.0"/>
      <point x="343.0" y="-388.0"/>
      <point x="724.0" y="-496.0" type="curve"/>
    </contour>
  </outline>
</glyph>
<glyph name="bar" format="2">
  <advance width="1120.0"/>
  <unicode hex="007C"/>
  <guideline x="184.0" y="1240.0" angle="0.0"/>
  <guideline x="28.0" y="764.0" angle="0.0"/>
  <outline>
    <contour>
      <point x="1016.0" y="2048.0" type="line"/>
      <point x="528.0" y="2048.0" type="line"/>
      <point x="124.0" y="-384.0" type="line"/>
      <point x="612.0" y="-384.0" type="line"/>
    </contour>
  </outline>
</glyph>
<glyph name="braceright" format="2">
  <advance width="1204.0"/>
  <unicode hex="007D"/>
  <outline>
    <contour>
      <point x="20.0" y="-496.0" type="line"/>
      <point x="432.0" y="-388.0"/>
      <point x="608.0" y="-140.0"/>
      <point x="656.0" y="148.0" type="curve" smooth="yes"/>
      <point x="704.0" y="424.0" type="line" smooth="yes"/>
      <point x="728.0" y="576.0"/>
      <point x="812.0" y="676.0"/>
      <point x="972.0" y="676.0" type="curve"/>
      <point x="1012.0" y="924.0" type="line"/>
      <point x="540.0" y="924.0"/>
      <point x="292.0" y="704.0"/>
      <point x="248.0" y="424.0" type="curve" smooth="yes"/>
      <point x="200.0" y="148.0" type="line" smooth="yes"/>
      <point x="172.0" y="-20.0"/>
      <point x="112.0" y="-172.0"/>
      <point x="-32.0" y="-220.0" type="curve"/>
    </contour>
    <contour>
      <point x="988.0" y="780.0" type="curve"/>
      <point x="1032.0" y="1028.0" type="line"/>
      <point x="872.0" y="1028.0"/>
      <point x="820.0" y="1124.0"/>
      <point x="844.0" y="1276.0" type="curve"/>
      <point x="892.0" y="1556.0" type="line"/>
      <point x="936.0" y="1840.0"/>
      <point x="844.0" y="2092.0"/>
      <point x="464.0" y="2196.0" type="curve"/>
      <point x="324.0" y="1924.0" type="line"/>
      <point x="452.0" y="1876.0"/>
      <point x="464.0" y="1724.0"/>
      <point x="436.0" y="1556.0" type="curve"/>
      <point x="388.0" y="1276.0" type="line"/>
      <point x="344.0" y="1000.0"/>
      <point x="516.0" y="780.0"/>
    </contour>
  </outline>
</glyph>
<glyph name="asciitilde" format="2">
  <advance width="1960.0"/>
  <unicode hex="007E"/>
  <outline>
    <contour>
      <point x="1516.0" y="1272.0" type="line"/>
      <point x="1488.0" y="1116.0"/>
      <point x="1408.0" y="1040.0"/>
      <point x="1300.0" y="1040.0" type="curve" smooth="yes"/>
      <point x="1220.0" y="1040.0"/>
      <point x="1184.0" y="1076.0"/>
      <point x="1120.0" y="1140.0" type="curve"/>
      <point x="1020.0" y="1260.0"/>
      <point x="904.0" y="1320.0"/>
      <point x="756.0" y="1320.0" type="curve" smooth="yes"/>
      <point x="480.0" y="1320.0"/>
      <point x="220.0" y="1108.0"/>
      <point x="152.0" y="684.0" type="curve"/>
      <point x="520.0" y="684.0" type="line"/>
      <point x="532.0" y="800.0"/>
      <point x="600.0" y="896.0"/>
      <point x="728.0" y="896.0" type="curve" smooth="yes"/>
      <point x="804.0" y="896.0"/>
      <point x="844.0" y="864.0"/>
      <point x="904.0" y="800.0" type="curve"/>
      <point x="1024.0" y="676.0"/>
      <point x="1144.0" y="624.0"/>
      <point x="1284.0" y="624.0" type="curve" smooth="yes"/>
      <point x="1580.0" y="624.0"/>
      <point x="1812.0" y="868.0"/>
      <point x="1880.0" y="1272.0" type="curve"/>
    </contour>
  </outline>
</glyph>
<glyph name="cent" format="2">
  <advance width="1692.0"/>
  <unicode hex="00A2"/>
  <guideline x="1680.0" y="1372.0" angle="90.0"/>
  <outline>
    <contour>
      <point x="612.0" y="-256.0" type="line"/>
      <point x="740.0" y="-256.0" type="line"/>
      <point x="1076.0" y="1780.0" type="line"/>
      <point x="948.0" y="1780.0" type="line"/>
    </contour>
    <component base="c" xOffset="8.0"/>
  </outline>
</glyph>
<glyph name="sterling" format="2">
  <advance width="1932.0"/>
  <unicode hex="00A3"/>
  <outline>
    <contour>
      <point x="1636.0" y="0.0" type="line"/>
      <point x="1712.0" y="448.0" type="line"/>
      <point x="136.0" y="448.0" type="line"/>
      <point x="60.0" y="0.0" type="line"/>
    </contour>
    <contour>
      <point x="1400.0" y="828.0" type="line"/>
      <point x="1472.0" y="1244.0" type="line"/>
      <point x="264.0" y="1244.0" type="line"/>
      <point x="192.0" y="828.0" type="line"/>
    </contour>
    <contour>
      <point x="1072.0" y="1496.0" type="line"/>
      <point x="1088.0" y="1592.0"/>
      <point x="1128.0" y="1644.0"/>
      <point x="1208.0" y="1644.0" type="curve" smooth="yes"/>
      <point x="1304.0" y="1644.0"/>
      <point x="1368.0" y="1616.0"/>
      <point x="1352.0" y="1472.0" type="curve"/>
      <point x="1876.0" y="1496.0" type="line"/>
      <point x="1916.0" y="1868.0"/>
      <point x="1720.0" y="2076.0"/>
      <point x="1276.0" y="2076.0" type="curve" smooth="yes"/>
      <point x="864.0" y="2076.0"/>
      <point x="564.0" y="1856.0"/>
      <point x="516.0" y="1496.0" type="curve" smooth="yes"/>
      <point x="404.0" y="616.0" type="line" smooth="yes"/>
      <point x="392.0" y="520.0"/>
      <point x="372.0" y="480.0"/>
      <point x="300.0" y="448.0" type="curve"/>
      <point x="560.0" y="280.0" type="line"/>
      <point x="828.0" y="372.0"/>
      <point x="940.0" y="464.0"/>
      <point x="964.0" y="656.0" type="curve" smooth="yes"/>
    </contour>
  </outline>
</glyph>
<glyph name="currency" format="2">
  <advance width="2196.0"/>
  <unicode hex="00A4"/>
  <guideline x="156.0" y="1240.0" angle="0.0"/>
  <guideline y="764.0"/>
  <outline>
    <contour>
      <point x="532.0" y="836.0" type="curve"/>
      <point x="588.0" y="1168.0"/>
      <point x="880.0" y="1412.0"/>
      <point x="1208.0" y="1412.0" type="curve" smooth="yes"/>
      <point x="1528.0" y="1412.0"/>
      <point x="1748.0" y="1168.0"/>
      <point x="1692.0" y="836.0" type="curve" smooth="yes"/>
      <point x="1636.0" y="508.0"/>
      <point x="1336.0" y="260.0"/>
      <point x="1016.0" y="260.0" type="curve" smooth="yes"/>
      <point x="688.0" y="260.0"/>
      <point x="476.0" y="508.0"/>
    </contour>
    <contour>
      <point x="252.0" y="836.0" type="curve"/>
      <point x="172.0" y="348.0"/>
      <point x="496.0" y="-28.0"/>
      <point x="968.0" y="-28.0" type="curve" smooth="yes"/>
      <point x="1436.0" y="-28.0"/>
      <point x="1888.0" y="348.0"/>
      <point x="1968.0" y="836.0" type="curve" smooth="yes"/>
      <point x="2048.0" y="1324.0"/>
      <point x="1720.0" y="1696.0"/>
      <point x="1252.0" y="1696.0" type="curve" smooth="yes"/>
      <point x="780.0" y="1696.0"/>
      <point x="332.0" y="1324.0"/>
    </contour>
    <contour>
      <point x="2148.0" y="1532.0" type="line"/>
      <point x="1968.0" y="1748.0" type="line"/>
      <point x="1632.0" y="1464.0" type="line"/>
      <point x="1808.0" y="1248.0" type="line"/>
    </contour>
    <contour>
      <point x="600.0" y="240.0" type="line"/>
      <point x="420.0" y="452.0" type="line"/>
      <point x="84.0" y="172.0" type="line"/>
      <point x="260.0" y="-44.0" type="line"/>
    </contour>
    <contour>
      <point x="1668.0" y="-44.0" type="line"/>
      <point x="1920.0" y="172.0" type="line"/>
      <point x="1676.0" y="452.0" type="line"/>
      <point x="1428.0" y="240.0" type="line"/>
    </contour>
    <contour>
      <point x="552.0" y="1248.0" type="line"/>
      <point x="804.0" y="1464.0" type="line"/>
      <point x="560.0" y="1748.0" type="line"/>
      <point x="312.0" y="1532.0" type="line"/>
    </contour>
  </outline>
</glyph>
<glyph name="yen" format="2">
  <advance width="1648.0"/>
  <unicode hex="00A5"/>
  <outline>
    <contour>
      <point x="1516.0" y="1080.0" type="line"/>
      <point x="164.0" y="1080.0" type="line"/>
      <point x="116.0" y="788.0" type="line"/>
      <point x="1468.0" y="788.0" type="line"/>
    </contour>
    <contour>
      <point x="1452.0" y="684.0" type="line"/>
      <point x="100.0" y="684.0" type="line"/>
      <point x="48.0" y="392.0" type="line"/>
      <point x="1400.0" y="392.0" type="line"/>
    </contour>
    <contour>
      <point x="764.0" y="1104.0" type="line"/>
      <point x="772.0" y="772.0" type="line"/>
      <point x="1056.0" y="772.0" type="line"/>
      <point x="1824.0" y="2048.0" type="line"/>
      <point x="1268.0" y="2048.0" type="line"/>
    </contour>
    <contour>
      <point x="804.0" y="2048.0" type="line"/>
      <point x="248.0" y="2048.0" type="line"/>
      <point x="588.0" y="772.0" type="line"/>
      <point x="872.0" y="772.0" type="line"/>
      <point x="1000.0" y="1088.0" type="line"/>
    </contour>
    <contour>
      <point x="1140.0" y="1080.0" type="line"/>
      <point x="592.0" y="1080.0" type="line"/>
      <point x="412.0" y="0.0" type="line"/>
      <point x="960.0" y="0.0" type="line"/>
    </contour>
  </outline>
</glyph>
<glyph name="brokenbar" format="2">
  <advance width="1064.0"/>
  <unicode hex="00A6"/>
  <guideline x="908.0" y="1092.0" angle="0.0"/>
  <guideline x="772.0" y="576.0" angle="0.0"/>
  <outline>
    <contour>
      <point x="256.0" y="584.0" type="line"/>
      <point x="96.0" y="-384.0" type="line"/>
      <point x="584.0" y="-384.0" type="line"/>
      <point x="744.0" y="584.0" type="line"/>
    </contour>
    <contour>
      <point x="988.0" y="2048.0" type="line"/>
      <point x="500.0" y="2048.0" type="line"/>
      <point x="340.0" y="1084.0" type="line"/>
      <point x="828.0" y="1084.0" type="line"/>
    </contour>
  </outline>
</glyph>
<glyph name="section" format="2">
  <advance width="1716.0"/>
  <unicode hex="00A7"/>
  <guideline x="532.0" y="2372.0" angle="0.0"/>
  <guideline x="28.0" y="860.0" angle="0.0"/>
  <guideline x="1420.0"/>
  <guideline x="-32.0"/>
  <outline>
    <contour>
      <point x="1600.0" y="1524.0" type="line"/>
      <point x="1652.0" y="1840.0"/>
      <point x="1432.0" y="2076.0"/>
      <point x="1052.0" y="2076.0" type="curve"/>
      <point x="680.0" y="2076.0"/>
      <point x="384.0" y="1844.0"/>
      <point x="332.0" y="1532.0" type="curve"/>
      <point x="304.0" y="1360.0"/>
      <point x="356.0" y="1232.0"/>
      <point x="452.0" y="1124.0" type="curve"/>
      <point x="452.0" y="1124.0" type="line"/>
      <point x="388.0" y="1108.0"/>
      <point x="232.0" y="1084.0"/>
      <point x="176.0" y="900.0" type="curve" smooth="yes"/>
      <point x="84.0" y="576.0"/>
      <point x="328.0" y="460.0"/>
      <point x="436.0" y="420.0" type="curve" smooth="yes"/>
      <point x="792.0" y="280.0" type="line" smooth="yes"/>
      <point x="848.0" y="256.0"/>
      <point x="944.0" y="204.0"/>
      <point x="932.0" y="132.0" type="curve" smooth="yes"/>
      <point x="920.0" y="68.0"/>
      <point x="828.0" y="48.0"/>
      <point x="756.0" y="44.0" type="curve" smooth="yes"/>
      <point x="616.0" y="32.0"/>
      <point x="552.0" y="80.0"/>
      <point x="564.0" y="160.0" type="curve"/>
      <point x="92.0" y="160.0" type="line"/>
      <point x="36.0" y="-184.0"/>
      <point x="268.0" y="-412.0"/>
      <point x="672.0" y="-412.0" type="curve" smooth="yes"/>
      <point x="1056.0" y="-412.0"/>
      <point x="1356.0" y="-196.0"/>
      <point x="1412.0" y="132.0" type="curve" smooth="yes"/>
      <point x="1440.0" y="300.0"/>
      <point x="1392.0" y="428.0"/>
      <point x="1284.0" y="536.0" type="curve"/>
      <point x="1296.0" y="540.0" type="line"/>
      <point x="1344.0" y="552.0"/>
      <point x="1508.0" y="584.0"/>
      <point x="1564.0" y="764.0" type="curve" smooth="yes"/>
      <point x="1660.0" y="1084.0"/>
      <point x="1412.0" y="1200.0"/>
      <point x="1312.0" y="1240.0" type="curve" smooth="yes"/>
      <point x="952.0" y="1384.0" type="line"/>
      <point x="888.0" y="1400.0"/>
      <point x="792.0" y="1452.0"/>
      <point x="808.0" y="1532.0" type="curve" smooth="yes"/>
      <point x="820.0" y="1624.0"/>
      <point x="920.0" y="1624.0"/>
      <point x="976.0" y="1624.0" type="curve" smooth="yes"/>
      <point x="1084.0" y="1624.0"/>
      <point x="1140.0" y="1580.0"/>
      <point x="1128.0" y="1524.0" type="curve"/>
    </contour>
    <contour>
      <point x="1120.0" y="728.0" type="curve" smooth="yes"/>
      <point x="1100.0" y="696.0"/>
      <point x="1076.0" y="688.0"/>
      <point x="1028.0" y="704.0" type="curve" smooth="yes"/>
      <point x="740.0" y="808.0" type="line" smooth="yes"/>
      <point x="624.0" y="848.0"/>
      <point x="596.0" y="904.0"/>
      <point x="616.0" y="936.0" type="curve"/>
      <point x="636.0" y="964.0"/>
      <point x="664.0" y="976.0"/>
      <point x="720.0" y="956.0" type="curve" smooth="yes"/>
      <point x="1000.0" y="856.0" type="line" smooth="yes"/>
      <point x="1120.0" y="812.0"/>
      <point x="1144.0" y="764.0"/>
    </contour>
  </outline>
</glyph>
<glyph name="dieresis" format="2">
  <advance width="1400.0"/>
  <unicode hex="00A8"/>
  <guideline x="1956.0" y="1892.0" angle="90.0"/>
  <outline>
    <contour>
      <point x="572.0" y="1716.0" type="curve" smooth="yes"/>
      <point x="688.0" y="1716.0"/>
      <point x="796.0" y="1804.0"/>
      <point x="812.0" y="1916.0" type="curve" smooth="yes"/>
      <point x="836.0" y="2060.0"/>
      <point x="736.0" y="2180.0"/>
      <point x="588.0" y="2180.0" type="curve" smooth="yes"/>
      <point x="468.0" y="2180.0"/>
      <point x="360.0" y="2092.0"/>
      <point x="340.0" y="1980.0" type="curve" smooth="yes"/>
      <point x="316.0" y="1836.0"/>
      <point x="420.0" y="1716.0"/>
    </contour>
    <contour>
      <point x="1208.0" y="1716.0" type="curve" smooth="yes"/>
      <point x="1324.0" y="1716.0"/>
      <point x="1432.0" y="1804.0"/>
      <point x="1448.0" y="1916.0" type="curve" smooth="yes"/>
      <point x="1472.0" y="2060.0"/>
      <point x="1372.0" y="2180.0"/>
      <point x="1224.0" y="2180.0" type="curve" smooth="yes"/>
      <point x="1104.0" y="2180.0"/>
      <point x="996.0" y="2092.0"/>
      <point x="976.0" y="1980.0" type="curve" smooth="yes"/>
      <point x="952.0" y="1836.0"/>
      <point x="1056.0" y="1716.0"/>
    </contour>
  </outline>
</glyph>
<glyph name="copyright" format="2">
  <advance width="2464.0"/>
  <unicode hex="00A9"/>
  <guideline x="156.0" y="1240.0" angle="0.0"/>
  <guideline y="764.0"/>
  <outline>
    <contour>
      <point x="1480.0" y="820.0" type="line"/>
      <point x="1452.0" y="640.0"/>
      <point x="1352.0" y="572.0"/>
      <point x="1180.0" y="572.0" type="curve" smooth="yes"/>
      <point x="996.0" y="572.0"/>
      <point x="928.0" y="716.0"/>
      <point x="960.0" y="920.0" type="curve" smooth="yes"/>
      <point x="988.0" y="1084.0" type="line" smooth="yes"/>
      <point x="1024.0" y="1288.0"/>
      <point x="1136.0" y="1432.0"/>
      <point x="1320.0" y="1432.0" type="curve" smooth="yes"/>
      <point x="1492.0" y="1432.0"/>
      <point x="1572.0" y="1360.0"/>
      <point x="1540.0" y="1184.0" type="curve"/>
      <point x="1768.0" y="1184.0" type="line"/>
      <point x="1816.0" y="1472.0"/>
      <point x="1648.0" y="1616.0"/>
      <point x="1352.0" y="1616.0" type="curve" smooth="yes"/>
      <point x="1048.0" y="1616.0"/>
      <point x="812.0" y="1400.0"/>
      <point x="760.0" y="1084.0" type="curve"/>
      <point x="732.0" y="920.0" type="line"/>
      <point x="680.0" y="604.0"/>
      <point x="844.0" y="388.0"/>
      <point x="1148.0" y="388.0" type="curve" smooth="yes"/>
      <point x="1444.0" y="388.0"/>
      <point x="1660.0" y="532.0"/>
      <point x="1708.0" y="820.0" type="curve"/>
    </contour>
    <contour>
      <point x="424.0" y="1004.0" type="curve"/>
      <point x="504.0" y="1488.0"/>
      <point x="948.0" y="1860.0"/>
      <point x="1412.0" y="1860.0" type="curve" smooth="yes"/>
      <point x="1880.0" y="1860.0"/>
      <point x="2200.0" y="1488.0"/>
      <point x="2120.0" y="1004.0" type="curve" smooth="yes"/>
      <point x="2040.0" y="516.0"/>
      <point x="1596.0" y="144.0"/>
      <point x="1128.0" y="144.0" type="curve" smooth="yes"/>
      <point x="664.0" y="144.0"/>
      <point x="344.0" y="516.0"/>
    </contour>
    <contour>
      <point x="248.0" y="1004.0" type="curve"/>
      <point x="152.0" y="420.0"/>
      <point x="540.0" y="-28.0"/>
      <point x="1100.0" y="-28.0" type="curve" smooth="yes"/>
      <point x="1664.0" y="-28.0"/>
      <point x="2200.0" y="420.0"/>
      <point x="2296.0" y="1004.0" type="curve" smooth="yes"/>
      <point x="2392.0" y="1584.0"/>
      <point x="2004.0" y="2032.0"/>
      <point x="1440.0" y="2032.0" type="curve" smooth="yes"/>
      <point x="880.0" y="2032.0"/>
      <point x="344.0" y="1584.0"/>
    </contour>
  </outline>
</glyph>
<glyph name="ordfeminine" format="2">
  <advance width="1396.0"/>
  <unicode hex="00AA"/>
  <guideline x="512.0" y="2312.0" angle="0.0"/>
  <guideline x="160.0" y="1248.0" angle="0.0"/>
  <outline>
    <contour>
      <point x="940.0" y="1184.0" type="line"/>
      <point x="928.0" y="1104.0"/>
      <point x="932.0" y="1028.0"/>
      <point x="940.0" y="968.0" type="curve"/>
      <point x="1196.0" y="968.0" type="line"/>
      <point x="1176.0" y="1060.0"/>
      <point x="1188.0" y="1148.0"/>
      <point x="1200.0" y="1220.0" type="curve" smooth="yes"/>
      <point x="1272.0" y="1652.0" type="line"/>
      <point x="1312.0" y="1904.0"/>
      <point x="1164.0" y="2032.0"/>
      <point x="912.0" y="2032.0" type="curve" smooth="yes"/>
      <point x="644.0" y="2032.0"/>
      <point x="444.0" y="1896.0"/>
      <point x="412.0" y="1708.0" type="curve"/>
      <point x="660.0" y="1692.0" type="line"/>
      <point x="676.0" y="1780.0"/>
      <point x="756.0" y="1828.0"/>
      <point x="880.0" y="1828.0" type="curve" smooth="yes"/>
      <point x="996.0" y="1828.0"/>
      <point x="1036.0" y="1760.0"/>
      <point x="1020.0" y="1652.0" type="curve"/>
    </contour>
    <contour>
      <point x="1072.0" y="1580.0" type="line"/>
      <point x="864.0" y="1580.0" type="line"/>
      <point x="532.0" y="1580.0"/>
      <point x="352.0" y="1468.0"/>
      <point x="320.0" y="1264.0" type="curve" smooth="yes"/>
      <point x="288.0" y="1076.0"/>
      <point x="396.0" y="952.0"/>
      <point x="624.0" y="952.0" type="curve" smooth="yes"/>
      <point x="820.0" y="952.0"/>
      <point x="944.0" y="1052.0"/>
      <point x="1004.0" y="1144.0" type="curve"/>
      <point x="1004.0" y="1308.0" type="line"/>
      <point x="996.0" y="1240.0"/>
      <point x="836.0" y="1148.0"/>
      <point x="720.0" y="1148.0" type="curve" smooth="yes"/>
      <point x="604.0" y="1148.0"/>
      <point x="560.0" y="1196.0"/>
      <point x="572.0" y="1268.0" type="curve" smooth="yes"/>
      <point x="584.0" y="1348.0"/>
      <point x="672.0" y="1420.0"/>
      <point x="836.0" y="1420.0" type="curve"/>
      <point x="1044.0" y="1420.0" type="line"/>
    </contour>
  </outline>
</glyph>
<glyph name="logicalnot" format="2">
  <advance width="1660.0"/>
  <unicode hex="00AC"/>
  <outline>
    <contour>
      <point x="1492.0" y="1108.0" type="line"/>
      <point x="288.0" y="1108.0" type="line"/>
      <point x="248.0" y="872.0" type="line"/>
      <point x="1452.0" y="872.0" type="line"/>
    </contour>
    <contour>
      <point x="1476.0" y="1000.0" type="line"/>
      <point x="1188.0" y="1000.0" type="line"/>
      <point x="1108.0" y="516.0" type="line"/>
      <point x="1396.0" y="516.0" type="line"/>
    </contour>
  </outline>
</glyph>
<glyph name="registered" format="2">
  <advance width="2464.0"/>
  <unicode hex="00AE"/>
  <outline>
    <contour>
      <point x="1292.0" y="900.0" type="line"/>
      <point x="1360.0" y="900.0"/>
      <point x="1312.0" y="904.0"/>
      <point x="1372.0" y="928.0" type="curve" smooth="yes"/>
      <point x="1376.0" y="932.0"/>
      <point x="1404.0" y="948.0"/>
      <point x="1396.0" y="948.0" type="curve" smooth="yes"/>
      <point x="1608.0" y="1000.0"/>
      <point x="1736.0" y="1088.0"/>
      <point x="1760.0" y="1236.0" type="curve"/>
      <point x="1800.0" y="1472.0"/>
      <point x="1640.0" y="1604.0"/>
      <point x="1352.0" y="1604.0" type="curve"/>
      <point x="948.0" y="1604.0" type="line"/>
      <point x="752.0" y="436.0" type="line"/>
      <point x="972.0" y="436.0" type="line"/>
      <point x="1136.0" y="1420.0" type="line"/>
      <point x="1320.0" y="1420.0" type="line"/>
      <point x="1508.0" y="1420.0"/>
      <point x="1568.0" y="1376.0"/>
      <point x="1548.0" y="1244.0" type="curve"/>
      <point x="1528.0" y="1136.0"/>
      <point x="1392.0" y="1084.0"/>
      <point x="1252.0" y="1084.0" type="curve"/>
      <point x="1008.0" y="1084.0" type="line"/>
      <point x="980.0" y="900.0" type="line"/>
    </contour>
    <contour>
      <point x="1272.0" y="900.0" type="line"/>
      <point x="1424.0" y="900.0"/>
      <point x="1472.0" y="836.0"/>
      <point x="1452.0" y="708.0" type="curve"/>
      <point x="1436.0" y="632.0" type="line"/>
      <point x="1432.0" y="592.0"/>
      <point x="1412.0" y="480.0"/>
      <point x="1424.0" y="436.0" type="curve"/>
      <point x="1648.0" y="436.0" type="line"/>
      <point x="1652.0" y="456.0" type="line"/>
      <point x="1644.0" y="496.0"/>
      <point x="1644.0" y="556.0"/>
      <point x="1656.0" y="632.0" type="curve"/>
      <point x="1672.0" y="708.0" type="line"/>
      <point x="1704.0" y="916.0"/>
      <point x="1632.0" y="1068.0"/>
      <point x="1332.0" y="1068.0" type="curve"/>
    </contour>
    <contour>
      <point x="424.0" y="1004.0" type="curve" smooth="yes"/>
      <point x="504.0" y="1488.0"/>
      <point x="948.0" y="1860.0"/>
      <point x="1412.0" y="1860.0" type="curve" smooth="yes"/>
      <point x="1880.0" y="1860.0"/>
      <point x="2200.0" y="1488.0"/>
      <point x="2120.0" y="1004.0" type="curve" smooth="yes"/>
      <point x="2040.0" y="516.0"/>
      <point x="1596.0" y="144.0"/>
      <point x="1128.0" y="144.0" type="curve" smooth="yes"/>
      <point x="664.0" y="144.0"/>
      <point x="344.0" y="516.0"/>
    </contour>
    <contour>
      <point x="248.0" y="1004.0" type="curve" smooth="yes"/>
      <point x="152.0" y="420.0"/>
      <point x="540.0" y="-28.0"/>
      <point x="1100.0" y="-28.0" type="curve" smooth="yes"/>
      <point x="1664.0" y="-28.0"/>
      <point x="2200.0" y="420.0"/>
      <point x="2296.0" y="1004.0" type="curve" smooth="yes"/>
      <point x="2392.0" y="1584.0"/>
      <point x="2004.0" y="2032.0"/>
      <point x="1440.0" y="2032.0" type="curve" smooth="yes"/>
      <point x="880.0" y="2032.0"/>
      <point x="344.0" y="1584.0"/>
    </contour>
  </outline>
</glyph>
<glyph name="macron" format="2">
  <advance width="1812.0"/>
  <unicode hex="00AF"/>
  <outline>
    <contour>
      <point x="1616.0" y="2048.0" type="line"/>
      <point x="612.0" y="2048.0" type="line"/>
      <point x="572.0" y="1796.0" type="line"/>
      <point x="1576.0" y="1796.0" type="line"/>
    </contour>
  </outline>
</glyph>
<glyph name="degree" format="2">
  <advance width="1304.0"/>
  <unicode hex="00B0"/>
  <outline>
    <contour>
      <point x="692.0" y="1024.0" type="curve" smooth="yes"/>
      <point x="974.0" y="1024.0"/>
      <point x="1241.0" y="1253.0"/>
      <point x="1292.0" y="1536.0" type="curve" smooth="yes"/>
      <point x="1335.0" y="1819.0"/>
      <point x="1144.0" y="2048.0"/>
      <point x="864.0" y="2048.0" type="curve" smooth="yes"/>
      <point x="578.0" y="2048.0"/>
      <point x="311.0" y="1819.0"/>
      <point x="268.0" y="1536.0" type="curve" smooth="yes"/>
      <point x="217.0" y="1253.0"/>
      <point x="408.0" y="1024.0"/>
    </contour>
    <contour>
      <point x="752.0" y="1364.0" type="curve" smooth="yes"/>
      <point x="651.0" y="1364.0"/>
      <point x="587.0" y="1440.0"/>
      <point x="608.0" y="1536.0" type="curve" smooth="yes"/>
      <point x="619.0" y="1632.0"/>
      <point x="711.0" y="1708.0"/>
      <point x="808.0" y="1708.0" type="curve" smooth="yes"/>
      <point x="899.0" y="1708.0"/>
      <point x="963.0" y="1632.0"/>
      <point x="952.0" y="1536.0" type="curve" smooth="yes"/>
      <point x="931.0" y="1440.0"/>
      <point x="843.0" y="1364.0"/>
    </contour>
  </outline>
</glyph>
<glyph name="plusminus" format="2">
  <advance width="1572.0"/>
  <unicode hex="00B1"/>
  <outline>
    <contour>
      <point x="1392.0" y="404.0" type="line"/>
      <point x="60.0" y="404.0" type="line"/>
      <point x="-8.0" y="0.0" type="line"/>
      <point x="1324.0" y="0.0" type="line"/>
    </contour>
    <contour>
      <point x="1552.0" y="1352.0" type="line"/>
      <point x="1084.0" y="1352.0" type="line"/>
      <point x="1164.0" y="1828.0" type="line"/>
      <point x="760.0" y="1828.0" type="line"/>
      <point x="680.0" y="1352.0" type="line"/>
      <point x="204.0" y="1352.0" type="line"/>
      <point x="140.0" y="952.0" type="line"/>
      <point x="616.0" y="952.0" type="line"/>
      <point x="548.0" y="544.0" type="line"/>
      <point x="952.0" y="544.0" type="line"/>
      <point x="1020.0" y="952.0" type="line"/>
      <point x="1488.0" y="952.0" type="line"/>
    </contour>
  </outline>
</glyph>
<glyph name="two.sups" format="2">
  <advance width="1224.0"/>
  <unicode hex="00B2"/>
  <outline>
    <contour>
      <point x="152.0" y="1024.0" type="line"/>
      <point x="1200.0" y="1024.0" type="line"/>
      <point x="1244.0" y="1316.0" type="line"/>
      <point x="740.0" y="1316.0" type="line"/>
      <point x="740.0" y="1324.0" type="line"/>
      <point x="880.0" y="1392.0" type="line" smooth="yes"/>
      <point x="1168.0" y="1532.0"/>
      <point x="1276.0" y="1672.0"/>
      <point x="1300.0" y="1848.0" type="curve" smooth="yes"/>
      <point x="1332.0" y="2072.0"/>
      <point x="1172.0" y="2268.0"/>
      <point x="840.0" y="2268.0" type="curve" smooth="yes"/>
      <point x="532.0" y="2268.0"/>
      <point x="296.0" y="2108.0"/>
      <point x="252.0" y="1840.0" type="curve"/>
      <point x="608.0" y="1840.0" type="line"/>
      <point x="628.0" y="1940.0"/>
      <point x="716.0" y="1988.0"/>
      <point x="812.0" y="1988.0" type="curve" smooth="yes"/>
      <point x="932.0" y="1988.0"/>
      <point x="980.0" y="1924.0"/>
      <point x="968.0" y="1848.0" type="curve" smooth="yes"/>
      <point x="956.0" y="1768.0"/>
      <point x="868.0" y="1716.0"/>
      <point x="768.0" y="1652.0" type="curve" smooth="yes"/>
      <point x="192.0" y="1292.0" type="line"/>
    </contour>
  </outline>
</glyph>
<glyph name="three.sups" format="2">
  <advance width="1256.0"/>
  <unicode hex="00B3"/>
  <outline>
    <contour>
      <point x="676.0" y="1008.0" type="curve" smooth="yes"/>
      <point x="988.0" y="1008.0"/>
      <point x="1248.0" y="1148.0"/>
      <point x="1284.0" y="1364.0" type="curve" smooth="yes"/>
      <point x="1308.0" y="1508.0"/>
      <point x="1204.0" y="1640.0"/>
      <point x="996.0" y="1656.0" type="curve"/>
      <point x="1000.0" y="1668.0" type="line"/>
      <point x="1180.0" y="1676.0"/>
      <point x="1304.0" y="1768.0"/>
      <point x="1324.0" y="1892.0" type="curve" smooth="yes"/>
      <point x="1360.0" y="2112.0"/>
      <point x="1160.0" y="2268.0"/>
      <point x="856.0" y="2268.0" type="curve" smooth="yes"/>
      <point x="560.0" y="2268.0"/>
      <point x="316.0" y="2104.0"/>
      <point x="280.0" y="1872.0" type="curve"/>
      <point x="632.0" y="1872.0" type="line"/>
      <point x="644.0" y="1944.0"/>
      <point x="740.0" y="1988.0"/>
      <point x="844.0" y="1988.0" type="curve" smooth="yes"/>
      <point x="932.0" y="1988.0"/>
      <point x="976.0" y="1948.0"/>
      <point x="968.0" y="1900.0" type="curve" smooth="yes"/>
      <point x="952.0" y="1820.0"/>
      <point x="856.0" y="1772.0"/>
      <point x="748.0" y="1772.0" type="curve" smooth="yes"/>
      <point x="620.0" y="1772.0" type="line"/>
      <point x="580.0" y="1524.0" type="line"/>
      <point x="728.0" y="1524.0" type="line" smooth="yes"/>
      <point x="844.0" y="1524.0"/>
      <point x="916.0" y="1484.0"/>
      <point x="904.0" y="1432.0" type="curve" smooth="yes"/>
      <point x="888.0" y="1356.0"/>
      <point x="796.0" y="1304.0"/>
      <point x="692.0" y="1304.0" type="curve" smooth="yes"/>
      <point x="592.0" y="1304.0"/>
      <point x="528.0" y="1348.0"/>
      <point x="540.0" y="1412.0" type="curve"/>
      <point x="172.0" y="1412.0" type="line"/>
      <point x="132.0" y="1176.0"/>
      <point x="344.0" y="1008.0"/>
    </contour>
  </outline>
</glyph>
<glyph name="acute" format="2">
  <advance width="1228.0"/>
  <unicode hex="00B4"/>
  <outline>
    <contour>
      <point x="332.0" y="1672.0" type="line"/>
      <point x="772.0" y="1672.0" type="line"/>
      <point x="1268.0" y="2112.0" type="line"/>
      <point x="704.0" y="2112.0" type="line"/>
    </contour>
  </outline>
</glyph>
<glyph name="micro" format="2">
  <advance width="1936.0"/>
  <unicode hex="00B5"/>
  <guideline x="-408.0" y="276.0" angle="0.0"/>
  <guideline x="-12.0" y="752.0" angle="0.0"/>
  <outline>
    <contour>
      <point x="-88.0" y="-544.0" type="line"/>
      <point x="436.0" y="-544.0" type="line"/>
      <point x="560.0" y="212.0" type="line"/>
      <point x="572.0" y="212.0" type="line"/>
      <point x="600.0" y="100.0"/>
      <point x="704.0" y="28.0"/>
      <point x="844.0" y="28.0" type="curve" smooth="yes"/>
      <point x="988.0" y="28.0"/>
      <point x="1112.0" y="100.0"/>
      <point x="1180.0" y="212.0" type="curve"/>
      <point x="1192.0" y="212.0" type="line"/>
      <point x="1156.0" y="0.0" type="line"/>
      <point x="1680.0" y="0.0" type="line"/>
      <point x="1936.0" y="1536.0" type="line"/>
      <point x="1384.0" y="1536.0" type="line"/>
      <point x="1240.0" y="672.0" type="line" smooth="yes"/>
      <point x="1216.0" y="528.0"/>
      <point x="1080.0" y="428.0"/>
      <point x="912.0" y="428.0" type="curve" smooth="yes"/>
      <point x="744.0" y="428.0"/>
      <point x="640.0" y="528.0"/>
      <point x="664.0" y="672.0" type="curve" smooth="yes"/>
      <point x="808.0" y="1536.0" type="line"/>
      <point x="256.0" y="1536.0" type="line"/>
    </contour>
  </outline>
</glyph>
<glyph name="mu" format="2">
  <advance width="1756.0"/>
  <unicode hex="00B5"/>
  <guideline x="-164.0" y="276.0" angle="0.0"/>
  <guideline x="-4.0" y="752.0" angle="0.0"/>
  <outline>
    <contour>
      <point x="1220.0" y="1536.0" type="line"/>
      <point x="1020.0" y="344.0" type="line"/>
      <point x="992.0" y="0.0" type="line"/>
      <point x="1500.0" y="0.0" type="line"/>
      <point x="1756.0" y="1536.0" type="line"/>
    </contour>
    <contour>
      <point x="1080.0" y="692.0" type="line"/>
      <point x="1056.0" y="548.0"/>
      <point x="1004.0" y="384.0"/>
      <point x="796.0" y="384.0" type="curve" smooth="yes"/>
      <point x="648.0" y="384.0"/>
      <point x="608.0" y="460.0"/>
      <point x="644.0" y="680.0" type="curve"/>
      <point x="360.0" y="680.0" type="line"/>
      <point x="336.0" y="72.0"/>
      <point x="516.0" y="-28.0"/>
      <point x="704.0" y="-28.0" type="curve" smooth="yes"/>
      <point x="1072.0" y="-28.0"/>
      <point x="1296.0" y="296.0"/>
      <point x="1364.0" y="696.0" type="curve"/>
    </contour>
    <contour>
      <point x="256.0" y="1536.0" type="line"/>
      <point x="-92.0" y="-572.0" type="line"/>
      <point x="440.0" y="-572.0" type="line"/>
      <point x="788.0" y="1536.0" type="line"/>
    </contour>
  </outline>
</glyph>
<glyph name="paragraph" format="2">
  <advance width="1392.0"/>
  <unicode hex="00B6"/>
  <guideline x="156.0" y="1240.0" angle="0.0"/>
  <guideline y="764.0"/>
  <outline>
    <contour>
      <point x="1152.0" y="0.0" type="line"/>
      <point x="1484.0" y="2004.0" type="line"/>
      <point x="1028.0" y="2004.0" type="line" smooth="yes"/>
      <point x="568.0" y="2004.0"/>
      <point x="276.0" y="1728.0"/>
      <point x="216.0" y="1360.0" type="curve" smooth="yes"/>
      <point x="152.0" y="988.0"/>
      <point x="356.0" y="716.0"/>
      <point x="816.0" y="716.0" type="curve" smooth="yes"/>
      <point x="936.0" y="716.0" type="line"/>
      <point x="816.0" y="0.0" type="line"/>
    </contour>
  </outline>
</glyph>
<glyph name="cedilla" format="2">
  <advance width="1200.0"/>
  <unicode hex="00B8"/>
  <outline>
    <contour>
      <point x="180.0" y="8.0" type="line"/>
      <point x="96.0" y="-200.0" type="line"/>
      <point x="228.0" y="-204.0"/>
      <point x="280.0" y="-228.0"/>
      <point x="268.0" y="-288.0" type="curve" smooth="yes"/>
      <point x="256.0" y="-356.0"/>
      <point x="204.0" y="-384.0"/>
      <point x="140.0" y="-384.0" type="curve"/>
      <point x="108.0" y="-680.0" type="line"/>
      <point x="464.0" y="-680.0"/>
      <point x="680.0" y="-536.0"/>
      <point x="716.0" y="-320.0" type="curve" smooth="yes"/>
      <point x="740.0" y="-164.0"/>
      <point x="644.0" y="-100.0"/>
      <point x="544.0" y="-84.0" type="curve"/>
      <point x="576.0" y="8.0" type="line"/>
    </contour>
  </outline>
</glyph>
<glyph name="one.sups" format="2">
  <advance width="932.0"/>
  <unicode hex="00B9"/>
  <outline>
    <contour>
      <point x="988.0" y="2252.0" type="line"/>
      <point x="632.0" y="2252.0" type="line"/>
      <point x="608.0" y="2152.0"/>
      <point x="480.0" y="2044.0"/>
      <point x="296.0" y="2048.0" type="curve"/>
      <point x="256.0" y="1756.0" type="line"/>
      <point x="404.0" y="1752.0"/>
      <point x="512.0" y="1768.0"/>
      <point x="544.0" y="1816.0" type="curve"/>
      <point x="556.0" y="1816.0" type="line"/>
      <point x="420.0" y="1024.0" type="line"/>
      <point x="780.0" y="1024.0" type="line"/>
    </contour>
  </outline>
</glyph>
<glyph name="ordmasculine" format="2">
  <advance width="1392.0"/>
  <unicode hex="00BA"/>
  <guideline x="644.0" y="2716.0" angle="0.0"/>
  <outline>
    <contour>
      <point x="308.0" y="1436.0" type="line"/>
      <point x="260.0" y="1152.0"/>
      <point x="416.0" y="948.0"/>
      <point x="728.0" y="948.0" type="curve" smooth="yes"/>
      <point x="1036.0" y="948.0"/>
      <point x="1260.0" y="1152.0"/>
      <point x="1308.0" y="1436.0" type="curve"/>
      <point x="1324.0" y="1540.0" type="line"/>
      <point x="1372.0" y="1828.0"/>
      <point x="1212.0" y="2032.0"/>
      <point x="904.0" y="2032.0" type="curve" smooth="yes"/>
      <point x="600.0" y="2032.0"/>
      <point x="372.0" y="1828.0"/>
      <point x="324.0" y="1540.0" type="curve"/>
    </contour>
    <contour>
      <point x="576.0" y="1540.0" type="line"/>
      <point x="604.0" y="1700.0"/>
      <point x="708.0" y="1828.0"/>
      <point x="872.0" y="1828.0" type="curve" smooth="yes"/>
      <point x="1040.0" y="1828.0"/>
      <point x="1100.0" y="1700.0"/>
      <point x="1072.0" y="1540.0" type="curve"/>
      <point x="1056.0" y="1436.0" type="line"/>
      <point x="1028.0" y="1272.0"/>
      <point x="928.0" y="1152.0"/>
      <point x="764.0" y="1152.0" type="curve" smooth="yes"/>
      <point x="596.0" y="1152.0"/>
      <point x="532.0" y="1272.0"/>
      <point x="560.0" y="1436.0" type="curve"/>
    </contour>
  </outline>
</glyph>
<glyph name="AE" format="2">
  <advance width="2848.0"/>
  <unicode hex="00C6"/>
  <outline>
    <contour>
      <point x="-56.0" y="0.0" type="line"/>
      <point x="556.0" y="0.0" type="line"/>
      <point x="752.0" y="316.0" type="line"/>
      <point x="1316.0" y="316.0" type="line"/>
      <point x="1276.0" y="0.0" type="line"/>
      <point x="2576.0" y="0.0" type="line"/>
      <point x="2648.0" y="420.0" type="line"/>
      <point x="1848.0" y="420.0" type="line"/>
      <point x="1900.0" y="808.0" type="line"/>
      <point x="2508.0" y="808.0" type="line"/>
      <point x="2576.0" y="1224.0" type="line"/>
      <point x="1952.0" y="1224.0" type="line"/>
      <point x="2004.0" y="1628.0" type="line"/>
      <point x="2760.0" y="1628.0" type="line"/>
      <point x="2828.0" y="2048.0" type="line"/>
      <point x="1312.0" y="2048.0" type="line"/>
    </contour>
    <contour>
      <point x="1020.0" y="752.0" type="line"/>
      <point x="1456.0" y="1460.0" type="line"/>
      <point x="1368.0" y="752.0" type="line"/>
    </contour>
  </outline>
</glyph>
<glyph name="multiply" format="2">
  <advance width="1572.0"/>
  <unicode hex="00D7"/>
  <guideline x="276.0" y="896.0" angle="0.0"/>
  <outline>
    <contour>
      <point x="300.0" y="224.0" type="line"/>
      <point x="1560.0" y="1272.0" type="line"/>
      <point x="1308.0" y="1560.0" type="line"/>
      <point x="52.0" y="516.0" type="line"/>
    </contour>
    <contour>
      <point x="1088.0" y="224.0" type="line"/>
      <point x="1440.0" y="516.0" type="line"/>
      <point x="532.0" y="1560.0" type="line"/>
      <point x="180.0" y="1272.0" type="line"/>
    </contour>
  </outline>
</glyph>
<glyph name="Oslash" format="2">
  <advance width="2040.0"/>
  <unicode hex="00D8"/>
  <guideline x="1296.0" y="1588.0" angle="90.0"/>
  <guideline x="1376.0" y="1024.0" angle="0.0"/>
  <guideline x="1108.0" y="1024.0" angle="55.9722"/>
  <outline>
    <contour>
      <point x="296.0" y="-108.0" type="line"/>
      <point x="2140.0" y="2000.0" type="line"/>
      <point x="1940.0" y="2152.0" type="line"/>
      <point x="96.0" y="44.0" type="line"/>
    </contour>
    <component base="O"/>
  </outline>
</glyph>
<glyph name="Thorn" format="2">
  <advance width="1932.0"/>
  <unicode hex="00DE"/>
  <guideline x="156.0" y="1240.0" angle="0.0"/>
  <guideline y="764.0"/>
  <outline>
    <contour>
      <point x="336.0" y="2048.0" type="line"/>
      <point x="-4.0" y="0.0" type="line"/>
      <point x="552.0" y="0.0" type="line"/>
      <point x="892.0" y="2048.0" type="line"/>
    </contour>
    <contour>
      <point x="536.0" y="1704.0" type="line"/>
      <point x="468.0" y="1292.0" type="line"/>
      <point x="1004.0" y="1292.0" type="line" smooth="yes"/>
      <point x="1224.0" y="1292.0"/>
      <point x="1272.0" y="1160.0"/>
      <point x="1256.0" y="1048.0" type="curve" smooth="yes"/>
      <point x="1236.0" y="940.0"/>
      <point x="1144.0" y="812.0"/>
      <point x="924.0" y="812.0" type="curve" smooth="yes"/>
      <point x="388.0" y="812.0" type="line"/>
      <point x="320.0" y="404.0" type="line"/>
      <point x="856.0" y="404.0" type="line" smooth="yes"/>
      <point x="1388.0" y="404.0"/>
      <point x="1724.0" y="668.0"/>
      <point x="1788.0" y="1052.0" type="curve" smooth="yes"/>
      <point x="1852.0" y="1436.0"/>
      <point x="1604.0" y="1704.0"/>
      <point x="1072.0" y="1704.0" type="curve" smooth="yes"/>
    </contour>
  </outline>
</glyph>
<glyph name="germandbls" format="2">
  <advance width="1888.0"/>
  <unicode hex="00DF"/>
  <outline>
    <contour>
      <point x="764.0" y="1408.0" type="line"/>
      <point x="792.0" y="1572.0"/>
      <point x="892.0" y="1612.0"/>
      <point x="988.0" y="1612.0" type="curve" smooth="yes"/>
      <point x="1100.0" y="1612.0"/>
      <point x="1160.0" y="1552.0"/>
      <point x="1148.0" y="1476.0" type="curve" smooth="yes"/>
      <point x="1128.0" y="1340.0"/>
      <point x="992.0" y="1268.0"/>
      <point x="960.0" y="1072.0" type="curve" smooth="yes"/>
      <point x="900.0" y="728.0"/>
      <point x="1288.0" y="780.0"/>
      <point x="1248.0" y="532.0" type="curve" smooth="yes"/>
      <point x="1232.0" y="428.0"/>
      <point x="1140.0" y="392.0"/>
      <point x="1048.0" y="392.0" type="curve" smooth="yes"/>
      <point x="908.0" y="392.0"/>
      <point x="836.0" y="412.0"/>
      <point x="788.0" y="424.0" type="curve"/>
      <point x="608.0" y="28.0" type="line"/>
      <point x="684.0" y="-12.0"/>
      <point x="844.0" y="-28.0"/>
      <point x="972.0" y="-28.0" type="curve" smooth="yes"/>
      <point x="1496.0" y="-28.0"/>
      <point x="1736.0" y="296.0"/>
      <point x="1776.0" y="536.0" type="curve" smooth="yes"/>
      <point x="1836.0" y="884.0"/>
      <point x="1496.0" y="960.0"/>
      <point x="1520.0" y="1104.0" type="curve" smooth="yes"/>
      <point x="1544.0" y="1256.0"/>
      <point x="1652.0" y="1316.0"/>
      <point x="1680.0" y="1504.0" type="curve" smooth="yes"/>
      <point x="1736.0" y="1832.0"/>
      <point x="1496.0" y="2052.0"/>
      <point x="1060.0" y="2052.0" type="curve" smooth="yes"/>
      <point x="616.0" y="2052.0"/>
      <point x="304.0" y="1832.0"/>
      <point x="232.0" y="1408.0" type="curve" smooth="yes"/>
      <point x="0.0" y="0.0" type="line"/>
      <point x="532.0" y="0.0" type="line"/>
    </contour>
  </outline>
</glyph>
<glyph name="ae" format="2">
  <advance width="2512.0"/>
  <unicode hex="00E6"/>
  <guideline x="124.0" y="1148.0" angle="0.0"/>
  <outline>
    <contour>
      <point x="892.0" y="468.0" type="line" smooth="yes"/>
      <point x="876.0" y="392.0"/>
      <point x="756.0" y="356.0"/>
      <point x="680.0" y="356.0" type="curve" smooth="yes"/>
      <point x="604.0" y="356.0"/>
      <point x="568.0" y="396.0"/>
      <point x="580.0" y="468.0" type="curve" smooth="yes"/>
      <point x="600.0" y="608.0"/>
      <point x="764.0" y="616.0"/>
      <point x="836.0" y="624.0" type="curve" smooth="yes"/>
      <point x="864.0" y="628.0"/>
      <point x="900.0" y="640.0"/>
      <point x="920.0" y="656.0" type="curve"/>
    </contour>
    <contour>
      <point x="160.0" y="1040.0" type="curve"/>
      <point x="660.0" y="980.0" type="line"/>
      <point x="696.0" y="1088.0"/>
      <point x="772.0" y="1128.0"/>
      <point x="844.0" y="1128.0" type="curve" smooth="yes"/>
      <point x="932.0" y="1128.0"/>
      <point x="992.0" y="1076.0"/>
      <point x="988.0" y="1068.0" type="curve" smooth="yes"/>
      <point x="984.0" y="1024.0" type="line"/>
      <point x="972.0" y="956.0"/>
      <point x="856.0" y="948.0"/>
      <point x="792.0" y="944.0" type="curve" smooth="yes"/>
      <point x="316.0" y="908.0"/>
      <point x="84.0" y="696.0"/>
      <point x="40.0" y="436.0" type="curve" smooth="yes"/>
      <point x="-16.0" y="84.0"/>
      <point x="288.0" y="-24.0"/>
      <point x="576.0" y="-24.0" type="curve" smooth="yes"/>
      <point x="868.0" y="-24.0"/>
      <point x="1024.0" y="80.0"/>
      <point x="1064.0" y="136.0" type="curve"/>
      <point x="1172.0" y="136.0" type="line"/>
      <point x="1472.0" y="1412.0" type="line"/>
      <point x="1352.0" y="1524.0"/>
      <point x="1160.0" y="1556.0"/>
      <point x="964.0" y="1556.0" type="curve" smooth="yes"/>
      <point x="532.0" y="1556.0"/>
      <point x="236.0" y="1324.0"/>
    </contour>
    <contour>
      <point x="2368.0" y="464.0" type="curve"/>
      <point x="1916.0" y="588.0" type="line"/>
      <point x="1876.0" y="524.0"/>
      <point x="1820.0" y="404.0"/>
      <point x="1624.0" y="404.0" type="curve" smooth="yes"/>
      <point x="1408.0" y="404.0"/>
      <point x="1364.0" y="556.0"/>
      <point x="1396.0" y="736.0" type="curve"/>
      <point x="1432.0" y="964.0"/>
      <point x="1536.0" y="1132.0"/>
      <point x="1748.0" y="1132.0" type="curve" smooth="yes"/>
      <point x="1900.0" y="1132.0"/>
      <point x="1972.0" y="1052.0"/>
      <point x="1956.0" y="952.0" type="curve"/>
      <point x="1260.0" y="888.0" type="line"/>
      <point x="1204.0" y="560.0" type="line"/>
      <point x="2416.0" y="684.0" type="line"/>
      <point x="2440.0" y="848.0" type="line" smooth="yes"/>
      <point x="2508.0" y="1256.0"/>
      <point x="2292.0" y="1556.0"/>
      <point x="1816.0" y="1556.0" type="curve" smooth="yes"/>
      <point x="1552.0" y="1556.0"/>
      <point x="1316.0" y="1460.0"/>
      <point x="1144.0" y="1308.0" type="curve"/>
      <point x="992.0" y="296.0" type="line"/>
      <point x="1096.0" y="96.0"/>
      <point x="1240.0" y="-28.0"/>
      <point x="1560.0" y="-28.0" type="curve"/>
      <point x="2048.0" y="-28.0"/>
      <point x="2300.0" y="280.0"/>
    </contour>
  </outline>
</glyph>
<glyph name="eth" format="2">
  <advance width="1580.0"/>
  <unicode hex="00F0"/>
  <outline>
    <contour>
      <point x="1412.0" y="1832.0" type="line"/>
      <point x="1308.0" y="2092.0" type="line"/>
      <point x="348.0" y="1628.0" type="line"/>
      <point x="452.0" y="1368.0" type="line"/>
    </contour>
    <contour>
      <point x="656.0" y="-32.0" type="curve" smooth="yes"/>
      <point x="1080.0" y="-32.0"/>
      <point x="1412.0" y="256.0"/>
      <point x="1492.0" y="752.0" type="curve" smooth="yes"/>
      <point x="1608.0" y="1448.0"/>
      <point x="1188.0" y="1944.0"/>
      <point x="752.0" y="2176.0" type="curve"/>
      <point x="456.0" y="1844.0" type="line"/>
      <point x="724.0" y="1668.0"/>
      <point x="848.0" y="1628.0"/>
      <point x="976.0" y="1400.0" type="curve"/>
      <point x="956.0" y="1400.0" type="line"/>
      <point x="876.0" y="1480.0"/>
      <point x="724.0" y="1444.0"/>
      <point x="632.0" y="1412.0" type="curve" smooth="yes"/>
      <point x="416.0" y="1336.0"/>
      <point x="140.0" y="1108.0"/>
      <point x="72.0" y="704.0" type="curve" smooth="yes"/>
      <point x="4.0" y="276.0"/>
      <point x="228.0" y="-32.0"/>
    </contour>
    <contour>
      <point x="752.0" y="380.0" type="curve" smooth="yes"/>
      <point x="636.0" y="380.0"/>
      <point x="552.0" y="444.0"/>
      <point x="596.0" y="708.0" type="curve" smooth="yes"/>
      <point x="636.0" y="972.0"/>
      <point x="740.0" y="1020.0"/>
      <point x="856.0" y="1020.0" type="curve" smooth="yes"/>
      <point x="964.0" y="1020.0"/>
      <point x="1064.0" y="992.0"/>
      <point x="1020.0" y="716.0" type="curve" smooth="yes"/>
      <point x="976.0" y="460.0"/>
      <point x="876.0" y="380.0"/>
    </contour>
  </outline>
</glyph>
<glyph name="divide" format="2">
  <advance width="1600.0"/>
  <unicode hex="00F7"/>
  <guideline x="640.0" y="896.0" angle="0.0"/>
  <outline>
    <contour>
      <point x="1528.0" y="1096.0" type="line"/>
      <point x="184.0" y="1096.0" type="line"/>
      <point x="116.0" y="692.0" type="line"/>
      <point x="1460.0" y="692.0" type="line"/>
    </contour>
    <contour>
      <point x="632.0" y="1464.0" type="curve" smooth="yes"/>
      <point x="608.0" y="1316.0"/>
      <point x="704.0" y="1212.0"/>
      <point x="872.0" y="1212.0" type="curve" smooth="yes"/>
      <point x="1040.0" y="1212.0"/>
      <point x="1176.0" y="1316.0"/>
      <point x="1200.0" y="1464.0" type="curve" smooth="yes"/>
      <point x="1224.0" y="1612.0"/>
      <point x="1124.0" y="1720.0"/>
      <point x="956.0" y="1720.0" type="curve" smooth="yes"/>
      <point x="788.0" y="1720.0"/>
      <point x="656.0" y="1612.0"/>
    </contour>
    <contour>
      <point x="440.0" y="320.0" type="curve" smooth="yes"/>
      <point x="416.0" y="168.0"/>
      <point x="520.0" y="68.0"/>
      <point x="684.0" y="68.0" type="curve" smooth="yes"/>
      <point x="852.0" y="68.0"/>
      <point x="984.0" y="172.0"/>
      <point x="1008.0" y="320.0" type="curve" smooth="yes"/>
      <point x="1032.0" y="464.0"/>
      <point x="936.0" y="572.0"/>
      <point x="768.0" y="572.0" type="curve" smooth="yes"/>
      <point x="600.0" y="572.0"/>
      <point x="464.0" y="464.0"/>
    </contour>
  </outline>
</glyph>
<glyph name="oslash" format="2">
  <advance width="1704.0"/>
  <unicode hex="00F8"/>
  <guideline x="988.0" y="768.0" angle="0.0"/>
  <guideline x="996.0" y="1444.0" angle="90.0"/>
  <guideline x="772.0" y="768.0" angle="56.0235"/>
  <guideline x="1672.0" y="1460.0" angle="325.5392"/>
  <outline>
    <contour>
      <point x="252.0" y="-108.0" type="line"/>
      <point x="1640.0" y="1480.0" type="line"/>
      <point x="1440.0" y="1632.0" type="line"/>
      <point x="52.0" y="44.0" type="line"/>
    </contour>
    <contour>
      <point x="720.0" y="-28.0" type="curve" smooth="yes"/>
      <point x="1204.0" y="-28.0"/>
      <point x="1544.0" y="312.0"/>
      <point x="1620.0" y="772.0" type="curve" smooth="yes"/>
      <point x="1696.0" y="1228.0"/>
      <point x="1468.0" y="1556.0"/>
      <point x="984.0" y="1556.0" type="curve" smooth="yes"/>
      <point x="500.0" y="1556.0"/>
      <point x="160.0" y="1228.0"/>
      <point x="84.0" y="772.0" type="curve" smooth="yes"/>
      <point x="8.0" y="312.0"/>
      <point x="236.0" y="-28.0"/>
    </contour>
    <contour>
      <point x="792.0" y="404.0" type="curve" smooth="yes"/>
      <point x="608.0" y="404.0"/>
      <point x="564.0" y="536.0"/>
      <point x="604.0" y="772.0" type="curve" smooth="yes"/>
      <point x="644.0" y="1004.0"/>
      <point x="728.0" y="1132.0"/>
      <point x="912.0" y="1132.0" type="curve" smooth="yes"/>
      <point x="1096.0" y="1132.0"/>
      <point x="1140.0" y="1008.0"/>
      <point x="1100.0" y="772.0" type="curve" smooth="yes"/>
      <point x="1060.0" y="536.0"/>
      <point x="976.0" y="404.0"/>
    </contour>
  </outline>
</glyph>
<glyph name="thorn" format="2">
  <advance width="1712.0"/>
  <unicode hex="00FE"/>
  <outline>
    <contour>
      <point x="340.0" y="2048.0" type="line"/>
      <point x="-96.0" y="-576.0" type="line"/>
      <point x="456.0" y="-576.0" type="line"/>
      <point x="604.0" y="312.0" type="line"/>
      <point x="464.0" y="728.0" type="line"/>
      <point x="772.0" y="1312.0" type="line"/>
      <point x="892.0" y="2048.0" type="line"/>
    </contour>
    <contour>
      <point x="564.0" y="1404.0" type="line"/>
      <point x="352.0" y="124.0" type="line"/>
      <point x="588.0" y="124.0" type="line"/>
      <point x="624.0" y="-4.0"/>
      <point x="764.0" y="-20.0"/>
      <point x="892.0" y="-20.0" type="curve" smooth="yes"/>
      <point x="1212.0" y="-20.0"/>
      <point x="1540.0" y="232.0"/>
      <point x="1628.0" y="768.0" type="curve" smooth="yes"/>
      <point x="1720.0" y="1324.0"/>
      <point x="1456.0" y="1556.0"/>
      <point x="1160.0" y="1556.0" type="curve" smooth="yes"/>
      <point x="1020.0" y="1556.0"/>
      <point x="872.0" y="1528.0"/>
      <point x="800.0" y="1404.0" type="curve"/>
    </contour>
    <contour>
      <point x="1112.0" y="768.0" type="curve" smooth="yes"/>
      <point x="1072.0" y="524.0"/>
      <point x="964.0" y="404.0"/>
      <point x="788.0" y="404.0" type="curve" smooth="yes"/>
      <point x="584.0" y="404.0"/>
      <point x="580.0" y="584.0"/>
      <point x="612.0" y="768.0" type="curve" smooth="yes"/>
      <point x="644.0" y="960.0"/>
      <point x="712.0" y="1132.0"/>
      <point x="908.0" y="1132.0" type="curve" smooth="yes"/>
      <point x="1084.0" y="1132.0"/>
      <point x="1152.0" y="1012.0"/>
    </contour>
  </outline>
</glyph>
<glyph name="Hbar" format="2">
  <advance width="1936.0"/>
  <unicode hex="0126"/>
  <outline>
    <contour>
      <point x="2220.0" y="1744.0" type="line"/>
      <point x="136.0" y="1744.0" type="line"/>
      <point x="92.0" y="1480.0" type="line"/>
      <point x="2176.0" y="1480.0" type="line"/>
    </contour>
    <component base="H" xOffset="12.0"/>
  </outline>
</glyph>
<glyph name="idotless" format="2">
  <advance width="888.0"/>
  <unicode hex="0131"/>
  <guideline x="648.0" y="1504.0" angle="90.0"/>
  <outline>
    <contour>
      <point x="40.0" y="0.0" type="line"/>
      <point x="592.0" y="0.0" type="line"/>
      <point x="848.0" y="1536.0" type="line"/>
      <point x="296.0" y="1536.0" type="line"/>
    </contour>
  </outline>
</glyph>
<glyph name="kgreenlandic" format="2">
  <advance width="1932.0"/>
  <unicode hex="0138"/>
  <outline>
    <contour>
      <point x="800.0" y="1488.0" type="line"/>
      <point x="280.0" y="1488.0" type="line"/>
      <point x="32.0" y="0.0" type="line"/>
      <point x="552.0" y="0.0" type="line"/>
    </contour>
    <contour>
      <point x="1884.0" y="1488.0" type="line"/>
      <point x="1220.0" y="1488.0" type="line"/>
      <point x="848.0" y="988.0" type="line"/>
      <point x="600.0" y="988.0" type="line"/>
      <point x="572.0" y="476.0" type="line"/>
      <point x="1040.0" y="476.0" type="line"/>
    </contour>
    <contour>
      <point x="980.0" y="0.0" type="line"/>
      <point x="1644.0" y="0.0" type="line"/>
      <point x="1300.0" y="776.0" type="line"/>
      <point x="780.0" y="584.0" type="line"/>
    </contour>
  </outline>
</glyph>
<glyph name="L_slash" format="2">
  <advance width="1684.0"/>
  <unicode hex="0141"/>
  <outline>
    <contour>
      <point x="1124.0" y="1352.0" type="line"/>
      <point x="76.0" y="1092.0" type="line"/>
      <point x="32.0" y="820.0" type="line"/>
      <point x="1080.0" y="1076.0" type="line"/>
    </contour>
    <component base="L" xOffset="140.0"/>
  </outline>
</glyph>
<glyph name="Lslash" format="2">
  <advance width="1692.0"/>
  <unicode hex="0141"/>
  <outline>
    <contour>
      <point x="1128.0" y="1352.0" type="line"/>
      <point x="80.0" y="1092.0" type="line"/>
      <point x="36.0" y="820.0" type="line"/>
      <point x="1084.0" y="1076.0" type="line"/>
    </contour>
    <component base="L" xOffset="144.0"/>
  </outline>
</glyph>
<glyph name="lslash" format="2">
  <advance width="812.0"/>
  <unicode hex="0142"/>
  <outline>
    <contour>
      <point x="948.0" y="1368.0" type="line"/>
      <point x="8.0" y="1108.0" type="line"/>
      <point x="-36.0" y="832.0" type="line"/>
      <point x="900.0" y="1092.0" type="line"/>
    </contour>
    <contour>
      <point x="892.0" y="2048.0" type="line"/>
      <point x="340.0" y="2048.0" type="line"/>
      <point x="0.0" y="0.0" type="line"/>
      <point x="552.0" y="0.0" type="line"/>
    </contour>
  </outline>
</glyph>
<glyph name="Eng" format="2">
  <advance width="1952.0"/>
  <unicode hex="014A"/>
  <outline>
    <contour>
      <point x="1248.0" y="160.0" type="line"/>
      <point x="1224.0" y="8.0" type="line" smooth="yes"/>
      <point x="1196.0" y="-148.0"/>
      <point x="1024.0" y="-180.0"/>
      <point x="900.0" y="-180.0" type="curve" smooth="yes"/>
      <point x="860.0" y="-180.0"/>
      <point x="792.0" y="-180.0"/>
      <point x="756.0" y="-176.0" type="curve"/>
      <point x="684.0" y="-616.0" type="line"/>
      <point x="768.0" y="-628.0"/>
      <point x="856.0" y="-628.0"/>
      <point x="928.0" y="-628.0" type="curve" smooth="yes"/>
      <point x="1324.0" y="-628.0"/>
      <point x="1692.0" y="-432.0"/>
      <point x="1768.0" y="20.0" type="curve" smooth="yes"/>
      <point x="1792.0" y="160.0" type="line"/>
    </contour>
    <component base="N" yOffset="4.0"/>
  </outline>
</glyph>
<glyph name="eng" format="2">
  <advance width="1744.0"/>
  <unicode hex="014B"/>
  <outline>
    <contour>
      <point x="964.0" y="164.0" type="line"/>
      <point x="944.0" y="36.0" type="line" smooth="yes"/>
      <point x="920.0" y="-92.0"/>
      <point x="856.0" y="-164.0"/>
      <point x="752.0" y="-164.0" type="curve" smooth="yes"/>
      <point x="688.0" y="-164.0"/>
      <point x="644.0" y="-156.0"/>
      <point x="596.0" y="-144.0" type="curve"/>
      <point x="476.0" y="-588.0" type="line"/>
      <point x="564.0" y="-604.0"/>
      <point x="648.0" y="-608.0"/>
      <point x="740.0" y="-608.0" type="curve" smooth="yes"/>
      <point x="1136.0" y="-608.0"/>
      <point x="1424.0" y="-384.0"/>
      <point x="1496.0" y="36.0" type="curve" smooth="yes"/>
      <point x="1516.0" y="164.0" type="line"/>
    </contour>
    <contour>
      <point x="680.0" y="780.0" type="line" smooth="yes"/>
      <point x="708.0" y="940.0"/>
      <point x="740.0" y="1136.0"/>
      <point x="928.0" y="1136.0" type="curve" smooth="yes"/>
      <point x="1036.0" y="1136.0"/>
      <point x="1116.0" y="1076.0"/>
      <point x="1092.0" y="936.0" type="curve" smooth="yes"/>
      <point x="936.0" y="0.0" type="line"/>
      <point x="1488.0" y="0.0" type="line"/>
      <point x="1648.0" y="952.0" type="line" smooth="yes"/>
      <point x="1724.0" y="1416.0"/>
      <point x="1464.0" y="1556.0"/>
      <point x="1200.0" y="1556.0" type="curve" smooth="yes"/>
      <point x="1024.0" y="1556.0"/>
      <point x="860.0" y="1500.0"/>
      <point x="756.0" y="1412.0" type="curve"/>
      <point x="740.0" y="1412.0" type="line"/>
      <point x="760.0" y="1536.0" type="line"/>
      <point x="256.0" y="1536.0" type="line"/>
      <point x="0.0" y="0.0" type="line"/>
      <point x="552.0" y="0.0" type="line"/>
    </contour>
  </outline>
</glyph>
<glyph name="OE" format="2">
  <advance width="2976.0"/>
  <unicode hex="0152"/>
  <outline>
    <contour>
      <point x="944.0" y="0.0" type="curve"/>
      <point x="1448.0" y="0.0" type="line"/>
      <point x="1524.0" y="448.0" type="line"/>
      <point x="1020.0" y="448.0" type="line"/>
      <point x="799.0" y="448.0"/>
      <point x="655.0" y="568.0"/>
      <point x="728.0" y="1020.0" type="curve"/>
      <point x="803.0" y="1468.0"/>
      <point x="987.0" y="1600.0"/>
      <point x="1208.0" y="1600.0" type="curve"/>
      <point x="1712.0" y="1600.0" type="line"/>
      <point x="1788.0" y="2048.0" type="line"/>
      <point x="1284.0" y="2048.0" type="line"/>
      <point x="755.0" y="2048.0"/>
      <point x="279.0" y="1720.0"/>
      <point x="164.0" y="1020.0" type="curve"/>
      <point x="51.0" y="324.0"/>
      <point x="415.0" y="0.0"/>
    </contour>
    <component base="E" xOffset="1236.0"/>
  </outline>
</glyph>
<glyph name="longs" format="2">
  <advance width="856.0"/>
  <unicode hex="017F"/>
  <outline>
    <contour>
      <point x="380.0" y="0.0" type="line"/>
      <point x="644.0" y="1596.0" type="line"/>
      <point x="660.0" y="1688.0"/>
      <point x="732.0" y="1728.0"/>
      <point x="848.0" y="1728.0" type="curve" smooth="yes"/>
      <point x="920.0" y="1728.0"/>
      <point x="948.0" y="1724.0"/>
      <point x="992.0" y="1716.0" type="curve"/>
      <point x="1092.0" y="2112.0" type="line"/>
      <point x="1008.0" y="2128.0"/>
      <point x="932.0" y="2140.0"/>
      <point x="852.0" y="2140.0" type="curve" smooth="yes"/>
      <point x="448.0" y="2140.0"/>
      <point x="184.0" y="1952.0"/>
      <point x="124.0" y="1596.0" type="curve"/>
      <point x="-140.0" y="0.0" type="line"/>
    </contour>
  </outline>
</glyph>
<glyph name="Bhook" format="2">
  <advance width="2560.0"/>
  <unicode hex="0181"/>
  <outline>
    <contour>
      <point x="1284.0" y="1604.0" type="line"/>
      <point x="1356.0" y="2048.0" type="line"/>
      <point x="992.0" y="2048.0" type="line" smooth="yes"/>
      <point x="561.0" y="2048.0"/>
      <point x="249.0" y="1828.0"/>
      <point x="188.0" y="1440.0" type="curve" smooth="yes"/>
      <point x="148.0" y="1196.0" type="line"/>
      <point x="636.0" y="1196.0" type="line"/>
      <point x="660.0" y="1344.0" type="line" smooth="yes"/>
      <point x="677.0" y="1464.0"/>
      <point x="749.0" y="1604.0"/>
      <point x="920.0" y="1604.0" type="curve" smooth="yes"/>
    </contour>
    <component base="B" xOffset="680.0"/>
  </outline>
</glyph>
<glyph name="Btopbar" format="2">
  <advance width="1848.0"/>
  <unicode hex="0182"/>
  <outline>
    <contour>
      <point x="4.0" y="0.0" type="line"/>
      <point x="768.0" y="0.0" type="line" smooth="yes"/>
      <point x="1285.0" y="0.0"/>
      <point x="1675.0" y="280.0"/>
      <point x="1744.0" y="688.0" type="curve" smooth="yes"/>
      <point x="1810.0" y="1096.0"/>
      <point x="1510.0" y="1360.0"/>
      <point x="996.0" y="1360.0" type="curve" smooth="yes"/>
      <point x="788.0" y="1360.0" type="line"/>
      <point x="824.0" y="1600.0" type="line"/>
      <point x="1708.0" y="1600.0" type="line"/>
      <point x="1784.0" y="2048.0" type="line"/>
      <point x="344.0" y="2048.0" type="line"/>
    </contour>
    <contour>
      <point x="632.0" y="436.0" type="line"/>
      <point x="716.0" y="936.0" type="line"/>
      <point x="924.0" y="936.0" type="line" smooth="yes"/>
      <point x="1124.0" y="936.0"/>
      <point x="1215.0" y="832.0"/>
      <point x="1192.0" y="692.0" type="curve" smooth="yes"/>
      <point x="1167.0" y="544.0"/>
      <point x="1041.0" y="436.0"/>
      <point x="840.0" y="436.0" type="curve" smooth="yes"/>
    </contour>
  </outline>
</glyph>
<glyph name="btopbar" format="2">
  <advance width="1948.0"/>
  <unicode hex="0183"/>
  <outline>
    <contour>
      <point x="1576.0" y="2048.0" type="line"/>
      <point x="672.0" y="2048.0" type="line"/>
      <point x="600.0" y="1604.0" type="line"/>
      <point x="1504.0" y="1604.0" type="line"/>
    </contour>
    <contour>
      <point x="564.0" y="1404.0" type="line"/>
      <point x="352.0" y="124.0" type="line"/>
      <point x="588.0" y="124.0" type="line"/>
      <point x="624.0" y="-4.0"/>
      <point x="764.0" y="-20.0"/>
      <point x="892.0" y="-20.0" type="curve" smooth="yes"/>
      <point x="1212.0" y="-20.0"/>
      <point x="1540.0" y="232.0"/>
      <point x="1628.0" y="768.0" type="curve" smooth="yes"/>
      <point x="1720.0" y="1324.0"/>
      <point x="1456.0" y="1556.0"/>
      <point x="1160.0" y="1556.0" type="curve" smooth="yes"/>
      <point x="1020.0" y="1556.0"/>
      <point x="872.0" y="1528.0"/>
      <point x="800.0" y="1404.0" type="curve"/>
    </contour>
    <contour>
      <point x="1112.0" y="768.0" type="curve" smooth="yes"/>
      <point x="1072.0" y="524.0"/>
      <point x="964.0" y="404.0"/>
      <point x="788.0" y="404.0" type="curve" smooth="yes"/>
      <point x="584.0" y="404.0"/>
      <point x="580.0" y="584.0"/>
      <point x="612.0" y="768.0" type="curve" smooth="yes"/>
      <point x="644.0" y="960.0"/>
      <point x="712.0" y="1132.0"/>
      <point x="908.0" y="1132.0" type="curve" smooth="yes"/>
      <point x="1084.0" y="1132.0"/>
      <point x="1152.0" y="1012.0"/>
    </contour>
    <contour>
      <point x="340.0" y="2048.0" type="line"/>
      <point x="0.0" y="0.0" type="line"/>
      <point x="548.0" y="0.0" type="line"/>
      <point x="600.0" y="312.0" type="line"/>
      <point x="468.0" y="728.0" type="line"/>
      <point x="772.0" y="1312.0" type="line"/>
      <point x="892.0" y="2048.0" type="line"/>
    </contour>
  </outline>
</glyph>
<glyph name="Tonesix" format="2">
  <advance width="2320.0"/>
  <unicode hex="0184"/>
  <outline>
    <contour>
      <point x="1188.0" y="2048.0" type="line"/>
      <point x="248.0" y="2048.0" type="line"/>
      <point x="172.0" y="1600.0" type="line"/>
      <point x="1112.0" y="1600.0" type="line"/>
    </contour>
    <contour>
      <point x="980.0" y="1360.0" type="line"/>
      <point x="908.0" y="936.0" type="line"/>
      <point x="1332.0" y="936.0" type="line"/>
      <point x="1532.0" y="936.0"/>
      <point x="1624.0" y="832.0"/>
      <point x="1600.0" y="692.0" type="curve"/>
      <point x="1576.0" y="544.0"/>
      <point x="1448.0" y="436.0"/>
      <point x="1248.0" y="436.0" type="curve"/>
      <point x="1040.0" y="436.0" type="line"/>
      <point x="1308.0" y="2048.0" type="line"/>
      <point x="752.0" y="2048.0" type="line"/>
      <point x="412.0" y="0.0" type="line"/>
      <point x="1176.0" y="0.0" type="line"/>
      <point x="1692.0" y="0.0"/>
      <point x="2084.0" y="280.0"/>
      <point x="2152.0" y="688.0" type="curve"/>
      <point x="2220.0" y="1096.0"/>
      <point x="1920.0" y="1360.0"/>
      <point x="1404.0" y="1360.0" type="curve"/>
    </contour>
  </outline>
</glyph>
<glyph name="tonesix" format="2">
  <advance width="1932.0"/>
  <unicode hex="0185"/>
  <outline>
    <contour>
      <point x="612.0" y="2112.0" type="line"/>
      <point x="288.0" y="1904.0" type="line"/>
      <point x="244.0" y="1640.0" type="line"/>
      <point x="500.0" y="1440.0" type="line"/>
      <point x="576.0" y="1440.0" type="line"/>
      <point x="688.0" y="2112.0" type="line"/>
    </contour>
    <contour>
      <point x="804.0" y="1404.0" type="line"/>
      <point x="592.0" y="124.0" type="line"/>
      <point x="828.0" y="124.0" type="line"/>
      <point x="860.0" y="0.0"/>
      <point x="992.0" y="-20.0"/>
      <point x="1132.0" y="-20.0" type="curve" smooth="yes"/>
      <point x="1452.0" y="-20.0"/>
      <point x="1780.0" y="232.0"/>
      <point x="1868.0" y="768.0" type="curve" smooth="yes"/>
      <point x="1960.0" y="1324.0"/>
      <point x="1696.0" y="1556.0"/>
      <point x="1396.0" y="1556.0" type="curve" smooth="yes"/>
      <point x="1288.0" y="1556.0"/>
      <point x="1120.0" y="1540.0"/>
      <point x="1040.0" y="1404.0" type="curve"/>
    </contour>
    <contour>
      <point x="1352.0" y="768.0" type="curve" smooth="yes"/>
      <point x="1312.0" y="528.0"/>
      <point x="1204.0" y="404.0"/>
      <point x="1028.0" y="404.0" type="curve" smooth="yes"/>
      <point x="824.0" y="404.0"/>
      <point x="820.0" y="584.0"/>
      <point x="852.0" y="768.0" type="curve" smooth="yes"/>
      <point x="884.0" y="956.0"/>
      <point x="948.0" y="1132.0"/>
      <point x="1148.0" y="1132.0" type="curve" smooth="yes"/>
      <point x="1324.0" y="1132.0"/>
      <point x="1392.0" y="1008.0"/>
    </contour>
    <contour>
      <point x="580.0" y="2048.0" type="line"/>
      <point x="240.0" y="0.0" type="line"/>
      <point x="788.0" y="0.0" type="line"/>
      <point x="840.0" y="312.0" type="line"/>
      <point x="708.0" y="728.0" type="line"/>
      <point x="1012.0" y="1312.0" type="line"/>
      <point x="1132.0" y="2048.0" type="line"/>
    </contour>
  </outline>
</glyph>
<glyph name="Oopen" format="2">
  <advance width="2236.0"/>
  <unicode hex="0186"/>
  <outline>
    <contour>
      <point x="284.0" y="1280.0" type="curve"/>
      <point x="840.0" y="1280.0" type="line"/>
      <point x="886.0" y="1468.0"/>
      <point x="1019.0" y="1592.0"/>
      <point x="1220.0" y="1592.0" type="curve" smooth="yes"/>
      <point x="1511.0" y="1592.0"/>
      <point x="1644.0" y="1364.0"/>
      <point x="1580.0" y="992.0" type="curve"/>
      <point x="1521.0" y="632.0"/>
      <point x="1347.0" y="456.0"/>
      <point x="1096.0" y="456.0" type="curve" smooth="yes"/>
      <point x="875.0" y="456.0"/>
      <point x="752.0" y="568.0"/>
      <point x="752.0" y="740.0" type="curve"/>
      <point x="192.0" y="740.0" type="line"/>
      <point x="162.0" y="392.0"/>
      <point x="383.0" y="-28.0"/>
      <point x="968.0" y="-28.0" type="curve" smooth="yes"/>
      <point x="1547.0" y="-28.0"/>
      <point x="2047.0" y="360.0"/>
      <point x="2160.0" y="1056.0" type="curve"/>
      <point x="2272.0" y="1728.0"/>
      <point x="1911.0" y="2076.0"/>
      <point x="1376.0" y="2076.0" type="curve" smooth="yes"/>
      <point x="843.0" y="2076.0"/>
      <point x="412.0" y="1788.0"/>
    </contour>
  </outline>
</glyph>
<glyph name="Chook" format="2">
  <advance width="2232.0"/>
  <unicode hex="0187"/>
  <guideline x="-1824.0"/>
  <outline>
    <contour>
      <point x="2056.0" y="1312.0" type="line"/>
      <point x="2072.0" y="1428.0" type="line" smooth="yes"/>
      <point x="2108.0" y="1644.0"/>
      <point x="2304.0" y="1716.0"/>
      <point x="2432.0" y="1716.0" type="curve"/>
      <point x="2468.0" y="1716.0"/>
      <point x="2544.0" y="1712.0"/>
      <point x="2584.0" y="1712.0" type="curve"/>
      <point x="2656.0" y="2152.0" type="line"/>
      <point x="2564.0" y="2164.0"/>
      <point x="2496.0" y="2164.0"/>
      <point x="2412.0" y="2164.0" type="curve" smooth="yes"/>
      <point x="2016.0" y="2164.0"/>
      <point x="1624.0" y="1940.0"/>
      <point x="1552.0" y="1520.0" type="curve" smooth="yes"/>
      <point x="1520.0" y="1312.0" type="line"/>
    </contour>
    <component base="C"/>
  </outline>
</glyph>
<glyph name="chook" format="2">
  <advance width="1756.0"/>
  <unicode hex="0188"/>
  <outline>
    <contour>
      <point x="1636.0" y="1016.0" type="line"/>
      <point x="1660.0" y="1148.0" type="line" smooth="yes"/>
      <point x="1680.0" y="1276.0"/>
      <point x="1724.0" y="1332.0"/>
      <point x="1840.0" y="1332.0" type="curve" smooth="yes"/>
      <point x="1884.0" y="1332.0"/>
      <point x="1920.0" y="1324.0"/>
      <point x="1964.0" y="1320.0" type="curve"/>
      <point x="2020.0" y="1652.0" type="line"/>
      <point x="1944.0" y="1672.0"/>
      <point x="1884.0" y="1684.0"/>
      <point x="1820.0" y="1684.0" type="curve" smooth="yes"/>
      <point x="1492.0" y="1684.0"/>
      <point x="1216.0" y="1492.0"/>
      <point x="1160.0" y="1152.0" type="curve" smooth="yes"/>
      <point x="1120.0" y="904.0" type="line"/>
    </contour>
    <component base="c"/>
  </outline>
</glyph>
<glyph name="Dhook" format="2">
  <advance width="2492.0"/>
  <unicode hex="018A"/>
  <outline>
    <contour>
      <point x="1220.0" y="1576.0" type="line"/>
      <point x="1300.0" y="2048.0" type="line"/>
      <point x="936.0" y="2048.0" type="line" smooth="yes"/>
      <point x="508.0" y="2048.0"/>
      <point x="196.0" y="1828.0"/>
      <point x="132.0" y="1440.0" type="curve" smooth="yes"/>
      <point x="92.0" y="1196.0" type="line"/>
      <point x="580.0" y="1196.0" type="line"/>
      <point x="604.0" y="1344.0" type="line" smooth="yes"/>
      <point x="624.0" y="1464.0"/>
      <point x="688.0" y="1576.0"/>
      <point x="856.0" y="1576.0" type="curve" smooth="yes"/>
    </contour>
    <component base="D" xOffset="628.0"/>
  </outline>
</glyph>
<glyph name="Dtopbar" format="2">
  <advance width="1932.0"/>
  <unicode hex="018B"/>
  <outline>
    <contour>
      <point x="1652.0" y="0.0" type="line"/>
      <point x="1996.0" y="2064.0" type="line"/>
      <point x="556.0" y="2064.0" type="line"/>
      <point x="484.0" y="1628.0" type="line"/>
      <point x="1388.0" y="1628.0" type="line"/>
      <point x="1344.0" y="1360.0" type="line"/>
      <point x="1116.0" y="1360.0" type="line" smooth="yes"/>
      <point x="600.0" y="1360.0"/>
      <point x="208.0" y="1092.0"/>
      <point x="144.0" y="688.0" type="curve" smooth="yes"/>
      <point x="76.0" y="284.0"/>
      <point x="372.0" y="0.0"/>
      <point x="888.0" y="0.0" type="curve" smooth="yes"/>
    </contour>
    <contour>
      <point x="1188.0" y="428.0" type="line"/>
      <point x="960.0" y="428.0" type="line" smooth="yes"/>
      <point x="756.0" y="428.0"/>
      <point x="656.0" y="544.0"/>
      <point x="680.0" y="692.0" type="curve" smooth="yes"/>
      <point x="704.0" y="832.0"/>
      <point x="840.0" y="936.0"/>
      <point x="1044.0" y="936.0" type="curve" smooth="yes"/>
      <point x="1272.0" y="936.0" type="line"/>
    </contour>
  </outline>
</glyph>
<glyph name="dtopbar" format="2">
  <advance width="1608.0"/>
  <unicode hex="018C"/>
  <outline>
    <contour>
      <point x="1436.0" y="2048.0" type="line"/>
      <point x="528.0" y="2048.0" type="line"/>
      <point x="456.0" y="1604.0" type="line"/>
      <point x="1364.0" y="1604.0" type="line"/>
    </contour>
    <contour>
      <point x="1476.0" y="0.0" type="line"/>
      <point x="1816.0" y="2048.0" type="line"/>
      <point x="1264.0" y="2048.0" type="line"/>
      <point x="1140.0" y="1296.0" type="line"/>
      <point x="1232.0" y="724.0" type="line"/>
      <point x="976.0" y="292.0" type="line"/>
      <point x="928.0" y="0.0" type="line"/>
    </contour>
    <contour>
      <point x="1376.0" y="1404.0" type="line"/>
      <point x="1140.0" y="1404.0" type="line"/>
      <point x="1110.0" y="1536.0"/>
      <point x="958.0" y="1556.0"/>
      <point x="836.0" y="1556.0" type="curve" smooth="yes"/>
      <point x="542.0" y="1556.0"/>
      <point x="198.0" y="1324.0"/>
      <point x="104.0" y="768.0" type="curve" smooth="yes"/>
      <point x="18.0" y="232.0"/>
      <point x="258.0" y="-20.0"/>
      <point x="576.0" y="-20.0" type="curve" smooth="yes"/>
      <point x="702.0" y="-20.0"/>
      <point x="854.0" y="-4.0"/>
      <point x="928.0" y="124.0" type="curve"/>
      <point x="1164.0" y="124.0" type="line"/>
    </contour>
    <contour>
      <point x="620.0" y="768.0" type="curve" smooth="yes"/>
      <point x="662.0" y="1012.0"/>
      <point x="770.0" y="1132.0"/>
      <point x="944.0" y="1132.0" type="curve" smooth="yes"/>
      <point x="1142.0" y="1132.0"/>
      <point x="1154.0" y="960.0"/>
      <point x="1120.0" y="768.0" type="curve" smooth="yes"/>
      <point x="1090.0" y="584.0"/>
      <point x="1030.0" y="404.0"/>
      <point x="824.0" y="404.0" type="curve" smooth="yes"/>
      <point x="650.0" y="404.0"/>
      <point x="582.0" y="524.0"/>
    </contour>
  </outline>
</glyph>
<glyph name="deltaturn" format="2">
  <advance width="2012.0"/>
  <unicode hex="018D"/>
  <outline>
    <contour>
      <point x="1392.0" y="-516.0" type="line"/>
      <point x="1432.0" y="-264.0" type="line"/>
      <point x="1376.0" y="-200.0"/>
      <point x="1180.0" y="40.0"/>
      <point x="1088.0" y="116.0" type="curve"/>
      <point x="1108.0" y="116.0"/>
      <point x="1140.0" y="116.0"/>
      <point x="1140.0" y="116.0" type="curve" smooth="yes"/>
      <point x="1416.0" y="168.0"/>
      <point x="1716.0" y="428.0"/>
      <point x="1784.0" y="836.0" type="curve" smooth="yes"/>
      <point x="1788.0" y="864.0" type="line" smooth="yes"/>
      <point x="1852.0" y="1240.0"/>
      <point x="1624.0" y="1516.0"/>
      <point x="1132.0" y="1516.0" type="curve" smooth="yes"/>
      <point x="636.0" y="1516.0"/>
      <point x="316.0" y="1204.0"/>
      <point x="248.0" y="784.0" type="curve" smooth="yes"/>
      <point x="244.0" y="756.0" type="line" smooth="yes"/>
      <point x="196.0" y="468.0"/>
      <point x="344.0" y="232.0"/>
      <point x="580.0" y="32.0" type="curve" smooth="yes"/>
      <point x="692.0" y="-64.0"/>
      <point x="752.0" y="-76.0"/>
      <point x="796.0" y="-104.0" type="curve"/>
      <point x="240.0" y="-104.0" type="line"/>
      <point x="172.0" y="-516.0" type="line"/>
    </contour>
    <contour>
      <point x="1256.0" y="756.0" type="line"/>
      <point x="1216.0" y="532.0"/>
      <point x="1132.0" y="360.0"/>
      <point x="944.0" y="360.0" type="curve" smooth="yes"/>
      <point x="928.0" y="360.0"/>
      <point x="912.0" y="360.0"/>
      <point x="896.0" y="368.0" type="curve"/>
      <point x="796.0" y="424.0"/>
      <point x="724.0" y="556.0"/>
      <point x="760.0" y="756.0" type="curve" smooth="yes"/>
      <point x="764.0" y="784.0" type="line" smooth="yes"/>
      <point x="792.0" y="952.0"/>
      <point x="860.0" y="1104.0"/>
      <point x="1064.0" y="1104.0" type="curve" smooth="yes"/>
      <point x="1284.0" y="1104.0"/>
      <point x="1284.0" y="928.0"/>
      <point x="1260.0" y="784.0" type="curve" smooth="yes"/>
    </contour>
  </outline>
</glyph>
<glyph name="Schwa" format="2">
  <advance width="2232.0"/>
  <unicode hex="018F"/>
  <outline>
    <contour>
      <point x="992.0" y="-28.0" type="curve" smooth="yes"/>
      <point x="1517.0" y="-28.0"/>
      <point x="1973.0" y="336.0"/>
      <point x="2060.0" y="856.0" type="curve" smooth="yes"/>
      <point x="2104.0" y="1140.0" type="line" smooth="yes"/>
      <point x="2193.0" y="1660.0"/>
      <point x="1901.0" y="2032.0"/>
      <point x="1224.0" y="2032.0" type="curve" smooth="yes"/>
      <point x="929.0" y="2032.0"/>
      <point x="573.0" y="1968.0"/>
      <point x="508.0" y="1944.0" type="curve"/>
      <point x="504.0" y="1484.0" type="line"/>
      <point x="625.0" y="1512.0"/>
      <point x="841.0" y="1548.0"/>
      <point x="1108.0" y="1548.0" type="curve" smooth="yes"/>
      <point x="1521.0" y="1548.0"/>
      <point x="1609.0" y="1360.0"/>
      <point x="1568.0" y="1140.0" type="curve" smooth="yes"/>
      <point x="1524.0" y="856.0" type="line" smooth="yes"/>
      <point x="1485.0" y="632.0"/>
      <point x="1333.0" y="452.0"/>
      <point x="1072.0" y="452.0" type="curve" smooth="yes"/>
      <point x="789.0" y="452.0"/>
      <point x="693.0" y="568.0"/>
      <point x="716.0" y="720.0" type="curve" smooth="yes"/>
      <point x="724.0" y="760.0" type="line"/>
      <point x="1628.0" y="760.0" type="line"/>
      <point x="1700.0" y="1204.0" type="line"/>
      <point x="260.0" y="1204.0" type="line"/>
      <point x="216.0" y="932.0" type="line" smooth="yes"/>
      <point x="117.0" y="344.0"/>
      <point x="385.0" y="-28.0"/>
    </contour>
  </outline>
</glyph>
<glyph name="Epsilon1" format="2">
  <advance width="1932.0"/>
  <unicode hex="0190"/>
  <outline>
    <contour>
      <point x="1260.0" y="960.0" type="line"/>
      <point x="1304.0" y="1224.0" type="line"/>
      <point x="1036.0" y="1224.0" type="line" smooth="yes"/>
      <point x="876.0" y="1224.0"/>
      <point x="796.0" y="1284.0"/>
      <point x="824.0" y="1440.0" type="curve" smooth="yes"/>
      <point x="840.0" y="1536.0"/>
      <point x="932.0" y="1600.0"/>
      <point x="1116.0" y="1600.0" type="curve" smooth="yes"/>
      <point x="1260.0" y="1600.0"/>
      <point x="1356.0" y="1568.0"/>
      <point x="1336.0" y="1452.0" type="curve"/>
      <point x="1872.0" y="1452.0" type="line"/>
      <point x="1932.0" y="1812.0"/>
      <point x="1608.0" y="2032.0"/>
      <point x="1188.0" y="2032.0" type="curve" smooth="yes"/>
      <point x="708.0" y="2032.0"/>
      <point x="348.0" y="1832.0"/>
      <point x="288.0" y="1460.0" type="curve" smooth="yes"/>
      <point x="236.0" y="1160.0"/>
      <point x="508.0" y="960.0"/>
      <point x="892.0" y="960.0" type="curve"/>
    </contour>
    <contour>
      <point x="912.0" y="1080.0" type="line"/>
      <point x="468.0" y="1080.0"/>
      <point x="160.0" y="896.0"/>
      <point x="104.0" y="560.0" type="curve" smooth="yes"/>
      <point x="40.0" y="164.0"/>
      <point x="348.0" y="-28.0"/>
      <point x="848.0" y="-28.0" type="curve" smooth="yes"/>
      <point x="1240.0" y="-28.0"/>
      <point x="1688.0" y="148.0"/>
      <point x="1756.0" y="556.0" type="curve"/>
      <point x="1216.0" y="556.0" type="line"/>
      <point x="1200.0" y="456.0"/>
      <point x="1092.0" y="400.0"/>
      <point x="920.0" y="400.0" type="curve" smooth="yes"/>
      <point x="752.0" y="400.0"/>
      <point x="628.0" y="444.0"/>
      <point x="648.0" y="580.0" type="curve" smooth="yes"/>
      <point x="680.0" y="776.0"/>
      <point x="800.0" y="820.0"/>
      <point x="968.0" y="820.0" type="curve" smooth="yes"/>
      <point x="1236.0" y="820.0" type="line"/>
      <point x="1280.0" y="1080.0" type="line"/>
    </contour>
  </outline>
</glyph>
<glyph name="Fhook" format="2">
  <advance width="1656.0"/>
  <unicode hex="0191"/>
  <outline>
    <contour>
      <point x="32.0" y="244.0" type="line"/>
      <point x="-16.0" y="-48.0" type="line" smooth="yes"/>
      <point x="-32.0" y="-140.0"/>
      <point x="-140.0" y="-160.0"/>
      <point x="-240.0" y="-160.0" type="curve"/>
      <point x="-264.0" y="-160.0"/>
      <point x="-308.0" y="-164.0"/>
      <point x="-332.0" y="-160.0" type="curve"/>
      <point x="-400.0" y="-568.0" type="line"/>
      <point x="-348.0" y="-576.0"/>
      <point x="-220.0" y="-576.0"/>
      <point x="-164.0" y="-576.0" type="curve"/>
      <point x="124.0" y="-576.0"/>
      <point x="460.0" y="-532.0"/>
      <point x="540.0" y="-48.0" type="curve" smooth="yes"/>
      <point x="588.0" y="244.0" type="line"/>
    </contour>
    <component base="F"/>
  </outline>
</glyph>
<glyph name="florin" format="2">
  <advance width="1452.0"/>
  <unicode hex="0192"/>
  <outline>
    <contour>
      <point x="1384.0" y="1488.0" type="line"/>
      <point x="1072.0" y="1488.0" type="line"/>
      <point x="1088.0" y="1596.0" type="line" smooth="yes"/>
      <point x="1104.0" y="1688.0"/>
      <point x="1184.0" y="1736.0"/>
      <point x="1292.0" y="1736.0" type="curve" smooth="yes"/>
      <point x="1368.0" y="1736.0"/>
      <point x="1404.0" y="1732.0"/>
      <point x="1448.0" y="1724.0" type="curve"/>
      <point x="1540.0" y="2116.0" type="line"/>
      <point x="1460.0" y="2128.0"/>
      <point x="1396.0" y="2140.0"/>
      <point x="1304.0" y="2140.0" type="curve" smooth="yes"/>
      <point x="892.0" y="2140.0"/>
      <point x="624.0" y="1952.0"/>
      <point x="564.0" y="1596.0" type="curve" smooth="yes"/>
      <point x="548.0" y="1488.0" type="line"/>
      <point x="328.0" y="1488.0" type="line"/>
      <point x="268.0" y="1120.0" type="line"/>
      <point x="488.0" y="1120.0" type="line"/>
      <point x="300.0" y="-16.0" type="line" smooth="yes"/>
      <point x="280.0" y="-120.0"/>
      <point x="260.0" y="-188.0"/>
      <point x="124.0" y="-188.0" type="curve" smooth="yes"/>
      <point x="80.0" y="-188.0"/>
      <point x="32.0" y="-180.0"/>
      <point x="0.0" y="-172.0" type="curve"/>
      <point x="-88.0" y="-580.0" type="line"/>
      <point x="0.0" y="-596.0"/>
      <point x="68.0" y="-600.0"/>
      <point x="148.0" y="-600.0" type="curve" smooth="yes"/>
      <point x="508.0" y="-600.0"/>
      <point x="760.0" y="-396.0"/>
      <point x="824.0" y="-16.0" type="curve" smooth="yes"/>
      <point x="1012.0" y="1120.0" type="line"/>
      <point x="1324.0" y="1120.0" type="line"/>
    </contour>
  </outline>
</glyph>
<glyph name="Ghook" format="2">
  <advance width="2320.0"/>
  <unicode hex="0193"/>
  <guideline x="1948.0" y="996.0" angle="90.0"/>
  <outline>
    <contour>
      <point x="2052.0" y="1356.0" type="line"/>
      <point x="2120.0" y="1748.0" type="line" smooth="yes"/>
      <point x="2148.0" y="1920.0"/>
      <point x="2296.0" y="1944.0"/>
      <point x="2444.0" y="1944.0" type="curve" smooth="yes"/>
      <point x="2492.0" y="1944.0"/>
      <point x="2536.0" y="1936.0"/>
      <point x="2588.0" y="1932.0" type="curve"/>
      <point x="2660.0" y="2364.0" type="line"/>
      <point x="2572.0" y="2384.0"/>
      <point x="2500.0" y="2396.0"/>
      <point x="2420.0" y="2396.0" type="curve" smooth="yes"/>
      <point x="2032.0" y="2396.0"/>
      <point x="1612.0" y="2168.0"/>
      <point x="1548.0" y="1748.0" type="curve" smooth="yes"/>
      <point x="1484.0" y="1356.0" type="line"/>
    </contour>
    <component base="G"/>
  </outline>
</glyph>
<glyph name="Gamma1" format="2">
  <advance width="2280.0"/>
  <unicode hex="0194"/>
  <outline>
    <contour>
      <point x="360.0" y="1988.0" type="line"/>
      <point x="988.0" y="172.0" type="line" smooth="yes"/>
      <point x="1044.0" y="16.0"/>
      <point x="1056.0" y="-68.0"/>
      <point x="1044.0" y="-148.0" type="curve" smooth="yes"/>
      <point x="1036.0" y="-196.0"/>
      <point x="1032.0" y="-248.0"/>
      <point x="972.0" y="-248.0" type="curve" smooth="yes"/>
      <point x="916.0" y="-248.0"/>
      <point x="924.0" y="-204.0"/>
      <point x="932.0" y="-148.0" type="curve" smooth="yes"/>
      <point x="948.0" y="-60.0"/>
      <point x="996.0" y="20.0"/>
      <point x="1096.0" y="172.0" type="curve" smooth="yes"/>
      <point x="2320.0" y="1988.0" type="line"/>
      <point x="1676.0" y="1988.0" type="line"/>
      <point x="1020.0" y="884.0" type="line" smooth="yes"/>
      <point x="752.0" y="440.0"/>
      <point x="404.0" y="-40.0"/>
      <point x="380.0" y="-172.0" type="curve" smooth="yes"/>
      <point x="328.0" y="-492.0"/>
      <point x="612.0" y="-600.0"/>
      <point x="912.0" y="-600.0" type="curve" smooth="yes"/>
      <point x="1212.0" y="-600.0"/>
      <point x="1516.0" y="-492.0"/>
      <point x="1568.0" y="-172.0" type="curve" smooth="yes"/>
      <point x="1592.0" y="-36.0"/>
      <point x="1428.0" y="448.0"/>
      <point x="1308.0" y="884.0" type="curve" smooth="yes"/>
      <point x="1000.0" y="1988.0" type="line"/>
    </contour>
  </outline>
</glyph>
<glyph name="hv" format="2">
  <advance width="2568.0"/>
  <unicode hex="0195"/>
  <outline>
    <contour>
      <point x="12.0" y="0.0" type="line"/>
      <point x="564.0" y="0.0" type="line"/>
      <point x="692.0" y="772.0" type="line" smooth="yes"/>
      <point x="716.0" y="904.0"/>
      <point x="752.0" y="1136.0"/>
      <point x="944.0" y="1136.0" type="curve" smooth="yes"/>
      <point x="1064.0" y="1136.0"/>
      <point x="1064.0" y="1048.0"/>
      <point x="1048.0" y="960.0" type="curve" smooth="yes"/>
      <point x="1008.0" y="716.0" type="line"/>
      <point x="988.0" y="592.0" type="line" smooth="yes"/>
      <point x="936.0" y="296.0"/>
      <point x="1112.0" y="-28.0"/>
      <point x="1588.0" y="-28.0" type="curve" smooth="yes"/>
      <point x="2064.0" y="-28.0"/>
      <point x="2348.0" y="296.0"/>
      <point x="2400.0" y="592.0" type="curve" smooth="yes"/>
      <point x="2556.0" y="1536.0" type="line"/>
      <point x="2004.0" y="1536.0" type="line"/>
      <point x="1848.0" y="592.0" type="line" smooth="yes"/>
      <point x="1832.0" y="512.0"/>
      <point x="1788.0" y="420.0"/>
      <point x="1664.0" y="420.0" type="curve" smooth="yes"/>
      <point x="1536.0" y="420.0"/>
      <point x="1528.0" y="516.0"/>
      <point x="1540.0" y="592.0" type="curve" smooth="yes"/>
      <point x="1548.0" y="640.0" type="line"/>
      <point x="1600.0" y="952.0" type="line" smooth="yes"/>
      <point x="1668.0" y="1368.0"/>
      <point x="1500.0" y="1556.0"/>
      <point x="1216.0" y="1556.0" type="curve" smooth="yes"/>
      <point x="1060.0" y="1556.0"/>
      <point x="908.0" y="1508.0"/>
      <point x="792.0" y="1392.0" type="curve"/>
      <point x="776.0" y="1392.0" type="line"/>
      <point x="884.0" y="2048.0" type="line"/>
      <point x="352.0" y="2048.0" type="line"/>
    </contour>
  </outline>
</glyph>
<glyph name="Iota1" format="2">
  <advance width="1128.0"/>
  <unicode hex="0196"/>
  <outline>
    <contour>
      <point x="868.0" y="2112.0" type="line"/>
      <point x="348.0" y="2112.0" type="line"/>
      <point x="84.0" y="516.0" type="line" smooth="yes"/>
      <point x="24.0" y="164.0"/>
      <point x="224.0" y="-28.0"/>
      <point x="628.0" y="-28.0" type="curve" smooth="yes"/>
      <point x="708.0" y="-28.0"/>
      <point x="792.0" y="-16.0"/>
      <point x="876.0" y="0.0" type="curve"/>
      <point x="912.0" y="400.0" type="line"/>
      <point x="864.0" y="392.0"/>
      <point x="836.0" y="388.0"/>
      <point x="760.0" y="388.0" type="curve" smooth="yes"/>
      <point x="644.0" y="388.0"/>
      <point x="588.0" y="428.0"/>
      <point x="604.0" y="516.0" type="curve" smooth="yes"/>
    </contour>
  </outline>
</glyph>
<glyph name="Khook" format="2">
  <advance width="2148.0"/>
  <unicode hex="0198"/>
  <guideline x="1452.0" y="1740.0" angle="227.7472"/>
  <guideline x="1764.0" y="1508.0" angle="227.9329"/>
  <outline>
    <contour>
      <point x="1728.0" y="1428.0" type="line"/>
      <point x="1820.0" y="1508.0" type="line" smooth="yes"/>
      <point x="1916.0" y="1596.0"/>
      <point x="1984.0" y="1644.0"/>
      <point x="2104.0" y="1584.0" type="curve"/>
      <point x="2332.0" y="1972.0" type="line"/>
      <point x="2040.0" y="2148.0"/>
      <point x="1740.0" y="2100.0"/>
      <point x="1464.0" y="1844.0" type="curve" smooth="yes"/>
      <point x="1308.0" y="1700.0" type="line"/>
    </contour>
    <contour>
      <point x="888.0" y="2048.0" type="line"/>
      <point x="332.0" y="2048.0" type="line"/>
      <point x="-8.0" y="0.0" type="line"/>
      <point x="548.0" y="0.0" type="line"/>
    </contour>
    <contour>
      <point x="1324.0" y="0.0" type="line"/>
      <point x="1988.0" y="0.0" type="line"/>
      <point x="1272.0" y="1184.0" type="line"/>
      <point x="800.0" y="876.0" type="line"/>
    </contour>
    <contour>
      <point x="1308.0" y="1700.0" type="line"/>
      <point x="784.0" y="1256.0" type="line"/>
      <point x="708.0" y="1256.0" type="line"/>
      <point x="564.0" y="388.0" type="line"/>
      <point x="976.0" y="752.0" type="line"/>
      <point x="1140.0" y="924.0" type="line"/>
      <point x="1728.0" y="1428.0" type="line"/>
    </contour>
  </outline>
</glyph>
<glyph name="khook" format="2">
  <advance width="1696.0"/>
  <unicode hex="0199"/>
  <guideline x="456.0" y="2140.0" angle="0.0"/>
  <outline>
    <contour>
      <point x="992.0" y="0.0" type="line"/>
      <point x="1580.0" y="0.0" type="line"/>
      <point x="1148.0" y="880.0" type="line"/>
      <point x="1820.0" y="1536.0" type="line"/>
      <point x="1192.0" y="1536.0" type="line"/>
      <point x="756.0" y="1100.0" type="line"/>
      <point x="736.0" y="1100.0" type="line"/>
      <point x="788.0" y="1420.0" type="line"/>
      <point x="236.0" y="1420.0" type="line"/>
      <point x="0.0" y="0.0" type="line"/>
      <point x="552.0" y="0.0" type="line"/>
      <point x="612.0" y="352.0" type="line"/>
      <point x="756.0" y="488.0" type="line"/>
    </contour>
    <contour>
      <point x="760.0" y="1256.0" type="line"/>
      <point x="808.0" y="1548.0" type="line" smooth="yes"/>
      <point x="824.0" y="1640.0"/>
      <point x="940.0" y="1660.0"/>
      <point x="1036.0" y="1660.0" type="curve" smooth="yes"/>
      <point x="1076.0" y="1660.0"/>
      <point x="1116.0" y="1656.0"/>
      <point x="1160.0" y="1652.0" type="curve"/>
      <point x="1224.0" y="2060.0" type="line"/>
      <point x="1164.0" y="2064.0"/>
      <point x="1072.0" y="2076.0"/>
      <point x="956.0" y="2076.0" type="curve" smooth="yes"/>
      <point x="672.0" y="2076.0"/>
      <point x="336.0" y="2032.0"/>
      <point x="256.0" y="1548.0" type="curve" smooth="yes"/>
      <point x="208.0" y="1256.0" type="line"/>
    </contour>
  </outline>
</glyph>
<glyph name="lambdabar" format="2">
  <advance width="1928.0"/>
  <unicode hex="019B"/>
  <outline>
    <contour>
      <point x="1364.0" y="1844.0" type="line"/>
      <point x="428.0" y="1592.0" type="line"/>
      <point x="380.0" y="1292.0" type="line"/>
      <point x="1312.0" y="1552.0" type="line"/>
    </contour>
    <contour>
      <point x="972.0" y="832.0" type="line"/>
      <point x="1180.0" y="1544.0" type="line"/>
      <point x="824.0" y="1540.0" type="line"/>
      <point x="8.0" y="0.0" type="line"/>
      <point x="560.0" y="0.0" type="line"/>
    </contour>
    <contour>
      <point x="824.0" y="2160.0" type="curve"/>
      <point x="748.0" y="2160.0"/>
      <point x="604.0" y="2148.0"/>
      <point x="516.0" y="2124.0" type="curve"/>
      <point x="468.0" y="1740.0" type="line"/>
      <point x="512.0" y="1744.0"/>
      <point x="536.0" y="1744.0"/>
      <point x="564.0" y="1744.0" type="curve" smooth="yes"/>
      <point x="676.0" y="1744.0"/>
      <point x="736.0" y="1700.0"/>
      <point x="756.0" y="1628.0" type="curve" smooth="yes"/>
      <point x="856.0" y="1300.0" type="line"/>
      <point x="1048.0" y="308.0" type="line" smooth="yes"/>
      <point x="1080.0" y="144.0"/>
      <point x="1200.0" y="-28.0"/>
      <point x="1480.0" y="-28.0" type="curve" smooth="yes"/>
      <point x="1556.0" y="-28.0"/>
      <point x="1616.0" y="-32.0"/>
      <point x="1668.0" y="-24.0" type="curve"/>
      <point x="1740.0" y="380.0" type="line"/>
      <point x="1728.0" y="380.0"/>
      <point x="1712.0" y="380.0"/>
      <point x="1692.0" y="380.0" type="curve" smooth="yes"/>
      <point x="1604.0" y="380.0"/>
      <point x="1576.0" y="492.0"/>
      <point x="1556.0" y="560.0" type="curve" smooth="yes"/>
      <point x="1200.0" y="1916.0" type="line" smooth="yes"/>
      <point x="1156.0" y="2072.0"/>
      <point x="1032.0" y="2160.0"/>
    </contour>
  </outline>
</glyph>
<glyph name="mcapturn" format="2">
  <advance width="2740.0"/>
  <unicode hex="019C"/>
  <outline>
    <contour>
      <point x="1964.0" y="392.0" type="line"/>
      <point x="1960.0" y="0.0" type="line"/>
      <point x="2420.0" y="0.0" type="line"/>
      <point x="2752.0" y="2004.0" type="line"/>
      <point x="2232.0" y="2004.0" type="line"/>
    </contour>
    <contour>
      <point x="2084.0" y="692.0" type="line"/>
      <point x="2056.0" y="516.0"/>
      <point x="1956.0" y="384.0"/>
      <point x="1748.0" y="384.0" type="curve" smooth="yes"/>
      <point x="1620.0" y="384.0"/>
      <point x="1572.0" y="460.0"/>
      <point x="1592.0" y="568.0" type="curve"/>
      <point x="1828.0" y="2004.0" type="line"/>
      <point x="1316.0" y="2004.0" type="line"/>
      <point x="1080.0" y="568.0" type="line"/>
      <point x="1008.0" y="136.0"/>
      <point x="1184.0" y="-28.0"/>
      <point x="1504.0" y="-28.0" type="curve" smooth="yes"/>
      <point x="1876.0" y="-28.0"/>
      <point x="2152.0" y="280.0"/>
      <point x="2220.0" y="696.0" type="curve"/>
    </contour>
    <contour>
      <point x="1168.0" y="692.0" type="line"/>
      <point x="1136.0" y="512.0"/>
      <point x="1040.0" y="384.0"/>
      <point x="832.0" y="384.0" type="curve" smooth="yes"/>
      <point x="704.0" y="384.0"/>
      <point x="656.0" y="460.0"/>
      <point x="676.0" y="568.0" type="curve" smooth="yes"/>
      <point x="912.0" y="2004.0" type="line"/>
      <point x="400.0" y="2004.0" type="line"/>
      <point x="164.0" y="568.0" type="line" smooth="yes"/>
      <point x="92.0" y="140.0"/>
      <point x="224.0" y="-28.0"/>
      <point x="588.0" y="-28.0" type="curve" smooth="yes"/>
      <point x="976.0" y="-28.0"/>
      <point x="1240.0" y="268.0"/>
      <point x="1312.0" y="696.0" type="curve"/>
    </contour>
  </outline>
</glyph>
<glyph name="Nhook" format="2">
  <advance width="2140.0"/>
  <unicode hex="019D"/>
  <outline>
    <contour>
      <point x="108.0" y="0.0" type="line"/>
      <point x="100.0" y="-48.0" type="line" smooth="yes"/>
      <point x="84.0" y="-141.0"/>
      <point x="-27.0" y="-160.0"/>
      <point x="-124.0" y="-160.0" type="curve"/>
      <point x="-151.0" y="-160.0"/>
      <point x="-195.0" y="-164.0"/>
      <point x="-216.0" y="-160.0" type="curve"/>
      <point x="-284.0" y="-568.0" type="line"/>
      <point x="-235.0" y="-576.0"/>
      <point x="-107.0" y="-576.0"/>
      <point x="-48.0" y="-576.0" type="curve"/>
      <point x="237.0" y="-576.0"/>
      <point x="574.0" y="-532.0"/>
      <point x="656.0" y="-48.0" type="curve" smooth="yes"/>
      <point x="664.0" y="0.0" type="line"/>
    </contour>
    <component base="N" xOffset="104.0"/>
  </outline>
</glyph>
<glyph name="Ohorn" format="2">
  <advance width="2100.0"/>
  <unicode hex="01A0"/>
  <guideline x="1288.0" y="1568.0" angle="90.0"/>
  <outline>
    <contour>
      <point x="2096.0" y="2116.0" type="line"/>
      <point x="2052.0" y="1856.0"/>
      <point x="1988.0" y="1704.0"/>
      <point x="1804.0" y="1704.0" type="curve"/>
      <point x="1764.0" y="1468.0" type="line"/>
      <point x="2136.0" y="1468.0"/>
      <point x="2328.0" y="1708.0"/>
      <point x="2396.0" y="2116.0" type="curve"/>
    </contour>
    <component base="O"/>
  </outline>
</glyph>
<glyph name="ohorn" format="2">
  <advance width="1844.0"/>
  <unicode hex="01A1"/>
  <outline>
    <contour>
      <point x="1708.0" y="1608.0" type="line"/>
      <point x="1668.0" y="1360.0"/>
      <point x="1588.0" y="1216.0"/>
      <point x="1368.0" y="1216.0" type="curve"/>
      <point x="1336.0" y="1044.0" type="line"/>
      <point x="1712.0" y="1044.0"/>
      <point x="1924.0" y="1248.0"/>
      <point x="1984.0" y="1608.0" type="curve"/>
    </contour>
    <component base="o"/>
  </outline>
</glyph>
<glyph name="OI" format="2">
  <advance width="2812.0"/>
  <unicode hex="01A2"/>
  <outline>
    <contour>
      <point x="2008.0" y="1284.0" type="line"/>
      <point x="1488.0" y="1284.0" type="line"/>
      <point x="1356.0" y="468.0" type="line"/>
      <point x="1300.0" y="436.0"/>
      <point x="1208.0" y="400.0"/>
      <point x="1056.0" y="400.0" type="curve" smooth="yes"/>
      <point x="744.0" y="400.0"/>
      <point x="676.0" y="620.0"/>
      <point x="728.0" y="948.0" type="curve" smooth="yes"/>
      <point x="744.0" y="1024.0" type="line"/>
      <point x="192.0" y="1020.0" type="line"/>
      <point x="180.0" y="948.0" type="line" smooth="yes"/>
      <point x="80.0" y="332.0"/>
      <point x="388.0" y="-28.0"/>
      <point x="952.0" y="-28.0" type="curve" smooth="yes"/>
      <point x="1400.0" y="-28.0"/>
      <point x="1708.0" y="132.0"/>
      <point x="1836.0" y="244.0" type="curve"/>
    </contour>
    <contour>
      <point x="2088.0" y="1760.0" type="line"/>
      <point x="1996.0" y="1876.0"/>
      <point x="1744.0" y="2032.0"/>
      <point x="1292.0" y="2032.0" type="curve" smooth="yes"/>
      <point x="728.0" y="2032.0"/>
      <point x="304.0" y="1676.0"/>
      <point x="200.0" y="1056.0" type="curve" smooth="yes"/>
      <point x="184.0" y="960.0" type="line"/>
      <point x="732.0" y="956.0" type="line"/>
      <point x="748.0" y="1056.0" type="line" smooth="yes"/>
      <point x="804.0" y="1404.0"/>
      <point x="928.0" y="1604.0"/>
      <point x="1260.0" y="1604.0" type="curve" smooth="yes"/>
      <point x="1380.0" y="1604.0"/>
      <point x="1476.0" y="1588.0"/>
      <point x="1532.0" y="1540.0" type="curve"/>
      <point x="1396.0" y="728.0" type="line"/>
      <point x="1920.0" y="736.0" type="line"/>
    </contour>
    <contour>
      <point x="2864.0" y="2004.0" type="line"/>
      <point x="2480.0" y="2004.0" type="line"/>
      <point x="1780.0" y="1696.0" type="line"/>
      <point x="1684.0" y="1100.0" type="line"/>
      <point x="2244.0" y="1352.0" type="line"/>
      <point x="1928.0" y="-572.0" type="line"/>
      <point x="2440.0" y="-572.0" type="line"/>
    </contour>
  </outline>
</glyph>
<glyph name="oi" format="2">
  <advance width="2280.0"/>
  <unicode hex="01A3"/>
  <guideline x="1124.0"/>
  <outline>
    <contour>
      <point x="772.0" y="388.0" type="curve" smooth="yes"/>
      <point x="560.0" y="388.0"/>
      <point x="592.0" y="572.0"/>
      <point x="620.0" y="732.0" type="curve" smooth="yes"/>
      <point x="624.0" y="756.0" type="line" smooth="yes"/>
      <point x="652.0" y="936.0"/>
      <point x="696.0" y="1104.0"/>
      <point x="884.0" y="1104.0" type="curve"/>
      <point x="976.0" y="1104.0"/>
      <point x="1024.0" y="1072.0"/>
      <point x="1048.0" y="1012.0" type="curve"/>
      <point x="1020.0" y="836.0" type="line"/>
      <point x="1528.0" y="788.0" type="line"/>
      <point x="1576.0" y="1092.0" type="line"/>
      <point x="1532.0" y="1256.0"/>
      <point x="1336.0" y="1516.0"/>
      <point x="972.0" y="1516.0" type="curve" smooth="yes"/>
      <point x="480.0" y="1516.0"/>
      <point x="184.0" y="1196.0"/>
      <point x="112.0" y="756.0" type="curve" smooth="yes"/>
      <point x="108.0" y="732.0" type="line" smooth="yes"/>
      <point x="32.0" y="288.0"/>
      <point x="224.0" y="-28.0"/>
      <point x="716.0" y="-28.0" type="curve"/>
      <point x="1120.0" y="-28.0"/>
      <point x="1320.0" y="144.0"/>
      <point x="1452.0" y="340.0" type="curve"/>
      <point x="1548.0" y="904.0" type="line"/>
      <point x="1032.0" y="904.0" type="line"/>
      <point x="956.0" y="452.0" type="line"/>
      <point x="916.0" y="408.0"/>
      <point x="852.0" y="388.0"/>
    </contour>
    <contour>
      <point x="2292.0" y="1488.0" type="line"/>
      <point x="1956.0" y="1488.0" type="line"/>
      <point x="1388.0" y="1276.0" type="line"/>
      <point x="1316.0" y="840.0" type="line"/>
      <point x="1680.0" y="940.0" type="line"/>
      <point x="1432.0" y="-572.0" type="line"/>
      <point x="1952.0" y="-572.0" type="line"/>
    </contour>
  </outline>
</glyph>
<glyph name="Phook" format="2">
  <advance width="2528.0"/>
  <unicode hex="01A4"/>
  <note>
!post:RemoveOverlap
</note>
  <outline>
    <contour>
      <point x="636.0" y="1196.0" type="line"/>
      <point x="660.0" y="1344.0" type="line" smooth="yes"/>
      <point x="679.0" y="1464.0"/>
      <point x="748.0" y="1604.0"/>
      <point x="920.0" y="1604.0" type="curve" smooth="yes"/>
      <point x="1284.0" y="1604.0" type="line"/>
      <point x="1356.0" y="2048.0" type="line"/>
      <point x="992.0" y="2048.0" type="line" smooth="yes"/>
      <point x="560.0" y="2048.0"/>
      <point x="251.0" y="1827.0"/>
      <point x="188.0" y="1440.0" type="curve" smooth="yes"/>
      <point x="148.0" y="1196.0" type="line"/>
    </contour>
    <component base="P" xOffset="680.0"/>
  </outline>
</glyph>
